<svg width="49" height="12" viewBox="0 0 49 12" fill="none" xmlns="http://www.w3.org/2000/svg">
<path d="M0 11.0013V0.845259H7.41111V2.04372H1.35605V5.1542H7.0262V6.34598H1.35605V9.80282H7.64863V11.0013H0Z" fill="black"/>
<path d="M34.093 11.0013V2.04372H30.7164V0.845259H38.8409V2.04372H35.4499V11.0013H34.093Z" fill="black"/>
<path d="M40.2747 11.0013V0.845259H41.6308V5.01566H46.9581V0.845259H48.3142V11.0013H46.9581V6.21412H41.6308V11.0013H40.2747Z" fill="black"/>
<path d="M23.4376 3.08991L22.329 0.75C21.3639 1.29965 20.4402 1.99143 19.9261 3.375L20.3366 3.49742L20.5828 3.13099C21.1782 2.25599 22.4924 2.66268 22.5952 3.86385C22.6566 4.51455 22.5745 4.96232 22.5131 5.69519C22.3896 7.13955 21.5894 9.5 20.4186 10.5788L20.0696 10.9041L20.3772 11.25C20.5414 11.1276 20.6649 11.0668 20.8084 11.006C21.116 10.8638 21.7942 10.762 22.3075 11.0668C22.9236 11.3108 23.2113 11.2295 23.7652 10.8228L24.217 10.4769L23.9094 10.131L23.6839 10.2731C23.2527 10.5779 22.9244 10.5171 22.7395 10.4358C22.3083 10.2526 21.98 9.86643 22.4111 8.70634C22.6574 8.01455 22.8838 7.32277 23.1093 6.63099C23.3348 5.9392 24.5877 6.14296 24.9782 6.8142C26.1075 8.72688 27.0727 10.8836 29.3521 11.25L31.2824 9.66268L30.9747 9.31678L30.7492 9.45892C28.7161 10.8219 27.3198 7.64812 25.8414 6.32535C25.9848 6.1216 26.4782 5.71491 28.4906 4.63615C28.7161 4.51373 28.8189 4.3108 28.7982 4.06678C28.7775 3.84331 27.4019 1.40153 27.2783 1.17723C27.0528 0.77054 26.7037 0.72946 26.0255 1.13615C25.1018 1.6858 24.198 2.49918 23.4385 3.08908L23.4376 3.08991ZM25.3472 5.7757C24.649 5.42981 24.0744 5.63357 23.2735 5.89812C23.397 5.22688 23.4376 4.96232 23.5612 3.98545C23.5612 3.92465 23.6026 3.66009 23.6433 3.63955C24.7519 2.76455 25.2038 2.60188 25.9633 2.33732C26.2709 2.62242 26.7642 3.41608 27.0719 4.39214C26.5992 4.92124 25.8812 5.30739 25.3472 5.7757Z" fill="black"/>
<path d="M12.8976 11.0628C12.527 10.8993 12.3827 10.7161 11.9507 10.5936C11.2924 10.3899 10.6539 10.5123 10.0163 10.7769C9.81064 10.8787 9.50136 10.9806 9.29573 11.0628C9.21364 11.1039 9.06937 11.1236 8.98728 11.1039C8.90519 11.0841 8.84301 10.9814 8.90519 10.8796C8.92592 10.8385 11.5394 6.4339 11.5394 6.4339C10.1813 5.98531 9.2551 5.19001 9.33719 3.68073C9.39855 2.27334 10.5312 0.846226 12.7948 0.846226C13.1447 0.846226 16.7673 0.866766 16.8909 0.866766C17.4257 0.866766 17.3643 1.21348 17.3643 1.66207V7.86184C17.3643 9.18707 17.9199 9.96266 18.8668 9.45245L19.0931 9.30949L19.4016 9.65621L17.8369 11.0841C17.7341 11.1655 17.6927 11.1449 17.652 11.1252C16.5609 10.4523 15.9846 9.94212 15.9846 7.7805V6.41419H15.1198C14.6671 6.41419 14.1936 6.39365 13.7409 6.39365C13.3296 6.39365 12.8968 6.37311 12.4855 6.39365C12.4242 6.39365 12.3412 6.45444 12.3205 6.51606L10.2211 10.0645C10.9822 9.57487 11.5585 9.31031 12.1356 9.49353C13.0203 9.79916 13.2061 9.92158 13.8031 9.92158C14.2558 9.92158 14.7906 9.65621 15.2027 9.30949L15.5319 9.63566L14.2972 10.7571C13.721 11.2674 13.1862 11.1852 12.8976 11.0628ZM12.8769 5.49482H16.0053V1.82393C16.0053 1.64071 15.8403 1.59963 15.7375 1.59963C15.5526 1.59963 15.449 1.57909 15.3461 1.62017C15.1405 1.70151 15.0576 1.96688 14.7906 2.33414L12.8761 5.49564L12.8769 5.49482ZM14.5443 1.57909L12.7741 1.55855C11.3952 1.51747 10.1191 2.23144 9.97481 3.59775C9.872 4.92299 10.8396 5.51454 11.8479 5.77991L14.5443 1.57909Z" fill="black"/>
</svg>
