<svg id="Layer_2" data-name="Layer 2" xmlns="http://www.w3.org/2000/svg" viewBox="0 0 1470.88 102.98">
  <g id="Layer_1-2" data-name="Layer 1">
    <polygon points="505.21 99.08 505.21 3.36 574.43 3.36 574.43 14.65 517.89 14.65 517.89 43.97 570.84 43.97 570.84 55.2 517.89 55.2 517.89 87.79 576.66 87.79 576.66 99.08 505.22 99.08 505.21 99.08"/>
    <polygon points="823.63 99.08 823.63 14.65 792.09 14.65 792.09 3.36 867.97 3.36 867.97 14.65 836.3 14.65 836.3 99.08 823.64 99.08 823.63 99.08"/>
    <polygon points="881.35 99.08 881.35 3.36 894.02 3.36 894.02 42.67 943.77 42.67 943.77 3.36 956.44 3.36 956.44 99.08 943.77 99.08 943.77 53.96 894.02 53.96 894.02 99.08 881.35 99.08"/>
    <path d="M745.67,50.57c-6.62-3.31-12.07-1.36-19.67,1.17,1.17-6.43,1.56-8.96,2.73-18.31,0-.58,.39-3.11,.78-3.31,10.52-8.38,14.8-9.93,22.01-12.47,2.92,2.73,7.6,10.33,10.52,19.67-4.48,5.07-11.3,8.76-16.36,13.25h0Zm-18.12-25.71l-10.52-22.4c-9.16,5.26-17.92,11.89-22.8,25.13l3.89,1.17,2.34-3.51c5.65-8.38,18.12-4.48,19.09,7.02,.58,6.23-.2,10.52-.78,17.53-1.17,13.83-8.76,36.43-19.87,46.76l-3.31,3.12,2.92,3.31c1.56-1.17,2.73-1.75,4.09-2.34,2.92-1.36,9.35-2.34,14.22,.58,5.84,2.34,8.57,1.56,13.83-2.34l4.29-3.31-2.92-3.31-2.14,1.36c-4.09,2.92-7.21,2.34-8.96,1.56-4.09-1.75-7.21-5.45-3.11-16.56,2.34-6.62,4.48-13.25,6.62-19.87,2.14-6.62,14.03-4.67,17.73,1.75,10.71,18.31,19.87,38.96,41.49,42.47l18.31-15.2-2.92-3.31-2.14,1.36c-19.29,13.05-32.53-17.34-46.56-30,1.36-1.95,6.04-5.84,25.13-16.17,2.14-1.17,3.12-3.11,2.92-5.45-.2-2.14-13.25-25.52-14.42-27.67-2.14-3.89-5.45-4.29-11.89-.39-8.76,5.26-17.34,13.05-24.54,18.7h0Z"/>
    <path d="M643.19,10.38l-16.79-.2c-13.08-.39-25.19,6.44-26.56,19.52-.98,12.69,8.2,18.35,17.77,20.89l25.58-40.22h0Zm-15.82,37.49h29.68V12.74c0-1.75-1.57-2.15-2.54-2.15-1.75,0-2.74-.2-3.71,.2-1.95,.78-2.74,3.32-5.27,6.84l-18.16,30.27v-.02Zm.2,53.31c-3.52-1.57-4.88-3.32-8.98-4.49-6.25-1.95-12.3-.78-18.35,1.75-1.95,.98-4.88,1.95-6.84,2.74-.78,.39-2.15,.58-2.93,.39-.78-.2-1.37-1.17-.78-2.15,.2-.39,24.99-42.56,24.99-42.56-12.88-4.29-21.67-11.91-20.89-26.36,.58-13.47,11.33-27.14,32.8-27.14,3.32,0,37.69,.2,38.86,.2,5.07,0,4.49,3.32,4.49,7.61v59.35c0,12.69,5.27,20.11,14.25,15.23l2.15-1.37,2.93,3.32-14.84,13.67c-.98,.78-1.37,.58-1.75,.39-10.35-6.44-15.82-11.33-15.82-32.02v-13.08h-8.2c-4.29,0-8.79-.2-13.08-.2-3.9,0-8.01-.2-11.91,0-.58,0-1.37,.58-1.57,1.17l-19.92,33.97c7.22-4.69,12.69-7.22,18.16-5.47,8.39,2.93,10.16,4.1,15.82,4.1,4.29,0,9.37-2.54,13.28-5.86l3.12,3.12-11.71,10.74c-5.47,4.88-10.54,4.1-13.28,2.93h0Z"/>
    <path d="M381.41,61.95c0-5.55-4.26-5.55-10.25-4.21-5.99,1.53-11.6,.19-16.24-4.21-4.64-4.4-7.16-10.9-7.16-19.31,.2-9.18,2.9-16.64,8.12-22.37,5.41-5.93,12.57-8.98,21.66-8.98,4.64,0,9.48,1.34,14.69,4.4,5.03,2.87,9.86,8.03,13.34,13.77,2.71-7.27,5.41-18.16,17.01-18.55,10.83-.39,17.98,10.13,17.98,24.28,0,7.27,1.74,13.19,12.96,13.19v6.31c-16.83,0-21.08,12.04-21.08,22.95,0,9.75,11.02,20.85,19.92,13.58l3.09,3.06-14.89,13.58c-.97,.76-1.35,.57-1.74,.39-23.21-13.39-22.43-46.85,.77-56.22-6.38-3.25-10.64-6.5-10.64-16.06,0-11.67-3.67-14.34-8.9-14.34-7.93,0-9.48,11.09-10.05,16.83,4.06,17.79-1.16,46.28-11.99,59.08-5.8,7.07-11.8,9.37-16.83,10.52-4.84,.96-10.25-.57-14.51-6.69-3.48-5.73-6.96-7.27-11.22-3.06l-2.12-2.3c10.64-12.24,20.69-12.04,27.46-4.78,3.29,3.63,3.87,6.12,7.35,6.12,2.52-.19,5.03-3.06,7.93-8.61,2.52-5.55,4.26-11.85,4.26-20.46-.2-16.25-1.55-23.13-5.03-31.17-4.26-9.56-13.92-15.49-22.04-15.49-12.57,0-19.34,9.56-19.34,20.46,0,6.5,2.52,16.06,15.08,13.58,10.64-2.1,17.4,1.91,15.66,14.73h-3.26Z"/>
    <path d="M35.07,43.52v40.68c0,2.11-.76,5.56-3.04,7.87l19.34,.19V43.52h-16.3ZM70.7,2.65v5.76H34.3v28.96h29v19c0,15.92-.57,27.44-4.55,35.88h23.5v6.14H0v-6.14H23.13V43.52H9.48v-6.14h13.65V8.4H1.52V2.65H70.7Z"/>
    <path d="M155.72,87.76v11.3h-63.27c-.09-2.83,.37-5.55,1.37-8.17,1.61-4.31,4.19-8.55,7.74-12.74,3.55-4.18,8.68-9.01,15.38-14.5,10.41-8.53,17.43-15.29,21.09-20.27,3.66-4.99,5.48-9.7,5.48-14.14,0-4.66-1.67-8.59-5-11.78-3.33-3.19-7.67-4.8-13.03-4.8-5.66,0-10.19,1.7-13.58,5.09-3.4,3.39-5.11,8.09-5.16,14.1l-12.08-1.24c.83-9.01,3.94-15.87,9.34-20.6,5.4-4.72,12.65-7.09,21.74-7.09s16.46,2.55,21.81,7.64c5.35,5.09,8.03,11.41,8.03,18.93,0,3.83-.79,7.6-2.35,11.3-1.57,3.7-4.17,7.6-7.8,11.69-3.63,4.09-9.68,9.71-18.12,16.85-7.05,5.92-11.58,9.93-13.58,12.04-2.01,2.11-3.66,4.23-4.96,6.36h46.95l.02,.02Z"/>
    <path d="M172.9,19.78c0,3.04,1.08,5.65,3.23,7.8,2.16,2.16,4.75,3.23,7.8,3.23s5.59-1.08,7.74-3.23c2.16-2.16,3.23-4.76,3.23-7.8s-1.08-5.65-3.23-7.8c-2.16-2.16-4.74-3.23-7.74-3.23s-5.65,1.08-7.8,3.23c-2.16,2.16-3.23,4.76-3.23,7.8Zm-7.12,0c0-5,1.77-9.27,5.33-12.8,3.55-3.52,7.8-5.29,12.77-5.29s9.34,1.76,12.86,5.29c3.52,3.52,5.29,7.8,5.29,12.8s-1.77,9.28-5.32,12.83c-3.55,3.55-7.83,5.33-12.83,5.33s-9.22-1.76-12.77-5.29c-3.55-3.52-5.33-7.81-5.33-12.86h0Z"/>
    <path d="M211.17,73.78l11.75-1.57c1.35,6.66,3.64,11.46,6.89,14.4,3.24,2.94,7.19,4.41,11.85,4.41,5.53,0,10.19-1.91,14-5.74,3.81-3.83,5.71-8.57,5.71-14.24s-1.76-9.85-5.29-13.36c-3.52-3.5-8.01-5.25-13.45-5.25-2.22,0-4.99,.43-8.29,1.31l1.31-10.32c.79,.09,1.42,.13,1.9,.13,5,0,9.51-1.31,13.51-3.92,4-2.61,6.01-6.64,6.01-12.08,0-4.31-1.46-7.88-4.37-10.71-2.92-2.83-6.69-4.25-11.3-4.25s-8.38,1.44-11.43,4.31c-3.04,2.87-5,7.18-5.88,12.93l-11.75-2.09c1.44-7.88,4.7-13.99,9.79-18.31,5.09-4.33,11.43-6.5,19-6.5,5.22,0,10.03,1.12,14.43,3.36,4.4,2.24,7.76,5.3,10.08,9.17,2.33,3.88,3.49,7.99,3.49,12.34s-1.11,7.9-3.33,11.3c-2.22,3.4-5.51,6.1-9.86,8.09,5.66,1.31,10.05,4.01,13.19,8.13,3.14,4.11,4.7,9.26,4.7,15.44,0,8.35-3.04,15.44-9.14,21.25s-13.8,8.72-23.11,8.72c-8.4,0-15.38-2.5-20.92-7.51-5.55-5-8.72-11.49-9.5-19.46l-.02,.02Z"/>
    <path d="M314.48,99.06h-11.75V24.16c-2.83,2.7-6.54,5.4-11.13,8.09-4.59,2.7-8.72,4.72-12.37,6.07v-11.36c6.58-3.09,12.32-6.84,17.23-11.23,4.92-4.4,8.4-8.66,10.45-12.8h7.58V99.06Z"/>
    <path d="M328.41,16V2.35h12.6V13.13c0,5.84-.68,10.04-2.02,12.6-1.87,3.52-4.79,6.18-8.75,7.97l-2.87-4.63c2.35-.96,4.11-2.47,5.25-4.54,1.16-2.07,1.79-4.91,1.93-8.52h-6.14Z"/>
    <path d="M1141.78,3.71c-.19,6.49,.57,13.2-2.29,22.56-1.53,4.96-4.78,9.93-10.7,10.31-4.96,.19-9.74-2.67-12.22-7.06-3.44,4.96-9.74,8.02-16.04,6.69-6.11-1.34-9.16-4.96-15.28-12.6,.95,4.01,9.55,20.24,12.22,34.38,2.67,13.75,1.34,37.05,1.34,39.72l-4.96,.19c0-10.31-2.29-30.55-8.02-44.5-7.06-17.19-15.47-27.31-16.24-28.07,0-1.53,7.26-21.39,8.21-23.11h3.44c5.92,14.7,15.28,19.29,22.54,19.29,6.3,0,9.74-3.05,11.26-13.18h4.39c0,5.92,1.53,11.84,7.06,12.41,6.49,.57,10.31-4.96,11.08-17.19l4.2,.17h0Z"/>
    <path d="M1468.54,8.57c-2.54,2.15-10.15,8.39-10.93,9.17-.78,.78-2.54,1.17-5.07-.2-7.61-4.1-11.12-6.05-16.2-5.27-3.32,.58-11.52,8-11.52,12.88,0,6.05,3.9,10.34,14.44,17.96,.98-1.37,2.73-3.7,4.3-6.05,2.54-3.12,5.47-3.9,7.8-3.9,2.15,0,4.68,1.37,7.03,2.93,3.7,3.32,6.64,4.1,10.74,1.37l1.75,2.34c-2.15,2.15-5.27,5.27-7.42,6.64-3.71,2.34-7.42,2.34-11.32-.58-3.7-3.12-8.79-2.15-10.15,0,4.88,5.27,8.59,11.32,8.59,15.03,.78,6.25-6.83,13.07-18.93,23.81l-3.52-3.71c3.32-2.93,10.74-11.32,11.12-15.61,.2-1.37,0-3.7-2.34-6.05l-9.95-9.95c-8.59-7.61-11.71-12.49-11.71-17.96,0-8.2,5.27-15.03,11.91-18.93-4.49-9.37-18.34-7.42-24.98,2.15-5.85,8.39-7.8,19.13-6.83,32.2,1.95,25.76,18.93,43.92,50.74,42.74,6.05-.2,12.1-1.37,19.71-5.47l2.54,3.12c-9.95,9.57-23.03,11.71-36.11,11.71-13.86,0-25.56-4.88-34.93-15.61-8.39-10.74-13.07-20.69-13.86-31.03-.78-14.44,1.56-26.93,8.39-37.67,6.25-9.95,14.84-14.64,24.79-14.64,9.17,0,14.05,4.1,16.01,9.57l10.34-7.8c1.75-1.37,3.52-1.56,5.27-.58,1.56,.98,7.03,3.9,10.74,5.66,2.34,1.17,5.07,.78,7.8-.58l1.75,2.34v-.04Z"/>
    <path d="M1053.78,98.33h-11.75V23.43c-2.83,2.7-6.54,5.4-11.13,8.09-4.59,2.7-8.71,4.72-12.37,6.07v-11.36c6.58-3.09,12.32-6.84,17.23-11.23,4.92-4.4,8.4-8.66,10.45-12.8h7.58V98.33Z"/>
    <path d="M1162.35,19.06c0,3.04,1.08,5.65,3.23,7.8,2.16,2.16,4.75,3.23,7.8,3.23s5.58-1.08,7.74-3.23c2.16-2.16,3.23-4.76,3.23-7.8s-1.08-5.65-3.23-7.8c-2.16-2.16-4.73-3.23-7.74-3.23s-5.65,1.08-7.8,3.23c-2.16,2.16-3.23,4.76-3.23,7.8Zm-7.12,0c0-5,1.77-9.27,5.33-12.8,3.55-3.52,7.8-5.29,12.77-5.29s9.34,1.76,12.86,5.29c3.52,3.52,5.29,7.8,5.29,12.8s-1.77,9.28-5.32,12.83c-3.55,3.55-7.83,5.33-12.83,5.33s-9.22-1.76-12.77-5.29c-3.55-3.52-5.33-7.81-5.33-12.86h0Z"/>
    <path d="M1267.04,87.03v11.3h-63.27c-.09-2.83,.37-5.55,1.37-8.17,1.61-4.31,4.19-8.55,7.74-12.74,3.55-4.18,8.68-9.01,15.38-14.5,10.41-8.53,17.43-15.29,21.09-20.27,3.66-4.99,5.48-9.7,5.48-14.14,0-4.66-1.67-8.59-4.99-11.78-3.33-3.19-7.67-4.8-13.03-4.8-5.66,0-10.19,1.7-13.59,5.09-3.4,3.39-5.11,8.09-5.16,14.1l-12.08-1.24c.83-9.01,3.94-15.87,9.34-20.6,5.4-4.72,12.65-7.09,21.74-7.09s16.46,2.55,21.81,7.64c5.36,5.09,8.03,11.41,8.03,18.93,0,3.83-.79,7.6-2.35,11.3-1.57,3.7-4.17,7.6-7.8,11.69-3.64,4.09-9.68,9.71-18.12,16.85-7.05,5.92-11.58,9.93-13.59,12.04-2.01,2.11-3.66,4.23-4.96,6.36h46.95l.02,.02Z"/>
    <path d="M1362.49,15.27V1.62h12.6V12.4c0,5.84-.68,10.04-2.02,12.6-1.87,3.52-4.79,6.18-8.75,7.97l-2.87-4.63c2.35-.96,4.1-2.47,5.25-4.54,1.16-2.07,1.79-4.91,1.93-8.52h-6.14Z"/>
    <path d="M1317.52,97.54h-4.26c-.39-6.77-3.48-18.76-9.09-32.3-2.9-6.96-5.99-13.73-9.48-20.88-3.67-6.96-7.54-15.28-11.8-22.24-.58-1.16-.58-2.32-.39-3.87l2.12-12.18c.97-5.22,1.93-6.38,3.48-3.48,5.41,9.48,10.25,20.7,14.89,31.33,4.64,10.45,9.09,21.85,13.15,33.85,.39,1.55,1.16,2.52,1.55,2.52s.97-1.16,1.16-2.52c4.26-18.38,12.57-41.97,24.37-64.6,.97-1.55,1.55-2.32,2.52-2.32,.58,0,1.16,.58,1.16,1.94l.77,14.7c0,1.35-.39,2.71-1.17,4.26-3.48,5.81-6.96,15.28-9.86,20.88-2.9,5.41-5.41,11.02-7.54,16.63-2.32,5.41-4.44,11.41-6.19,17.41-1.94,5.99-3.67,14.12-5.41,20.88h0Z"/>
  </g>
</svg>
