<svg id="Layer_2" data-name="Layer 2" xmlns="http://www.w3.org/2000/svg" viewBox="0 0 1869.88 130.94">
  <defs>
    <style>
      .cls-1 {
        fill: #231f20;
      }
    </style>
  </defs>
  <g id="Ebene_3" data-name="Ebene 3">
    <g>
      <g>
        <path class="cls-1" d="M642.26,125.99V4.3h87.99v14.36h-71.88V55.93h67.32v14.28h-67.32v41.42h74.71v14.36h-90.81Z"/>
        <path class="cls-1" d="M1047.05,125.99V18.66h-40.09V4.3h96.46v14.36h-40.26V125.99h-16.1Z"/>
        <path class="cls-1" d="M1120.43,125.99V4.3h16.1V54.27h63.25V4.3h16.1V125.99h-16.1v-57.36h-63.25v57.36h-16.1Z"/>
      </g>
      <path class="cls-1" d="M924.91,31.63l-13.37-28.48c-11.64,6.69-22.78,15.11-28.98,31.95l4.95,1.49,2.97-4.46c7.18-10.65,23.03-5.7,24.27,8.92,.74,7.92-.25,13.37-.99,22.29-1.49,17.58-11.14,46.31-25.26,59.44l-4.21,3.96,3.71,4.21c1.98-1.49,3.47-2.23,5.2-2.97,3.71-1.73,11.89-2.97,18.08,.74,7.43,2.97,10.9,1.98,17.58-2.97l5.45-4.21-3.71-4.21-2.72,1.73c-5.2,3.71-9.16,2.97-11.39,1.98-5.2-2.23-9.16-6.93-3.96-21.05,2.97-8.42,5.7-16.84,8.42-25.26,2.72-8.42,17.83-5.94,22.54,2.23,13.62,23.28,25.26,49.53,52.75,53.99l23.28-19.32-3.71-4.21-2.72,1.73c-24.52,16.59-41.36-22.04-59.19-38.14,1.73-2.48,7.68-7.43,31.95-20.56,2.72-1.49,3.96-3.96,3.71-6.93-.25-2.72-16.84-32.44-18.33-35.17-2.72-4.95-6.93-5.45-15.11-.5-11.14,6.69-22.04,16.59-31.2,23.77Zm23.03,32.69c-8.42-4.21-15.35-1.73-25.01,1.49,1.49-8.17,1.98-11.39,3.47-23.28,0-.74,.5-3.96,.99-4.21,13.37-10.65,18.82-12.63,27.98-15.85,3.71,3.47,9.66,13.13,13.37,25.01-5.7,6.44-14.36,11.14-20.8,16.84Z"/>
      <path class="cls-1" d="M797.8,128.66c-4.47-1.99-6.21-4.22-11.42-5.71-7.94-2.48-15.64-.99-23.33,2.23-2.48,1.24-6.21,2.48-8.69,3.48-.99,.5-2.73,.74-3.72,.5-.99-.25-1.74-1.49-.99-2.73,.25-.5,31.77-54.11,31.77-54.11-16.38-5.46-27.55-15.14-26.56-33.51,.74-17.13,14.4-34.5,41.7-34.5,4.22,0,47.91,.25,49.4,.25,6.45,0,5.71,4.22,5.71,9.68V89.69c0,16.13,6.7,25.57,18.12,19.36l2.73-1.74,3.72,4.22-18.87,17.38c-1.24,.99-1.74,.74-2.23,.5-13.16-8.19-20.11-14.4-20.11-40.71v-16.63h-10.43c-5.46,0-11.17-.25-16.63-.25-4.96,0-10.18-.25-15.14,0-.74,0-1.74,.74-1.99,1.49l-25.32,43.19c9.18-5.96,16.13-9.18,23.09-6.95,10.67,3.72,12.91,5.21,20.11,5.21,5.46,0,11.91-3.23,16.88-7.45l3.97,3.97-14.89,13.65c-6.95,6.21-13.4,5.21-16.88,3.72Zm-.25-67.77h37.73V16.22c0-2.23-1.99-2.73-3.23-2.73-2.23,0-3.48-.25-4.72,.25-2.48,.99-3.48,4.22-6.7,8.69l-23.09,38.48Zm20.11-47.66l-21.35-.25c-16.63-.5-32.02,8.19-33.76,24.82-1.24,16.13,10.43,23.33,22.59,26.56l32.52-51.13Z"/>
    </g>
    <path d="M484.87,78.78c0-7.05-5.41-7.05-13.03-5.35-7.62,1.94-14.75,.24-20.65-5.35-5.9-5.59-9.1-13.86-9.1-24.55,.25-11.67,3.69-21.15,10.32-28.44,6.88-7.54,15.98-11.42,27.53-11.42,5.9,0,12.05,1.7,18.68,5.59,6.39,3.65,12.54,10.21,16.96,17.5,3.44-9.24,6.88-23.09,21.63-23.58,13.77-.49,22.86,12.88,22.86,30.87,0,9.24,2.21,16.77,16.47,16.77v8.02c-21.39,0-26.8,15.31-26.8,29.17,0,12.4,14.01,26.5,25.32,17.26l3.93,3.89-18.93,17.26c-1.23,.97-1.72,.73-2.21,.49-29.5-17.02-28.52-59.56,.98-71.47-8.11-4.13-13.52-8.26-13.52-20.42,0-14.83-4.67-18.23-11.31-18.23-10.08,0-12.05,14.1-12.78,21.39,5.16,22.61-1.47,58.83-15.24,75.11-7.37,8.99-15,11.91-21.39,13.37-6.15,1.22-13.03-.73-18.44-8.51-4.42-7.29-8.85-9.24-14.26-3.89l-2.7-2.92c13.52-15.56,26.3-15.31,34.91-6.08,4.18,4.62,4.92,7.78,9.34,7.78,3.2-.24,6.39-3.89,10.08-10.94,3.2-7.05,5.41-15.07,5.41-26.01-.25-20.66-1.97-29.41-6.39-39.62-5.41-12.15-17.7-19.69-28.02-19.69-15.98,0-24.58,12.15-24.58,26.01,0,8.26,3.2,20.42,19.17,17.26,13.52-2.67,22.12,2.43,19.91,18.72h-4.18Z"/>
    <path d="M89.88,3.4v7.32H43.61V47.54h36.87v24.15c0,20.24-.72,34.88-5.78,45.61h29.88v7.8H0v-7.8H29.4V55.35H12.05v-7.8H29.4V10.71H1.93V3.4H89.88ZM44.58,55.35v51.71c0,2.68-.96,7.07-3.86,10l24.58,.24V55.35h-20.72Z"/>
    <path class="cls-1" d="M197.96,111.59v14.36H117.53c-.11-3.6,.47-7.06,1.74-10.38,2.05-5.48,5.33-10.87,9.84-16.19,4.51-5.31,11.03-11.46,19.55-18.43,13.23-10.85,22.16-19.44,26.81-25.77,4.65-6.34,6.97-12.33,6.97-17.97,0-5.92-2.12-10.92-6.35-14.98s-9.75-6.1-16.56-6.1c-7.19,0-12.95,2.16-17.27,6.47s-6.5,10.29-6.56,17.93l-15.36-1.58c1.05-11.46,5.01-20.18,11.87-26.19,6.86-6,16.08-9.01,27.64-9.01s20.92,3.24,27.72,9.71,10.21,14.5,10.21,24.07c0,4.87-1,9.66-2.99,14.36-1.99,4.7-5.3,9.66-9.92,14.86-4.62,5.2-12.3,12.34-23.04,21.42-8.96,7.53-14.72,12.63-17.27,15.31-2.55,2.68-4.65,5.38-6.31,8.09h59.68Z"/>
    <path class="cls-1" d="M210.75,25.18c0-6.36,2.25-11.79,6.77-16.27,4.51-4.48,9.92-6.72,16.23-6.72s11.87,2.24,16.35,6.72,6.72,9.91,6.72,16.27-2.25,11.8-6.76,16.31-9.95,6.77-16.31,6.77-11.72-2.24-16.23-6.72c-4.51-4.48-6.77-9.93-6.77-16.35Zm9.05,0c0,3.87,1.37,7.18,4.11,9.92s6.04,4.11,9.92,4.11,7.1-1.37,9.84-4.11,4.11-6.05,4.11-9.92-1.37-7.18-4.11-9.92-6.02-4.11-9.84-4.11-7.18,1.37-9.92,4.11-4.11,6.05-4.11,9.92Z"/>
    <path class="cls-1" d="M268.45,93.83l14.94-1.99c1.71,8.47,4.63,14.57,8.76,18.3,4.12,3.74,9.14,5.6,15.07,5.6,7.03,0,12.96-2.43,17.8-7.3,4.84-4.87,7.26-10.9,7.26-18.1s-2.24-12.52-6.72-16.98c-4.48-4.45-10.18-6.68-17.1-6.68-2.82,0-6.34,.55-10.54,1.66l1.66-13.12c1,.11,1.8,.17,2.41,.17,6.36,0,12.09-1.66,17.18-4.98,5.09-3.32,7.64-8.44,7.64-15.36,0-5.48-1.85-10.02-5.56-13.61-3.71-3.6-8.5-5.4-14.36-5.4s-10.65,1.83-14.53,5.48c-3.87,3.65-6.36,9.13-7.47,16.44l-14.94-2.66c1.83-10.02,5.98-17.78,12.45-23.28,6.47-5.51,14.53-8.26,24.16-8.26,6.64,0,12.75,1.43,18.34,4.27,5.59,2.85,9.86,6.74,12.82,11.66,2.96,4.93,4.44,10.16,4.44,15.69s-1.41,10.04-4.23,14.36-7,7.75-12.53,10.29c7.19,1.66,12.78,5.1,16.77,10.33s5.98,11.77,5.98,19.63c0,10.62-3.87,19.63-11.62,27.02-7.75,7.39-17.54,11.08-29.38,11.08-10.68,0-19.55-3.18-26.6-9.55-7.06-6.36-11.08-14.61-12.08-24.74Z"/>
    <path class="cls-1" d="M399.79,125.96h-14.94V30.75c-3.6,3.43-8.31,6.86-14.15,10.29-5.84,3.43-11.08,6-15.73,7.72v-14.44c8.36-3.93,15.66-8.69,21.91-14.28,6.25-5.59,10.68-11.01,13.28-16.27h9.63V125.96Z"/>
    <path class="cls-1" d="M417.5,20.37V3.02h16.02v13.7c0,7.42-.86,12.76-2.57,16.02-2.38,4.48-6.09,7.86-11.12,10.13l-3.65-5.89c2.99-1.22,5.22-3.14,6.68-5.77,1.47-2.63,2.28-6.24,2.45-10.83h-7.8Z"/>
    <path d="M1451.5,4.75c-.24,8.25,.73,16.78-2.91,28.68-1.94,6.31-6.07,12.62-13.6,13.11-6.31,.24-12.38-3.4-15.54-8.98-4.37,6.31-12.38,10.2-20.39,8.5-7.77-1.7-11.65-6.31-19.42-16.02,1.21,5.1,12.14,25.73,15.54,43.7,3.4,17.48,1.7,47.1,1.7,50.5l-6.31,.24c0-13.11-2.91-38.84-10.2-56.57-8.98-21.85-19.66-34.72-20.64-35.69,0-1.94,9.23-27.19,10.44-29.38h4.37c7.53,18.69,19.42,24.52,28.65,24.52,8.01,0,12.38-3.88,14.32-16.75h5.58c0,7.53,1.94,15.05,8.98,15.78,8.25,.73,13.11-6.31,14.08-21.85l5.34,.21Z"/>
    <path d="M1866.9,10.92c-3.23,2.73-12.9,10.67-13.89,11.66s-3.23,1.49-6.45-.25c-9.68-5.21-14.14-7.69-20.59-6.7-4.22,.74-14.64,10.17-14.64,16.38,0,7.69,4.96,13.15,18.36,22.83,1.24-1.74,3.47-4.71,5.46-7.69,3.23-3.97,6.95-4.96,9.92-4.96,2.73,0,5.95,1.74,8.93,3.72,4.71,4.22,8.44,5.21,13.65,1.74l2.23,2.98c-2.73,2.73-6.7,6.7-9.43,8.44-4.71,2.98-9.43,2.98-14.39-.74-4.71-3.97-11.17-2.73-12.9,0,6.2,6.7,10.92,14.39,10.92,19.11,.99,7.94-8.68,16.62-24.07,30.27l-4.47-4.71c4.22-3.72,13.65-14.39,14.14-19.85,.25-1.74,0-4.71-2.98-7.69l-12.65-12.65c-10.92-9.68-14.89-15.88-14.89-22.83,0-10.42,6.7-19.11,15.14-24.07-5.71-11.91-23.32-9.43-31.76,2.73-7.44,10.67-9.92,24.32-8.68,40.94,2.48,32.75,24.07,55.83,64.51,54.34,7.69-.25,15.38-1.74,25.06-6.95l3.23,3.97c-12.65,12.16-29.28,14.89-45.9,14.89-17.62,0-32.5-6.2-44.41-19.85-10.67-13.65-16.62-26.3-17.62-39.45-.99-18.36,1.98-34.24,10.67-47.89,7.94-12.65,18.86-18.61,31.51-18.61,11.66,0,17.86,5.21,20.35,12.16l13.15-9.92c2.23-1.74,4.47-1.98,6.7-.74,1.98,1.24,8.93,4.96,13.65,7.2,2.98,1.49,6.45,.99,9.92-.74l2.23,2.98Z"/>
    <path class="cls-1" d="M1339.63,125.03h-14.94V29.82c-3.6,3.43-8.32,6.86-14.15,10.29-5.84,3.43-11.08,6-15.73,7.72v-14.44c8.36-3.93,15.66-8.69,21.91-14.28,6.25-5.59,10.68-11.01,13.28-16.27h9.63V125.03Z"/>
    <path class="cls-1" d="M1468.6,24.26c0-6.36,2.25-11.79,6.77-16.27,4.51-4.48,9.92-6.72,16.23-6.72s11.87,2.24,16.35,6.72,6.72,9.91,6.72,16.27-2.25,11.8-6.76,16.31-9.95,6.77-16.31,6.77-11.72-2.24-16.23-6.72c-4.51-4.48-6.77-9.93-6.77-16.35Zm9.05,0c0,3.87,1.37,7.18,4.11,9.92s6.04,4.11,9.92,4.11,7.1-1.37,9.84-4.11,4.11-6.05,4.11-9.92-1.37-7.18-4.11-9.92-6.02-4.11-9.84-4.11-7.18,1.37-9.92,4.11-4.11,6.05-4.11,9.92Z"/>
    <path class="cls-1" d="M1610.74,110.67v14.36h-80.43c-.11-3.6,.47-7.06,1.74-10.38,2.05-5.48,5.33-10.87,9.84-16.19,4.51-5.31,11.03-11.46,19.55-18.43,13.23-10.85,22.16-19.44,26.81-25.77,4.65-6.34,6.97-12.33,6.97-17.97,0-5.92-2.12-10.92-6.35-14.98s-9.75-6.1-16.56-6.1c-7.19,0-12.95,2.16-17.27,6.47s-6.5,10.29-6.56,17.93l-15.36-1.58c1.05-11.46,5.01-20.18,11.87-26.19,6.86-6,16.08-9.01,27.64-9.01s20.92,3.24,27.73,9.71,10.21,14.5,10.21,24.07c0,4.87-1,9.66-2.99,14.36-1.99,4.7-5.3,9.66-9.92,14.86-4.62,5.2-12.3,12.34-23.04,21.42-8.96,7.53-14.72,12.63-17.27,15.31-2.55,2.68-4.65,5.38-6.31,8.09h59.68Z"/>
    <path class="cls-1" d="M1732.08,19.44V2.09h16.02V15.79c0,7.42-.86,12.76-2.57,16.02-2.38,4.48-6.09,7.86-11.12,10.13l-3.65-5.89c2.99-1.22,5.21-3.14,6.68-5.77,1.47-2.63,2.28-6.24,2.45-10.83h-7.8Z"/>
    <path d="M1674.91,124.03h-5.41c-.49-8.61-4.43-23.85-11.56-41.06-3.69-8.85-7.62-17.46-12.05-26.55-4.67-8.85-9.59-19.42-15-28.27-.74-1.48-.74-2.95-.49-4.92l2.7-15.49c1.23-6.64,2.46-8.11,4.43-4.43,6.88,12.05,13.03,26.31,18.93,39.83,5.9,13.28,11.56,27.78,16.72,43.03,.49,1.97,1.48,3.2,1.97,3.2s1.23-1.48,1.48-3.2c5.41-23.36,15.98-53.35,30.98-82.12,1.23-1.97,1.97-2.95,3.2-2.95,.74,0,1.48,.74,1.48,2.46l.98,18.69c0,1.72-.49,3.44-1.48,5.41-4.43,7.38-8.85,19.42-12.54,26.55-3.69,6.88-6.88,14.01-9.59,21.14-2.95,6.88-5.65,14.51-7.87,22.13-2.46,7.62-4.67,17.95-6.88,26.55Z"/>
  </g>
</svg>
