<svg viewBox="0 0 56 14" fill="none" xmlns="http://www.w3.org/2000/svg">
<path d="M0 12.6265V1.00967H8.55503V2.38051H1.56633V5.93838H8.11168V7.30158H1.56633V11.2556H8.83019V12.6265H0Z" fill="black" shape-rendering="crispEdges"/>
<path d="M39.3565 12.6265V2.38051H35.4587V1.00967H44.8372V2.38051H40.9228V12.6265H39.3565Z" fill="black" shape-rendering="crispEdges"/>
<path d="M46.4911 12.6265V1.00967H48.0565V5.77992H54.2061V1.00967H55.7714V12.6265H54.2061V7.15075H48.0565V12.6265H46.4911Z" fill="black" shape-rendering="crispEdges"/>
<path d="M27.4813 3.61865L26.1813 0.899902C25.0496 1.53854 23.9665 2.34233 23.3637 3.9499L23.845 4.09214L24.1337 3.66638C24.8318 2.64971 26.3729 3.12225 26.4934 4.5179C26.5654 5.27396 26.4691 5.79422 26.3972 6.64574C26.2523 8.32396 25.3141 11.0666 23.9412 12.32L23.5319 12.698L23.8926 13.0999C24.0851 12.9577 24.23 12.887 24.3982 12.8164C24.7589 12.6512 25.5542 12.5329 26.1561 12.887C26.8785 13.1705 27.2158 13.076 27.8653 12.6035L28.3952 12.2016L28.0345 11.7997L27.77 11.9649C27.2645 12.319 26.8794 12.2484 26.6626 12.1539C26.157 11.941 25.772 11.4923 26.2776 10.1444C26.5664 9.34062 26.8318 8.53684 27.0963 7.73305C27.3607 6.92926 28.8298 7.16601 29.2878 7.94593C30.612 10.1683 31.7437 12.6741 34.4165 13.0999L36.68 11.2556L36.3192 10.8537L36.0548 11.0188C33.6708 12.6025 32.0335 8.91486 30.2999 7.37793C30.4681 7.14119 31.0466 6.66865 33.4063 5.41524C33.6708 5.273 33.7913 5.03721 33.767 4.75369C33.7427 4.49403 32.1297 1.65691 31.9848 1.3963C31.7204 0.923768 31.3111 0.876037 30.5157 1.34857C29.4326 1.98721 28.3728 2.93228 27.4822 3.6177L27.4813 3.61865ZM29.7204 6.73929C28.9018 6.3374 28.228 6.57414 27.2888 6.88153C27.4336 6.10161 27.4813 5.79422 27.6261 4.65918C27.6261 4.58854 27.6748 4.28115 27.7224 4.25729C29.0223 3.24062 29.5522 3.05161 30.4428 2.74422C30.8035 3.07547 31.382 3.99763 31.7428 5.13172C31.1886 5.74649 30.3466 6.19516 29.7204 6.73929Z" fill="black"/ shape-rendering="crispEdges">
<path d="M15.1228 12.8814C14.6881 12.6914 14.519 12.4785 14.0124 12.3363C13.2404 12.0995 12.4918 12.2418 11.7441 12.5492C11.503 12.6675 11.1403 12.7859 10.8992 12.8814C10.8029 12.9291 10.6338 12.952 10.5375 12.9291C10.4413 12.9052 10.3683 12.7869 10.4413 12.6685C10.4656 12.6208 13.5302 7.50305 13.5302 7.50305C11.9376 6.98183 10.8516 6.05776 10.9478 4.30413C11.0198 2.66887 12.3479 1.0107 15.0022 1.0107C15.4125 1.0107 19.6603 1.03457 19.8052 1.03457C20.4323 1.03457 20.3604 1.43742 20.3604 1.95864V9.16123C20.3604 10.701 21.0118 11.6022 22.1221 11.0094L22.3876 10.8433L22.7492 11.2461L20.9146 12.9052C20.794 12.9997 20.7454 12.9759 20.6978 12.953C19.4182 12.1711 18.7425 11.5783 18.7425 9.06672V7.47919H17.7284C17.1976 7.47919 16.6424 7.45532 16.1115 7.45532C15.6293 7.45532 15.1218 7.43146 14.6395 7.45532C14.5676 7.45532 14.4704 7.52597 14.4461 7.59756L11.9843 11.7206C12.8768 11.1516 13.5525 10.8442 14.2292 11.0571C15.2666 11.4122 15.4844 11.5545 16.1845 11.5545C16.7153 11.5545 17.3424 11.2461 17.8257 10.8433L18.2117 11.2222L16.7639 12.5253C16.0882 13.1181 15.4611 13.0227 15.1228 12.8804V12.8814ZM15.0984 6.41193H18.7668V2.14765C18.7668 1.93477 18.5733 1.88704 18.4528 1.88704C18.236 1.88704 18.1144 1.86318 17.9939 1.91091C17.7527 2.00541 17.6555 2.31376 17.3424 2.74047L15.0975 6.41384L15.0984 6.41193ZM17.0537 1.86222L14.9779 1.83836C13.361 1.79063 11.8647 2.62019 11.6955 4.20772C11.5749 5.74751 12.7096 6.43484 13.8919 6.74318L17.0537 1.86222Z" fill="black"/ shape-rendering="crispEdges">
</svg>
