<?xml version="1.0" encoding="UTF-8"?>
<svg id="Layer_2" data-name="Layer 2" xmlns="http://www.w3.org/2000/svg" viewBox="0 0 40.48 9.02">
  <g id="Layer_1-2" data-name="Layer 1">
    <g>
      <g>
        <path d="m0,8.67V.08h6.21v1.01H1.14v2.63h4.75v1.01H1.14v2.92h5.27v1.01H0Z"/>
        <path d="m28.57,8.67V1.09h-2.83V.08h6.81v1.01h-2.84v7.57h-1.14Z"/>
        <path d="m33.75,8.67V.08h1.14v3.53h4.46V.08h1.14v8.59h-1.14v-4.05h-4.46v4.05h-1.14Z"/>
      </g>
      <path d="m19.95,2.01l-.94-2.01c-.82.47-1.61,1.07-2.04,2.25l.35.1.21-.31c.51-.75,1.63-.4,1.71.63.05.56-.02.94-.07,1.57-.1,1.24-.79,3.27-1.78,4.19l-.3.28.26.3c.14-.1.24-.16.37-.21.26-.12.84-.21,1.28.05.52.21.77.14,1.24-.21l.38-.3-.26-.3-.19.12c-.37.26-.65.21-.8.14-.37-.16-.65-.49-.28-1.49.21-.59.4-1.19.59-1.78s1.26-.42,1.59.16c.96,1.64,1.78,3.5,3.72,3.81l1.64-1.36-.26-.3-.19.12c-1.73,1.17-2.92-1.56-4.18-2.69.12-.17.54-.52,2.25-1.45.19-.1.28-.28.26-.49-.02-.19-1.19-2.29-1.29-2.48-.19-.35-.49-.38-1.07-.03-.79.47-1.56,1.17-2.2,1.68Zm1.63,2.31c-.59-.3-1.08-.12-1.77.1.1-.58.14-.8.24-1.64,0-.05.03-.28.07-.3.94-.75,1.33-.89,1.98-1.12.26.24.68.93.94,1.77-.4.45-1.01.79-1.47,1.19Z"/>
      <path d="m10.98,8.86c-.32-.14-.44-.3-.81-.4-.56-.18-1.1-.07-1.65.16-.18.09-.44.18-.61.25-.07.04-.19.05-.26.04s-.12-.11-.07-.19c.02-.04,2.24-3.82,2.24-3.82-1.16-.39-1.94-1.07-1.87-2.37.05-1.21,1.02-2.44,2.94-2.44.3,0,3.38.02,3.49.02.46,0,.4.3.4.68v5.33c0,1.14.47,1.8,1.28,1.37l.19-.12.26.3-1.33,1.23c-.09.07-.12.05-.16.04-.93-.58-1.42-1.02-1.42-2.87v-1.17h-.74c-.39,0-.79-.02-1.17-.02-.35,0-.72-.02-1.07,0-.05,0-.12.05-.14.11l-1.79,3.05c.65-.42,1.14-.65,1.63-.49.75.26.91.37,1.42.37.39,0,.84-.23,1.19-.53l.28.28-1.05.96c-.49.44-.95.37-1.19.26Zm-.02-4.78h2.66V.92c0-.16-.14-.19-.23-.19-.16,0-.25-.02-.33.02-.18.07-.25.3-.47.61l-1.63,2.72Zm1.42-3.36l-1.51-.02c-1.17-.04-2.26.58-2.38,1.75-.09,1.14.74,1.65,1.59,1.87l2.29-3.61Z"/>
    </g>
  </g>
</svg>