<svg id="Layer_1" data-name="Layer 1" xmlns="http://www.w3.org/2000/svg" viewBox="0 0 661.3 103.8"><defs><style>.cls-1{fill:#6b71d6;}.cls-1,.cls-2,.cls-3,.cls-4,.cls-5{fill-rule:evenodd;}.cls-2{fill:#e9ecff;}.cls-3{fill:#f7931a;}.cls-4{fill:#fff;}.cls-5{fill:#2fcf6e;}</style></defs><g id="ETH"><g id="Currency_Large_Ethereum-_alt_" data-name="Currency Large Ethereum- alt "><g id="item-ico-backup-3"><g id="Mask-4"><path id="path-7" class="cls-1" d="M51.9,104.6A51.9,51.9,0,1,0,0,52.7a51.85,51.85,0,0,0,51.9,51.9Z" transform="translate(0 -0.8)"/></g></g><g id="path0"><path id="Shape-3" class="cls-2" d="M52.7,19.1c-.2.4-4.7,8.1-10.1,17.2s-9.9,16.6-9.9,16.8,2.9,2,10.3,6.5l10.4,6.2,10.4-6.2c7.5-4.5,10.4-6.3,10.3-6.5-.4-1-20.6-34.6-20.9-34.6s-.4.3-.5.6M32.6,57.6C33,58.3,53.2,87,53.3,87S74.1,57.5,74,57.4s-19.4,11.4-20.2,12l-.5.4-10-6c-5.5-3.3-10.2-6.1-10.5-6.3s-.3-.3-.2.1" transform="translate(0 -0.8)"/></g></g></g><g id="BTC"><g id="Currency_Large_Bitcoin-_alt_" data-name="Currency Large Bitcoin- alt "><g id="Currency_Large_Bitcoin" data-name="Currency Large Bitcoin"><g id="item-ico-backup"><g id="Mask-2"><path id="path-3" class="cls-3" d="M237.7,104.6a51.9,51.9,0,1,0-51.9-51.9h0a51.92,51.92,0,0,0,51.9,51.9Z" transform="translate(0 -0.8)"/></g></g><g id="Group"><g id="Shape-2"><path id="Shape" class="cls-4" d="M250.1,46.8c-1.4,5.7-10.6,2.9-13.6,2.2L239,38.9C241.9,39.6,251.5,40.8,250.1,46.8ZM248.6,63c-1.5,6.3-12.6,3-16.2,2.2l2.8-11.1c3.6.8,15,2.4,13.4,8.9Zm11.9-16.2c.9-6.1-4-9.3-10.7-11.5l2.1-8.3-5.3-1.2-2,8.1-4.2-.9,2-8.1-5.3-1.2L235,32c-1.1-.2-2.3-.4-3.4-.7l-7.3-1.7L223,35s3.9.8,3.8.9a2.84,2.84,0,0,1,2.5,2.9L227,48.2c.2.1.4.1.5.2a.9.9,0,0,0-.5-.1l-3.2,13.2a2,2,0,0,1-2.4,1.2c.1.1-3.9-.9-3.9-.9L215,67.6l6.9,1.5c1.3.3,2.5.6,3.7.9l-2.1,8.4,5.3,1.2,2.1-8.3c1.5.4,2.9.7,4.2,1L233,80.6l5.3,1.2,2.1-8.4c9,1.5,15.8.8,18.5-7,2.2-6.3-.2-9.8-5-12.2,3.4-.8,5.9-2.9,6.6-7.4Z" transform="translate(0 -0.8)"/></g></g></g></g></g><g id="BCH"><g id="Currency_Large_Bitcoin-Cash-_alt_" data-name="Currency Large Bitcoin-Cash- alt "><g id="item-ico-backup-2"><g id="Mask-3"><path id="path-5" class="cls-5" d="M423.6,104.6a51.9,51.9,0,1,0-51.9-51.9,51.85,51.85,0,0,0,51.9,51.9Z" transform="translate(0 -0.8)"/></g></g><path id="Shape-2-2" class="cls-4" d="M430.9,40.9c1.8,5.5-7.5,8.1-10.4,9.1l-3.1-9.8C420.2,39.2,429,35.2,430.9,40.9Zm7.3,14.5c2,6.1-9.1,9.2-12.6,10.4L422.1,55C425.6,53.8,436.1,49,438.2,55.4Zm-13.6-24L422,23.3l-5.1,1.8,2.6,7.9c-1.4.5-2.7,1-4,1.5l-2.6-7.9-5.2,1.8,2.6,8.1L407,37.7l-7,2.5,1.7,5.2s3.8-1.4,3.7-1.3c2.1-.7,3.1.2,3.6,1.1l3,9.2a1.27,1.27,0,0,1,.6-.1c-.2.1-.3.1-.5.2l4.2,12.8a2,2,0,0,1-1.4,2.3c.1,0-3.8,1.3-3.8,1.3l.9,6.2,6.6-2.4c1.2-.4,2.5-.9,3.6-1.2l2.6,8.1,5.1-1.8-2.6-8.1a39.29,39.29,0,0,0,4.1-1.4l2.6,8,5.1-1.8-2.7-8.2c8.5-3.5,13.8-7.6,12-15.7-1.4-6.4-5.3-8.2-10.7-7.6,2.6-2.5,3.6-5.7,1.8-9.8-2.3-5.4-8.1-5.5-14.9-3.8Z" transform="translate(0 -0.8)"/></g></g><g id="XRP"><g id="Currency_Large_XRP-" data-name="Currency Large XRP-"><g id="XRP-2"><g id="Mask-5"><path id="path-9-2" class="cls-4" d="M609.4,104.6a51.9,51.9,0,1,0-51.9-51.9h0A51.85,51.85,0,0,0,609.4,104.6Z" transform="translate(0 -0.8)"/></g><path id="Shape-4" d="M626.8,30.8h7.1L619.1,46.1a13.31,13.31,0,0,1-18.9.5l-.5-.5L584.9,30.8H592l11.2,11.7a8.51,8.51,0,0,0,12,.3l.3-.3ZM591.9,73.6h-7.1l14.9-15.4a13.32,13.32,0,0,1,18.9-.5l.5.5L634,73.6h-7.1L615.6,61.8a8.51,8.51,0,0,0-12-.3l-.3.3Z" transform="translate(0 -0.8)"/></g></g></g></svg>