<?xml version="1.0" encoding="utf-8"?>
<!-- Generator: Adobe Illustrator 25.1.0, SVG Export Plug-In . SVG Version: 6.00 Build 0)  -->
<svg version="1.1" id="Layer_1" xmlns="http://www.w3.org/2000/svg" xmlns:xlink="http://www.w3.org/1999/xlink" x="0px" y="0px"
	 viewBox="0 0 661.3 104" style="enable-background:new 0 0 661.3 104;" xml:space="preserve">
<style type="text/css">
	.st0{fill-rule:evenodd;clip-rule:evenodd;fill:#FFFFFF;}
	.st1{fill-rule:evenodd;clip-rule:evenodd;fill:#A0A0A0;}
	.st2{fill-rule:evenodd;clip-rule:evenodd;fill:#999999;}
	.st3{fill:#999999;}
</style>
<g id="Label_supported-currencies-_color_">
	<g id="ETH">
		<g id="Currency_Large_Ethereum-_alt_">
			<g id="item-ico-backup-3">
				<g id="Mask-4">
					<path id="path-7" class="st0" d="M51.9,103.9c28.7,0.1,52-23.2,52.1-51.9S80.8,0,52.1-0.1C23.4-0.2,0.1,23.1,0,51.8
						c0,0,0,0.1,0,0.1C0,80.6,23.2,103.8,51.9,103.9z"/>
				</g>
			</g>
			<g id="path0">
				<path id="Shape-3" class="st1" d="M52.7,18.3c-0.2,0.4-4.7,8.1-10.1,17.2s-9.9,16.6-9.9,16.8s2.9,2,10.3,6.5L53.4,65l10.4-6.2
					c7.5-4.5,10.4-6.3,10.3-6.5c-0.4-1-20.6-34.6-20.9-34.6S52.8,18,52.7,18.3 M32.6,56.8c0.4,0.7,20.6,29.4,20.7,29.4
					S74.1,56.7,74,56.6s-19.3,11.5-20.1,12L53.4,69l-10-6c-5.5-3.3-10.2-6.1-10.5-6.2C32.5,56.5,32.5,56.5,32.6,56.8"/>
			</g>
		</g>
	</g>
	<g id="BTC">
		<g id="Currency_Large_Bitcoin-_alt_">
			<g id="Currency_Large_Bitcoin">
				<g id="item-ico-backup">
					<g id="Mask-2">
						<path id="path-3" class="st0" d="M237.8,104c28.7,0,51.9-23.2,51.9-51.9S266.5,0.2,237.8,0.2s-51.9,23.2-51.9,51.9l0,0
							C185.9,80.8,209.1,104,237.8,104L237.8,104z"/>
					</g>
				</g>
				<g id="Group">
					<g id="Shape-2">
						<path id="Shape" class="st2" d="M250.1,46.1c-1.4,5.7-10.6,2.9-13.6,2.2l2.5-10.1C242,39,251.6,40.2,250.1,46.1z M248.7,62.4
							c-1.5,6.3-12.6,3-16.1,2.2l2.8-11.1C238.8,54.3,250.3,55.9,248.7,62.4L248.7,62.4z M260.5,46.1c0.9-6.1-4-9.3-10.7-11.5
							l2.1-8.3l-5.3-1.2l-2,8.1l-4.2-0.9l2-8.1l-5.3-1.2l-2.1,8.3c-1.1-0.2-2.3-0.4-3.4-0.7l-7.3-1.7l-1.3,5.4c0,0,3.9,0.8,3.8,0.9
							c1.5,0.2,2.5,1.4,2.5,2.9l-2.3,9.4c0.2,0.1,0.4,0.1,0.5,0.2c-0.2-0.1-0.3-0.1-0.5-0.1l-3.2,13.2c-0.4,1-1.4,1.5-2.4,1.2
							c0.1,0.1-3.9-0.9-3.9-0.9l-2.5,5.8l6.9,1.5c1.3,0.3,2.5,0.6,3.7,0.9l-2.1,8.4l5.3,1.2l2.1-8.3c1.5,0.4,2.9,0.7,4.2,1l-2.1,8.3
							l5.3,1.2l2.1-8.4c9,1.5,15.8,0.8,18.5-7c2.2-6.3-0.2-9.8-5-12.2C257.3,52.8,259.9,50.6,260.5,46.1L260.5,46.1z"/>
					</g>
				</g>
			</g>
		</g>
	</g>
	<g id="BCH">
		<g id="Currency_Large_Bitcoin-Cash-_alt_">
			<g id="item-ico-backup-2">
				<g id="Mask-3">
					<path id="path-5" class="st0" d="M423.6,104c28.7,0,51.9-23.2,51.9-51.9S452.3,0.2,423.6,0.2s-51.9,23.2-51.9,51.9
						c0,28.6,23.2,51.9,51.8,51.9C423.5,104,423.6,104,423.6,104L423.6,104z"/>
				</g>
			</g>
			<path id="Shape-2-2" class="st2" d="M431,40.3c1.8,5.5-7.5,8.1-10.4,9.1l-3.1-9.8C420.3,38.6,429.1,34.6,431,40.3z M438.3,54.8
				c2,6.1-9.1,9.2-12.6,10.4l-3.5-10.8C425.7,53.2,436.2,48.4,438.3,54.8z M424.7,30.8l-2.6-8.1l-5.1,1.8l2.6,7.9
				c-1.4,0.5-2.7,1-4,1.5L413,26l-5.2,1.8l2.6,8.1l-3.3,1.2l-7,2.5l1.7,5.2c0,0,3.8-1.4,3.7-1.3c2.1-0.7,3.1,0.2,3.6,1.1l3,9.2
				c0.2-0.1,0.4-0.1,0.6-0.1c-0.2,0.1-0.3,0.1-0.5,0.2l4.2,12.8c0.2,1-0.4,2-1.4,2.3c0.1,0-3.8,1.3-3.8,1.3l0.9,6.2l6.6-2.4
				c1.2-0.4,2.5-0.9,3.6-1.2l2.6,8.1l5.1-1.8l-2.6-8.1c1.4-0.4,2.8-0.9,4.1-1.4l2.6,8l5.1-1.8l-2.7-8.2c8.5-3.5,13.8-7.6,12-15.7
				c-1.4-6.4-5.3-8.2-10.7-7.6c2.6-2.5,3.6-5.7,1.8-9.8C437.3,29.2,431.5,29.1,424.7,30.8L424.7,30.8z"/>
		</g>
	</g>
	<g id="XRP">
		<g id="Currency_Large_XRP-">
			<g id="XRP-2">
				<g id="Mask-5">
					<path id="path-9-2" class="st0" d="M609.4,104c28.7,0,51.9-23.2,51.9-51.9S638.1,0.2,609.4,0.2s-51.9,23.2-51.9,51.9l0,0
						C557.5,80.8,580.7,104,609.4,104z"/>
				</g>
				<path id="Shape-4" class="st3" d="M626.8,30.2h7.1l-14.8,15.3c-5,5.4-13.5,5.6-18.8,0.6c0,0-0.1-0.1-0.1-0.1l-0.5-0.5
					l-14.8-15.3h7.1l11.3,11.7c3.2,3.4,8.6,3.5,12,0.3l0.3-0.3L626.8,30.2z M592,72.9h-7.1l14.9-15.4c5-5.4,13.5-5.6,18.8-0.6
					c0,0,0,0,0.1,0.1l0.5,0.5L634,72.9h-7.1l-11.3-11.8c-3.2-3.4-8.6-3.5-12-0.3l-0.3,0.3L592,72.9z"/>
			</g>
		</g>
	</g>
</g>
</svg>
