<svg width="662" height="105" viewBox="0 0 662 105" fill="none" xmlns="http://www.w3.org/2000/svg">
<path fill-rule="evenodd" clip-rule="evenodd" d="M51.9 104.033C80.6 104.033 103.8 80.833 103.8 52.133C103.8 23.433 80.6 0.233032 51.9 0.233032C23.3 0.233032 0 23.433 0 52.133C0 80.833 23.3 104.033 51.9 104.033Z" fill="#6B71D6"/>
<path fill-rule="evenodd" clip-rule="evenodd" d="M52.7 18.533C52.5 18.933 48 26.633 42.6 35.733C37.2 44.833 32.7 52.333 32.7 52.533C32.7 52.733 35.6 54.533 43 59.033L53.4 65.233L63.8 59.033C71.3 54.533 74.2 52.733 74.1 52.533C73.7 51.533 53.5 17.933 53.2 17.933C52.9 17.933 52.8 18.233 52.7 18.533ZM32.6 57.033C33 57.733 53.2 86.433 53.3 86.433C53.4 86.433 74.1 56.933 74 56.833C73.9 56.733 54.6 68.233 53.8 68.833L53.3 69.233L43.3 63.233C37.8 59.933 33.1 57.133 32.8 56.933C32.5 56.633 32.5 56.633 32.6 57.033Z" fill="#E9ECFF"/>
<path fill-rule="evenodd" clip-rule="evenodd" d="M237.7 104.033C266.4 104.033 289.6 80.833 289.6 52.133C289.6 23.433 266.4 0.233032 237.7 0.233032C209 0.233032 185.8 23.433 185.8 52.133C185.8 80.833 209.1 104.033 237.7 104.033Z" fill="#F7931A"/>
<path fill-rule="evenodd" clip-rule="evenodd" d="M250.1 46.233C248.7 51.933 239.5 49.133 236.5 48.433L239 38.333C241.9 39.033 251.5 40.233 250.1 46.233ZM248.6 62.433C247.1 68.733 236 65.433 232.4 64.633L235.2 53.533C238.8 54.333 250.2 55.933 248.6 62.433ZM260.5 46.233C261.4 40.133 256.5 36.933 249.8 34.733L251.9 26.433L246.6 25.233L244.6 33.333C243.2 33.033 241.8 32.733 240.4 32.433L242.4 24.333L237.1 23.133L235 31.433C233.9 31.233 232.7 31.033 231.6 30.733L224.3 29.033L223 34.433C223 34.433 226.9 35.233 226.8 35.333C228.9 35.833 229.3 37.233 229.3 38.233L227 47.633C227.2 47.733 227.4 47.733 227.5 47.833C227.3 47.733 227.2 47.733 227 47.733L223.8 60.933C223.4 61.933 222.4 62.433 221.4 62.133C221.5 62.233 217.5 61.233 217.5 61.233L215 67.033L221.9 68.533C223.2 68.833 224.4 69.133 225.6 69.433L223.5 77.833L228.8 79.033L230.9 70.733C232.4 71.133 233.8 71.433 235.1 71.733L233 80.033L238.3 81.233L240.4 72.833C249.4 74.333 256.2 73.633 258.9 65.833C261.1 59.533 258.7 56.033 253.9 53.633C257.3 52.833 259.8 50.733 260.5 46.233Z" fill="white"/>
<path fill-rule="evenodd" clip-rule="evenodd" d="M423.6 104.033C452.3 104.033 475.5 80.833 475.5 52.133C475.5 23.433 452.3 0.233032 423.6 0.233032C394.9 0.233032 371.7 23.433 371.7 52.133C371.6 80.833 394.9 104.033 423.6 104.033Z" fill="#2FCF6E"/>
<path fill-rule="evenodd" clip-rule="evenodd" d="M430.9 40.333C432.7 45.833 423.4 48.433 420.5 49.433L417.4 39.633C420.2 38.633 429 34.633 430.9 40.333ZM438.2 54.833C440.2 60.933 429.1 64.033 425.6 65.233L422.1 54.433C425.6 53.233 436.1 48.433 438.2 54.833ZM424.6 30.833L422 22.733L416.9 24.533L419.5 32.433C418.1 32.933 416.8 33.433 415.5 33.933L412.9 26.033L407.7 27.833L410.3 35.933C409.2 36.333 408.1 36.733 407 37.133L400 39.633L401.7 44.833C401.7 44.833 405.5 43.433 405.4 43.533C407.5 42.833 408.5 43.733 409 44.633L412 53.833C412.2 53.733 412.4 53.733 412.6 53.733C412.4 53.833 412.3 53.833 412.1 53.933L416.3 66.733C416.5 67.733 415.9 68.733 414.9 69.033C415 69.033 411.1 70.333 411.1 70.333L412 76.533L418.6 74.133C419.8 73.733 421.1 73.233 422.2 72.933L424.8 81.033L429.9 79.233L427.3 71.133C428.8 70.733 430.1 70.233 431.4 69.733L434 77.733L439.1 75.933L436.4 67.733C444.9 64.233 450.2 60.133 448.4 52.033C447 45.633 443.1 43.833 437.7 44.433C440.3 41.933 441.3 38.733 439.5 34.633C437.2 29.233 431.4 29.133 424.6 30.833Z" fill="white"/>
<path d="M608.733 104.8C637.672 104.8 661.133 81.3397 661.133 52.4C661.133 23.4603 637.672 0 608.733 0C579.793 0 556.333 23.4603 556.333 52.4C556.333 81.3397 579.793 104.8 608.733 104.8Z" fill="#988430"/>
<path d="M608.733 103.1C636.733 103.1 659.432 80.4008 659.432 52.4C659.432 24.3992 636.733 1.7 608.733 1.7C580.732 1.7 558.033 24.3992 558.033 52.4C558.033 80.4008 580.732 103.1 608.733 103.1Z" fill="#7A6A2A"/>
<path d="M608.733 102C636.126 102 658.333 79.7933 658.333 52.4C658.333 25.0067 636.126 2.8 608.733 2.8C581.339 2.8 559.133 25.0067 559.133 52.4C559.133 79.7933 581.339 102 608.733 102Z" fill="#BA9F33"/>
<path fill-rule="evenodd" clip-rule="evenodd" d="M579.333 46.8C579.033 46.5 578.733 46.3 578.433 46C578.133 45.7 577.833 45.5 577.533 45.2L576.633 44.4C576.533 44.3 576.333 44.1 576.233 44C576.133 43.9 575.933 43.7 575.733 43.6C574.533 42.5 573.433 41.4 572.233 40.3C573.433 41.4 574.633 42.5 575.833 43.6L576.233 44C576.333 44.1 576.533 44.3 576.633 44.4L577.533 45.2C577.833 45.5 578.133 45.7 578.433 46C578.733 46.3 579.033 46.6 579.333 46.8ZM563.733 46.7C563.733 46.7 568.033 47.1 570.033 47.4C571.933 47.7 577.933 48.6 577.933 48.6L563.733 46.7ZM563.733 46.7C564.933 46.8 566.133 46.9 567.333 47.1C567.933 47.2 568.533 47.2 569.133 47.3L570.033 47.4C570.333 47.4 570.633 47.5 570.933 47.5L574.533 48.1L576.333 48.4C576.933 48.5 577.533 48.6 578.133 48.7C577.533 48.6 576.933 48.6 576.333 48.5L574.533 48.2L570.933 47.7C570.633 47.7 570.333 47.6 570.033 47.6L569.133 47.5C568.533 47.4 567.933 47.4 567.333 47.3C566.133 47 564.933 46.8 563.733 46.7ZM577.633 49.7C577.633 49.7 573.133 50.9 571.533 51.3C570.033 51.7 565.433 53.1 565.433 53.1L577.633 49.7Z" fill="#CFB66C"/>
<path fill-rule="evenodd" clip-rule="evenodd" d="M577.633 49.7C576.633 50 575.633 50.3 574.633 50.6L571.633 51.4C570.633 51.7 569.633 52 568.633 52.3L567.133 52.7C566.633 52.8 566.133 53 565.633 53.1C566.133 52.9 566.633 52.8 567.133 52.6L568.633 52.1C569.633 51.8 570.633 51.5 571.633 51.2C572.633 50.9 573.633 50.7 574.733 50.4C575.533 50.2 576.633 49.9 577.633 49.7ZM566.133 55.9C566.633 55.7 572.433 53 573.733 52.4C574.433 52.1 576.333 51.4 576.333 51.4L566.133 55.9Z" fill="#CFB66C"/>
<path fill-rule="evenodd" clip-rule="evenodd" d="M566.133 55.9C566.533 55.7 567.033 55.5 567.433 55.3L568.733 54.7L571.233 53.5C572.033 53.1 572.933 52.7 573.733 52.3C574.133 52.1 574.633 52 575.033 51.8L575.733 51.6C575.933 51.5 576.133 51.5 576.433 51.4C575.633 51.8 574.733 52.1 573.833 52.5C573.033 52.9 572.133 53.3 571.233 53.6L568.633 54.7C567.833 55.2 566.933 55.5 566.133 55.9ZM566.633 58.2C566.633 58.2 571.833 55.1 573.633 54.2C574.533 53.7 577.633 52.2 577.633 52.2L566.633 58.2Z" fill="#CFB66C"/>
<path fill-rule="evenodd" clip-rule="evenodd" d="M566.633 58.2C567.533 57.7 568.433 57.1 569.333 56.5L570.633 55.7C571.133 55.4 571.533 55.2 572.033 54.9C572.533 54.6 572.933 54.4 573.433 54.1C573.633 54 573.933 53.8 574.133 53.7L574.833 53.3C575.733 52.8 576.733 52.4 577.733 52C576.833 52.6 575.933 53.1 575.033 53.6C574.533 53.9 574.133 54.1 573.633 54.3C573.133 54.5 572.733 54.8 572.233 55.1C571.733 55.4 571.333 55.6 570.833 55.9L569.433 56.7L566.633 58.2ZM577.633 52.8C577.633 52.8 574.433 55.3 573.333 56.1C572.233 56.9 569.233 59.1 569.233 59.1L577.633 52.8Z" fill="#CFB66C"/>
<path fill-rule="evenodd" clip-rule="evenodd" d="M596.233 72.9L594.633 69.8L595.533 65.9L602.433 63.2L599.533 57.2L600.933 51.1L603.633 45.7L612.133 44.3L618.233 38.4L631.633 39.5L634.233 53.7L629.233 71.7L626.333 81L614.633 81.4L609.233 77.7L602.933 75L596.233 72.9Z" fill="#E2CC85"/>
<path fill-rule="evenodd" clip-rule="evenodd" d="M616.633 72.8C616.633 72.8 615.033 73.5 612.233 73.4C611.433 72.3 605.833 71.8 605.833 71.8C605.833 71.8 605.133 71.6 603.933 72.1C602.733 72.6 601.533 72.5 600.433 72.8C599.333 73.1 598.233 71.6 597.433 71.4C596.633 71.1 595.533 70.3 595.533 70.3L593.233 70.1L588.533 68.1L581.033 60.6L579.033 63.8L578.433 67.7L580.733 72.4L586.833 78L598.733 81L605.733 78.9L614.533 75.2L616.633 72.8Z" fill="#F1D789"/>
<path fill-rule="evenodd" clip-rule="evenodd" d="M574.433 46.5L575.933 41.9L577.733 39L583.533 38.5L581.833 43.5L576.933 52.2L578.933 59.8L575.433 61.6L574.333 59.9L573.433 56.1V51.8L574.433 46.5Z" fill="#F4ECB4"/>
<path fill-rule="evenodd" clip-rule="evenodd" d="M580.933 72.5L579.833 71C579.833 71 579.533 70.3 579.733 69.6C579.933 68.9 579.833 68.9 579.833 68.7C579.733 68.5 579.033 67.6 579.033 66.9C579.033 66.2 578.933 65.9 579.533 65.3C580.133 64.7 579.933 63.7 579.933 63.7L580.633 64.2L580.833 63.9C580.833 63.9 581.133 64.1 581.133 64.4C581.233 63.9 580.933 61.8 581.533 61.3C582.133 60.8 583.133 63.6 583.133 63.6L582.533 59.6L580.933 55.5L578.133 51.8L577.933 47.7V47.3C577.933 47.3 576.633 49.3 576.333 50.8C576.033 51.9 576.733 53.2 576.533 54.7C576.433 56.2 576.333 56.1 576.633 56.7C576.933 57.3 577.933 58.5 577.533 59.4C577.233 60.2 576.133 59.6 576.133 59.6C576.133 59.6 575.933 60.2 575.633 60.5C575.533 60.1 575.433 59.9 575.233 59.7C575.233 59.8 575.133 60 575.133 60C575.133 60 574.933 59.4 574.733 58.7C574.433 57.7 574.233 56.4 573.933 55.7C573.833 56.1 573.533 57.3 573.533 57.3L573.633 59.2L574.333 61.8L575.033 63.5L575.733 65.6L576.333 67L576.833 68.1L577.233 70.5L579.133 72.5L580.133 73L580.933 72.5Z" fill="#F3E19D"/>
<path fill-rule="evenodd" clip-rule="evenodd" d="M575.433 42.7C575.433 42.7 574.033 45 573.633 47.4C573.233 49.8 572.833 52.3 573.133 55.5C573.433 58.7 573.833 60.7 574.233 62.2C574.933 64.6 576.633 67.9 576.633 67.9L576.733 67.8C576.433 67.2 576.233 66.7 576.033 66.1C575.833 65.2 575.733 64.1 575.533 63.7C575.333 63.2 575.033 62.8 574.833 62.2C574.733 61.6 574.633 60.7 574.233 60.1C574.033 59.8 573.833 59.1 573.733 58.4C573.633 57.3 573.733 56.1 573.633 55.2C573.433 53.6 573.333 52.5 573.533 51.6C573.733 50.7 574.633 48.3 575.133 46.4C575.533 45.2 575.233 44.1 575.933 43C576.633 41.9 577.033 41 577.133 40.3C577.333 39.5 575.433 42.7 575.433 42.7Z" fill="#F2E8B0"/>
<path fill-rule="evenodd" clip-rule="evenodd" d="M582.033 41.8C582.033 41.8 581.333 42 580.933 42.4C580.633 42.8 580.433 43.1 580.033 43.7C579.633 44.3 579.533 44.8 579.133 45.5C578.733 46.2 577.933 47.3 577.833 47.7C577.733 48.1 577.533 50 577.333 50.8C577.133 51.7 577.533 52.8 577.533 52.8L578.033 52.7C578.033 52.7 578.033 53.3 578.533 53.8C579.033 54.2 579.133 52.4 579.133 52.4L580.933 46.3L583.633 44.5L583.933 43L582.033 41.8Z" fill="#F5EEC0"/>
<path fill-rule="evenodd" clip-rule="evenodd" d="M583.333 44.6C583.333 44.6 582.033 44.7 581.433 45.1C581.133 45.3 581.033 45.4 580.833 45.7C580.333 46.1 579.833 46.5 579.533 47C579.233 47.5 578.933 48.4 578.733 49.9C578.633 50.6 578.633 51.2 578.633 51.7C578.533 52.4 578.433 53 578.533 53.4C578.633 54.2 579.433 54.6 579.533 55.6L581.233 54.7L582.833 48.2L586.333 46L584.333 43.8L583.333 44.6Z" fill="#E6DB9D"/>
<path fill-rule="evenodd" clip-rule="evenodd" d="M574.133 88C574.133 87.9 574.133 87.9 574.133 87.8C574.433 85.6 574.433 84 574.633 82.9C574.933 81.4 575.133 80.9 575.033 80.3C574.933 79.4 574.933 78.8 575.033 78.1C575.133 77.2 576.033 76.1 576.033 75.4C576.033 74.8 575.733 74.4 575.433 74.1C575.133 73.7 574.933 73.4 574.933 73.4C574.933 73.4 576.633 72.2 576.633 67.4H576.733L577.633 69.8L578.233 70.5L580.433 74.7L583.333 77.5L587.633 80.4L590.333 83.3L590.633 91.1L587.133 95.6L586.533 96.6C582.033 94.5 577.833 91.6 574.133 88Z" fill="#E5CB7A"/>
<path fill-rule="evenodd" clip-rule="evenodd" d="M584.833 95.4C584.833 95.4 584.933 94.4 585.733 93.8C585.833 94 585.933 94.2 585.933 94.4C586.033 94.1 587.133 92.5 589.333 92.1C591.633 91.7 592.133 90 592.133 90L596.933 85.6L602.433 80.5L609.133 78.1L612.233 77.3C612.233 77.3 612.333 77.5 612.133 78C612.733 78 614.033 77.7 615.333 77.2C615.833 77 616.433 76.9 616.633 77.2C617.033 77.6 617.133 78.5 617.133 79C617.833 78.9 618.533 78.2 619.133 78.3C620.133 78.4 620.932 79.5 621.932 79.5C623.232 79.5 623.833 78.7 624.733 78.1C625.233 77.7 626.033 77.3 626.533 76.9C627.633 76.1 638.733 72.7 638.733 72.7L642.633 73L643.233 77.2L642.932 88.1L642.833 88.2L625.133 97.5L600.533 101.3C595.033 100.4 589.733 98.6 584.833 95.9V95.4Z" fill="#D8C173"/>
<path fill-rule="evenodd" clip-rule="evenodd" d="M575.633 89.4C575.933 88.7 576.333 88.1 576.333 87.8C576.333 88.2 576.433 89.2 576.633 90.2C576.333 90 576.033 89.7 575.633 89.4Z" fill="#F1D789"/>
<path fill-rule="evenodd" clip-rule="evenodd" d="M593.633 99.7L596.833 98.8L597.133 98.9C597.133 98.9 597.233 99 597.233 99.3C597.633 99.1 597.933 99.1 598.233 99C598.333 99.3 598.533 100.2 599.033 100.3C599.633 100.4 600.233 100 600.833 99.6C601.433 99.1 602.133 98.5 602.733 98.2C602.933 98.6 603.133 98.9 603.233 99.3C603.933 98.7 605.133 96.4 606.933 96.5C607.433 95.3 608.333 94.3 609.333 93.5C610.933 92.4 612.033 92.3 613.233 92.4C613.733 91.7 614.333 91.2 615.033 90.7C615.233 90.8 615.833 91.1 616.533 90.8C617.233 90.5 618.133 89.1 619.233 89C619.833 88.9 620.432 89 620.932 89.4C620.932 89.4 624.133 86.2 626.333 85.2C626.233 84.9 626.033 84 628.633 81.9C628.733 82 628.633 82.4 628.733 82.4C628.733 82.4 629.433 82.1 630.233 81.5C631.233 80.8 632.433 80 633.133 79.8C634.433 79.4 635.932 80.2 635.932 80.2C636.032 80.1 636.233 80.1 636.333 80C636.633 79.9 636.933 79.9 637.133 79.8C637.133 80.2 637.333 81 637.133 81.6C637.433 81.7 637.632 81.9 637.932 82C637.832 82.3 637.432 83.1 636.932 83.5C637.332 83.7 637.433 84 638.033 84.2C637.733 84.6 637.333 85.2 637.133 85.5C636.933 85.9 636.232 87.6 635.932 88.2C635.632 88.8 635.233 90 635.033 90.2C634.833 90.4 634.133 91.4 633.533 91.9C634.033 91.7 636.132 91.1 636.932 90.8C636.632 91.2 635.333 93.1 634.133 95C622.033 102.3 607.233 104.1 593.633 99.7Z" fill="#E0CD81"/>
<path fill-rule="evenodd" clip-rule="evenodd" d="M583.533 44.3C583.533 44.3 582.833 44.3 582.633 44.4C582.533 44.5 583.333 44.7 583.633 44.8C583.933 44.9 584.533 45.4 584.633 45.7C584.733 46.1 589.933 48.1 589.933 48.1L593.533 47.9L594.833 46.2L592.433 44.1L594.133 39.2L591.933 39.6L586.633 42.8L583.933 43.8L583.533 44.3Z" fill="#DFC57C"/>
<path fill-rule="evenodd" clip-rule="evenodd" d="M591.533 46C591.633 46.2 591.833 46.3 592.033 46.3C592.833 46.3 593.433 46.5 593.733 46.9C594.233 47.5 595.533 49.5 595.533 49.5L598.733 50.7L598.933 46.9L595.433 44.5L591.433 46H591.533Z" fill="#E5CC7C"/>
<path fill-rule="evenodd" clip-rule="evenodd" d="M590.933 47.4C590.933 47.4 591.533 47.4 592.233 47.2C592.933 46.9 594.133 46.3 594.733 46.6C595.433 46.9 595.333 47.9 596.133 48.8C596.633 49.3 597.533 49.3 598.033 49.9C598.533 50.5 600.233 50.2 600.233 50.2L600.933 53.7L598.333 57.1L597.433 61.3H593.833L590.633 60L589.033 56.1L589.833 52.2L590.933 47.4Z" fill="#D2C281"/>
<path fill-rule="evenodd" clip-rule="evenodd" d="M597.733 47.5C597.833 47.5 597.933 47.5 598.033 47.5C597.933 47.6 597.733 47.8 597.833 48.3C597.933 48.8 598.233 49.4 597.933 49.8C598.133 50 598.233 50.2 598.333 50.5C598.433 50.9 598.533 51.3 599.433 51.4C599.333 51.5 599.133 51.6 599.033 51.7C599.033 51.7 599.733 52.3 600.033 52.8C600.333 52.8 601.233 52.5 601.233 52.5L601.433 52.6L601.833 52.4C601.833 52.4 601.433 52.3 601.733 51.3C602.033 50.5 602.233 50.5 602.233 50.5C602.233 50.5 602.433 49.6 602.433 49.3C602.533 48.9 602.633 47.5 602.633 47.5L602.333 44.5L600.833 43.6L599.633 42.4L598.433 44.6L597.633 45.4L597.533 47.3L597.733 47.5Z" fill="#E2C270"/>
<path fill-rule="evenodd" clip-rule="evenodd" d="M601.433 45.1C601.433 45.1 601.733 45.9 601.833 46.5C601.833 46.4 601.933 46.3 601.933 46.1C601.933 46.1 602.133 47.3 602.233 47.8C602.333 47.8 602.433 47.8 602.433 47.8C602.433 47.9 602.633 48.8 602.633 49.4C603.033 48.8 603.433 48.3 604.033 48C604.333 47.8 604.733 47.6 605.233 47.5C605.933 47.5 606.333 47.9 607.133 47.9C609.033 47.9 610.732 46.5 611.932 46.1C612.832 45.8 613.633 45.6 614.233 45C614.533 44.8 615.032 44.3 615.432 43.5C616.032 42.5 616.633 41.6 617.233 41.5C616.933 41.6 616.632 41.6 616.432 41.6C616.432 41.6 616.632 41.4 616.932 41.2C617.232 40.9 617.633 40.6 618.133 40.6C619.133 40.6 619.533 40.7 620.133 40.7C620.633 40.7 621.033 40.6 621.033 40.6C621.033 40.6 621.633 41 622.833 41C624.133 41 624.933 41.1 625.633 41.2C626.333 41.3 628.533 41 629.233 41C629.633 41 630.032 41.1 630.432 41.3L628.333 35.3L620.833 28.8L616.432 31.9L609.633 38.7L603.033 41.1L601.633 42.7L601.433 45.1Z" fill="#CCB360"/>
<path fill-rule="evenodd" clip-rule="evenodd" d="M616.233 41.6C616.233 41.6 616.433 41.4 616.733 41.2C617.033 41 617.432 40.6 617.932 40.6C618.932 40.6 619.332 40.7 619.932 40.7C620.432 40.7 620.833 40.6 620.833 40.6C620.833 40.6 621.433 41 622.633 41C623.933 41 624.732 41.1 625.432 41.2C626.132 41.3 628.333 41 629.033 41C629.433 41 629.833 41.1 630.233 41.3L629.333 38.6L628.233 36.5L625.133 33.1C625.133 33.1 621.433 30.9 621.333 30.9L620.033 30.5L616.633 32.6L613.533 40.6L613.432 42.3L615.432 43.2C615.932 42.4 616.533 41.7 617.033 41.6C616.633 41.6 616.233 41.6 616.233 41.6Z" fill="#D5B457"/>
<path fill-rule="evenodd" clip-rule="evenodd" d="M616.233 42.2C615.933 42.2 615.733 42.2 615.633 41.9C615.333 41.2 615.132 41.1 614.932 41.1C614.732 41.1 614.433 41.6 614.233 41.6C614.033 41.6 613.833 41.1 613.833 41.1L613.633 41C613.633 41 612.533 41.7 611.733 42.6C610.933 43.4 609.733 44.9 609.133 45.1C608.533 45.4 606.633 45.4 605.933 45.6C605.233 45.7 604.533 46.2 604.433 46.3C604.333 46.4 604.733 46.5 604.833 46.6C604.933 46.7 604.133 46.7 604.133 46.8C604.133 46.9 604.333 47.4 604.433 47.6C604.633 47.5 604.833 47.5 605.033 47.5C605.733 47.5 606.133 47.9 606.933 47.9C608.833 47.9 610.533 46.5 611.733 46.1C612.633 45.8 613.433 45.6 614.033 45C614.333 44.8 614.833 44.3 615.233 43.5C615.633 43 615.933 42.5 616.233 42.2Z" fill="#D2B257"/>
<path fill-rule="evenodd" clip-rule="evenodd" d="M589.233 84.1C589.233 84.1 589.033 83.5 587.533 81.9C587.133 81.4 586.833 81.1 586.533 80.8C585.833 80.1 585.333 79.9 584.833 79.5C583.633 78.6 582.433 78.6 581.433 77.6C580.433 76.5 579.333 74.5 578.533 72.5C577.733 70.4 577.533 69.8 577.533 69.7C577.533 69.6 577.733 69.2 578.033 69.3C578.333 69.4 578.333 69.9 578.333 70C578.433 70.2 578.633 70.4 578.833 70.6C579.233 71.1 579.833 71.6 580.133 72.4C580.033 71.7 579.833 70.9 579.833 70.9C579.833 70.9 581.333 71.8 582.633 72.8C583.933 73.8 584.433 74.1 584.833 74.7C585.233 75.3 586.133 77 586.533 77.5C586.933 78 592.733 79.8 592.733 79.8L595.433 81.9L596.833 84.9L595.733 86.6L593.633 87L590.333 85.5L589.233 84.1Z" fill="#D2B159"/>
<path fill-rule="evenodd" clip-rule="evenodd" d="M581.833 73.8C581.833 73.8 582.533 74.9 584.233 76C585.733 76.9 588.133 77.8 590.333 78.3C591.533 78.6 592.833 78.8 593.933 78.8C596.933 78.8 599.033 78 601.533 77.7C602.933 77.6 604.633 77.4 606.333 77C608.633 76.5 609.933 75.8 611.733 75C613.033 74.4 614.233 73.9 615.233 73.3C616.633 72.5 617.633 71.6 618.833 71.3C618.733 71.7 618.532 72.4 617.432 73.1C618.032 73.1 618.833 73 618.833 73C618.833 73 618.033 73.5 616.633 74.6C615.733 75.3 614.532 76.4 613.432 77.2C612.632 77.7 611.833 78 611.233 78.3C609.933 79 609.333 79.4 608.433 80.3C608.733 80.3 608.733 80.3 608.733 80.3C608.733 80.3 607.633 80.4 606.833 80.9C606.633 80.9 606.333 80.8 605.833 81C605.433 81.1 604.933 81.4 604.333 81.6C603.533 81.8 603.333 81.7 603.333 81.7L603.433 82C603.433 82 602.433 82 602.133 82C602.233 82 602.133 82 602.133 82C602.033 82 602.033 82 601.933 82.1C601.733 82.2 601.633 82.3 601.433 82.3C601.333 82.3 601.233 82.3 601.133 82.3C601.133 82.4 601.533 83 601.633 83.3C601.533 83.4 599.633 84.8 599.633 84.8C599.733 84.9 599.733 85 599.733 85.1C599.833 85.3 599.833 85.6 599.833 85.7C599.933 86 600.033 86 600.033 86C600.033 86 599.833 86 599.433 86.1C599.133 86.2 598.633 86.3 598.133 86.4C597.933 86.4 597.733 86.4 597.633 86.4C597.733 86.6 598.133 87.3 597.433 88.1C596.733 88.9 596.533 89 596.333 89.6C596.233 89.5 596.133 89.4 596.033 89.4C595.833 89.3 595.533 89.1 595.333 88.9C595.233 89.2 595.233 89.4 595.033 89.7C594.833 90.3 594.533 90.8 594.433 91.3C594.233 91 593.733 90.5 593.233 90.6C592.633 90.7 592.133 91.5 592.033 91.7C592.033 91.6 591.933 91.4 591.933 91.6C591.933 91.8 591.633 93.7 589.833 95.3C589.833 94.9 589.833 94 589.733 93.7C589.533 93.9 589.333 94.1 588.133 94.6C586.933 95.1 587.133 95.7 587.133 95.7C587.133 95.7 587.033 94.9 587.633 94C588.333 93.1 588.733 92.7 588.733 92.6C588.733 92.5 588.733 92.5 588.633 92.4C588.533 92.3 588.333 92.2 588.333 92.1C588.433 92.1 589.433 91.6 589.433 90.6C589.333 89.7 589.033 89.2 588.733 88.9C588.733 88.9 589.133 88.5 589.033 88.4C589.033 88.3 588.433 87.9 588.333 87.7C588.333 87.6 588.333 87.4 588.433 87.3C588.533 87.1 588.533 87 588.533 86.9C588.533 86.7 588.233 86.1 588.233 86C588.333 86 588.733 86 588.733 86C588.733 86 588.433 85.5 588.333 85.2C588.233 84.9 588.133 84.3 588.033 84.1C588.133 84.1 588.533 84.1 588.533 84.1C588.533 84 588.233 83.8 588.333 83.6C588.433 83.6 588.633 83.7 588.833 83.9C588.733 83.6 588.533 83.1 588.233 82.9C588.433 82.8 588.933 82.7 589.433 83C589.933 83.3 590.133 83.7 590.133 83.7C590.133 83.7 590.433 83.9 590.933 84.3C591.433 84.7 592.133 85.3 593.233 85.7C593.433 85.8 594.033 85.8 594.433 85.7C594.633 85.7 594.833 85.6 594.933 85.5C595.033 85.5 595.033 85.4 595.133 85.4C595.033 85.2 594.933 85 594.833 84.9C594.933 84.9 595.133 84.9 595.133 84.9C595.133 84.9 595.233 84.7 594.733 84.2C594.833 84.1 594.933 84 594.933 83.9C594.833 83.9 594.533 83.7 594.433 83.6C594.533 83.5 594.633 83.3 594.833 83.3C594.733 83.2 594.433 82.8 594.233 82.7C594.333 82.6 594.533 82.6 594.633 82.5C594.633 82.5 593.933 82.3 593.733 82.2C593.533 82 593.133 81.7 592.933 81.7C592.733 81.6 592.333 81.6 592.233 81.4C592.333 81.4 592.633 81.4 592.733 81.4C592.833 81.4 592.933 81.4 592.933 81.4C592.933 81.3 592.933 81.2 593.233 81.2C593.433 81.2 593.533 81.1 593.733 81.1C593.733 81.1 593.433 81.1 593.033 80.7C592.633 80.3 592.333 80.1 592.133 80C591.933 80 591.533 80.1 591.233 80.1C590.933 80.1 590.733 79.9 590.733 79.9C590.733 79.9 589.633 80 587.133 78.5C584.933 77.2 584.033 76 584.033 76C583.833 75.9 583.633 75.8 583.433 75.7C582.933 75.8 581.833 75 581.833 73.8Z" fill="#C2A44D"/>
<path fill-rule="evenodd" clip-rule="evenodd" d="M613.033 22.9C613.233 23 613.433 23.1 613.533 23.2C613.933 23.7 614.233 24.5 613.233 25.4C613.633 25.5 613.733 25.6 614.033 25.5C613.733 25.9 613.032 26.7 612.932 27.4C612.932 28 613.233 28.1 613.233 28.1C613.233 28.1 612.733 28.7 612.633 29.8C612.933 29.5 613.132 29.2 613.432 29C614.032 28.5 614.933 27.9 615.533 27.6C615.533 27.7 615.533 27.9 615.633 28C615.633 28 616.733 27.1 617.633 27.5C618.033 27.7 617.833 28.3 617.833 28.3C617.833 28.3 618.433 28.1 618.833 28.5C619.233 28.9 619.833 29.9 620.133 30.3C620.233 30.5 620.632 30.8 620.932 31.4C621.432 32.2 621.733 33 622.133 33.8C622.133 33.4 622.233 32.7 623.533 33.1C624.833 33.5 626.232 34.5 627.432 36.3C628.632 38.1 628.933 40.2 629.533 41C630.133 41.8 630.733 43 630.833 43.5C630.833 44 630.632 45.7 631.932 50.3C632.332 48.9 632.833 45.7 632.833 45.7L633.133 42.9L633.432 34.3L624.432 26.8L617.432 21.7L612.833 22.1L613.033 22.9Z" fill="#CAA13E"/>
<path fill-rule="evenodd" clip-rule="evenodd" d="M629.733 35.8C629.733 35.8 629.633 35 627.533 33.5C625.433 32.1 623.733 32.1 622.233 30.9C621.033 30 619.833 27.8 619.033 27.1C618.233 26.4 618.133 24.4 618.133 24.4L620.733 22.2L624.633 16.6L627.932 13L629.533 15.2L631.733 17.8L632.932 22.9L633.333 30.4L629.733 35.8Z" fill="#B59544"/>
<path fill-rule="evenodd" clip-rule="evenodd" d="M632.432 44.8C632.532 43.7 632.333 42.5 632.033 41.4C631.433 39.7 630.233 36.6 629.733 35.4C629.533 34.1 629.632 34 629.932 33.9C630.132 33.8 631.133 33.2 631.633 31.4C632.133 29.6 633.733 29.5 633.733 29.5L634.733 28.8L636.233 32.5L637.533 35.8L637.932 38.3L638.233 40.5L637.533 45.1L634.133 48.2L632.432 44.8Z" fill="#C89D3A"/>
<path fill-rule="evenodd" clip-rule="evenodd" d="M584.533 95.7C584.633 95.6 584.633 95.5 584.733 95.4C584.833 95.3 584.833 95.2 584.833 95.2C584.933 95.2 585.333 95 585.533 95.1C585.733 95.1 586.333 95.4 586.633 95.4C587.233 95.4 587.933 94.9 589.033 95.1C590.733 95.4 591.133 96.6 592.133 97.2C592.833 97.7 593.533 97.5 593.633 97.5H593.833C593.833 97.5 594.233 97.1 594.333 97.2C594.633 97.2 594.733 97.5 594.933 97.5C595.433 97.6 596.433 97.2 596.933 97.4C597.233 97.5 597.433 97.7 597.533 98C597.633 98.3 597.533 98.7 597.333 98.9C596.833 99.4 596.333 99.8 596.233 100.2C596.333 100.3 596.533 100.4 596.633 100.5C592.333 99.5 588.233 97.9 584.533 95.7Z" fill="#CEB052"/>
<path fill-rule="evenodd" clip-rule="evenodd" d="M629.633 78.8C629.633 78.8 630.932 77 631.432 76.2C631.932 75.3 630.033 63.9 630.033 63.9L633.833 51.3L633.733 47.2C633.733 47.2 633.933 43.4 634.333 41.8C634.833 42.7 636.533 43.9 636.833 44.5C637.033 43.3 637.533 40.9 637.533 38.3C637.833 38.8 638.633 43.6 638.633 43.6L639.432 46.9L640.432 50.4L641.533 54.1L642.233 56.6L642.633 57.2L642.932 58.3L643.233 59.5L644.133 62.2L644.633 64.4L645.033 68.4C645.133 68.7 645.133 69 645.233 69.3C645.233 69.7 645.133 70 645.133 70.1C645.133 70.2 645.233 71.1 645.233 71.7C645.133 72.4 645.133 72.9 644.633 73.4C644.133 73.9 643.733 76.8 643.733 76.8L642.833 76.2C642.833 76.2 643.033 75.3 642.533 74.6C642.133 73.8 641.233 73.7 640.733 73.8C640.233 73.9 639.332 74.1 638.932 74.3C638.632 74.6 637.933 75.4 637.233 75.8C636.433 76.3 635.033 76.3 634.333 76.5C633.633 76.7 632.732 77.2 631.932 77.8C631.032 78.1 630.333 78.5 629.633 78.8Z" fill="#CCA847"/>
<path fill-rule="evenodd" clip-rule="evenodd" d="M629.633 97.3C629.633 97.3 629.733 97.3 629.833 97.4C635.833 94.6 641.233 90.6 645.733 85.6C645.733 83.9 645.633 82.1 645.533 81.5C645.433 80.1 645.532 78.7 645.432 77.9C645.432 77.1 644.933 73.8 644.733 72.9C644.533 72 644.033 71.6 644.033 71.6C643.933 71.6 643.633 73.2 643.633 73.6C643.633 74 643.533 75 643.533 75.2C643.433 75.2 643.432 75 643.432 75C643.332 75.2 643.233 75.6 643.233 75.6C643.233 75.6 643.333 75.2 643.233 75.2C643.133 75.1 643.033 75.2 643.133 74.9C643.133 74.8 643.133 74.6 643.233 74.5C643.233 74.5 642.933 74.9 642.833 75.8C642.633 76.7 642.633 76.8 642.533 76.9C642.433 77 642.133 77.3 642.133 77.5C642.133 77.7 642.432 78 642.432 78.1C642.432 78.3 642.133 79.3 642.033 79.8C641.933 80.3 641.933 81.2 641.833 81.7C641.733 82.1 641.633 82.4 641.333 82.6C641.533 82.6 641.733 82.7 641.733 82.7C641.733 82.7 642.033 84 641.233 85C640.933 85.4 640.933 85.5 640.633 85.9C640.033 86.5 639.633 87.2 639.533 87.7C639.533 87.6 639.532 87.4 639.432 87.3C639.432 87.3 638.533 88.3 638.133 88.9C637.633 89.7 636.933 89.6 636.833 89.8C636.633 90 636.633 90.3 636.633 90.6C636.433 90.6 636.132 90.7 635.932 91.4C635.832 91.7 635.533 92.1 635.133 92.3C634.733 92.5 634.233 92.6 634.033 92.7C634.233 92.8 634.332 92.8 634.432 92.8C634.332 93 633.733 93.3 633.033 93.8C632.333 94.2 632.032 94.8 631.932 95.2C631.732 95.6 631.533 95.8 631.133 95.8C631.333 95.9 631.533 96.1 631.633 96.2C631.433 96.2 631.133 96.2 630.533 96.7C630.133 97.1 629.933 97.3 629.633 97.3Z" fill="#C39D3C"/>
<path fill-rule="evenodd" clip-rule="evenodd" d="M617.833 101.2C618.133 101 618.533 100.8 618.833 100.6C620.133 100.1 621.533 100 622.133 99.8C622.633 99.6 623.033 99.4 623.733 99.3C623.733 99.4 623.733 99.6 623.733 99.7C621.733 100.4 619.833 100.9 617.833 101.2Z" fill="#D2BA6B"/>
<path fill-rule="evenodd" clip-rule="evenodd" d="M642.233 66.5C642.233 66.5 641.932 68 641.432 68.9C640.932 69.8 640.432 71.1 640.432 71.1C640.432 70.8 640.433 70.5 640.533 70.2C639.933 70.6 638.433 71.4 638.033 71.8C637.633 72.2 636.933 72.8 636.833 73.1C637.233 71.9 637.633 70.9 637.733 70.4C637.133 70.8 634.233 73.2 632.833 74.7L628.233 78.4C627.733 78.7 627.133 78.9 626.633 79.2C625.833 79.5 624.933 79.8 624.233 80.1C624.433 79.6 624.733 79.2 625.133 78.7C625.533 78.3 626.933 76.9 627.133 76.2C627.333 75.5 627.333 75.1 627.133 74.5C626.933 74.6 626.333 74.6 626.033 74.7C625.633 74.8 625.333 75.2 625.333 75.2C625.333 75.2 625.633 73.6 626.233 72.2C625.833 72.2 625.033 72.3 625.033 72.3C625.033 72.3 626.133 70.5 627.833 69.3C627.233 69.4 626.733 69.6 626.233 69.8C625.133 70.2 624.033 70.9 623.133 71.2C623.633 70.5 627.033 65.7 629.033 61.2C631.033 56.7 631.833 55.5 632.233 53.1C632.433 51.9 632.432 50.1 632.432 48.6C632.532 47 632.733 45.6 632.533 44.7C633.033 45.4 635.033 47.2 635.133 51.3C635.233 55.4 633.233 61 631.233 64C631.733 64.1 633.033 64.3 634.333 62C635.633 59.7 635.633 59 636.133 58.1C636.233 58.6 636.133 58.8 636.133 58.8C636.133 58.8 638.133 56.4 639.033 53.5C639.233 54.8 639.732 55.9 638.932 58.3C638.132 60.4 637.133 60.9 637.133 60.9C637.133 60.9 637.633 60.8 638.333 60.4C638.433 60.7 638.433 61.1 638.633 61.2C638.833 61.3 639.133 61.5 639.133 61.7C639.333 61.4 639.733 60.9 639.833 60.6C639.733 61.3 639.733 64.2 640.033 65.7C640.733 65.6 641.333 65.6 641.833 64.4C641.533 65.6 641.533 66.2 641.733 67.2C641.933 66.9 642.233 66.5 642.233 66.5Z" fill="#C0993A"/>
<path fill-rule="evenodd" clip-rule="evenodd" d="M620.233 19.7C620.233 19.7 619.532 20 618.432 20C617.432 20 617.733 19.6 616.233 19.6C613.933 19.6 605.833 20.9 604.333 20.9C603.433 20.9 607.433 21.3 607.433 21.3L617.733 21.4L619.833 21.2L620.632 19.6L620.233 19.7Z" fill="#A88F33"/>
<path fill-rule="evenodd" clip-rule="evenodd" d="M593.433 39.9C593.433 39.9 592.133 40.9 591.533 41.7C590.933 42.5 590.633 43 590.033 43.6C590.133 43.6 590.333 43.6 590.433 43.5C590.433 43.5 590.433 43.7 590.333 43.7C590.533 43.7 590.733 43.7 590.833 43.9C590.633 44 590.133 44.5 590.533 45.1C590.833 45.6 591.433 45.6 591.433 45.6C591.433 45.6 591.333 46 591.933 46C593.233 45.9 594.633 45.4 595.333 45.5C596.033 45.7 596.433 45.7 596.833 46.6C597.333 47.4 597.733 47.5 597.733 47.5C597.733 47.5 598.033 46.7 597.933 45.6C598.133 45 598.333 44.3 598.333 43.7L597.933 40.5L596.033 38.1L593.533 39.5L593.433 39.9Z" fill="#E3C571"/>
<path fill-rule="evenodd" clip-rule="evenodd" d="M595.733 39.5C595.733 39.5 595.933 39.9 596.733 40C596.633 40.2 596.633 40.2 596.633 40.4C596.633 40.5 596.633 40.8 596.633 40.8C596.733 40.8 596.833 40.7 596.833 40.6C596.833 40.8 596.833 41.1 596.833 41.3C596.833 41.4 596.933 41.6 596.933 41.7V41.6C596.933 41.6 597.133 42.1 597.533 42.4C597.533 42.3 597.533 42.3 597.533 42.2C597.533 42.3 597.533 42.4 597.633 42.5C597.633 42.5 597.533 42.5 597.533 42.4C597.533 42.4 597.533 43.7 597.833 44.4L597.933 44.3C597.933 44.3 597.933 44.7 597.833 45C597.733 45.3 597.833 45.7 597.833 45.7C598.033 45.6 598.133 45.5 598.333 45.4C598.633 45.3 599.033 45 599.233 44.3C599.333 43.9 599.533 43.5 599.533 43.1C599.633 43.3 599.633 43.4 599.733 43.6C599.733 43.8 600.133 43.7 600.133 43.7L600.233 42.8L600.733 40.7L601.233 39.4L603.433 36L607.433 32.9L610.932 33.7L613.833 29.7L608.733 26.7L603.933 27.2L599.633 33.2L596.133 38.7L595.733 39.5Z" fill="#D8B65B"/>
<path fill-rule="evenodd" clip-rule="evenodd" d="M620.833 30.8C620.833 30.8 620.533 30.9 619.633 31.3C618.733 31.7 618.233 31.9 617.833 32.5C617.533 33.2 617.432 33.7 617.432 33.7C617.432 33.7 618.033 33.4 618.333 33.4C618.733 33.3 619.133 33.3 619.033 33.5C619.033 33.6 618.933 33.7 618.833 33.8C618.833 33.8 619.533 33.8 619.533 34.1C619.533 34.4 619.433 34.8 619.233 35C619.133 35.2 618.533 35.4 618.533 35.6C618.433 36 618.633 36 618.533 36.3C618.433 36.6 618.233 37.2 617.233 38.3C616.333 39.4 615.932 40.1 615.932 40.1C615.932 40.1 615.433 39.2 615.233 38.5C615.033 38.6 614.133 39.1 614.133 39.1L612.033 31.8V31.3C612.033 31.3 612.233 31.1 612.233 30.6C611.933 30.5 611.832 30.4 611.432 30C611.032 29.6 610.633 29.1 610.033 28.8C609.933 28.6 609.833 28.4 609.333 28.3C608.833 28.2 608.533 28.1 608.533 28.1C608.533 28.1 608.833 28 608.933 27.8C608.633 27.8 608.333 27.9 607.633 27.9C606.933 27.9 606.833 27.9 606.433 27.9C606.033 28 605.633 28.1 605.433 27.5C605.233 27.4 604.833 27.5 604.533 28C604.233 28.5 604.033 28.9 603.433 29.1C603.433 29.4 603.333 29.7 603.133 29.9C602.933 30.2 602.633 30.5 602.233 31C601.633 31.7 601.733 32.9 600.733 33.9C599.733 34.8 600.933 31.3 600.933 31.3L602.533 27.4L607.133 22.9L614.233 22.4L614.932 26.1L618.432 27.3L620.833 30.8Z" fill="#D3AE4D"/>
<path fill-rule="evenodd" clip-rule="evenodd" d="M621.932 31.6L618.932 27.3L616.833 25.7C616.833 25.7 615.333 23 615.233 22.9C615.133 22.8 613.733 22.7 612.833 22.6L613.033 23C613.233 23.1 613.433 23.2 613.533 23.3C613.933 23.8 614.233 24.6 613.233 25.5C613.633 25.6 613.733 25.7 614.033 25.6C613.733 26 613.032 26.8 612.932 27.5C612.932 28.1 613.233 28.2 613.233 28.2C613.233 28.2 612.733 28.8 612.633 29.9C612.933 29.6 613.132 29.3 613.432 29.1C614.032 28.6 614.933 28 615.533 27.7C615.533 27.8 615.533 28 615.633 28.1C615.633 28.1 616.733 27.2 617.633 27.6C618.033 27.8 617.833 28.4 617.833 28.4C617.833 28.4 618.433 28.2 618.833 28.6C619.233 29 619.833 30 620.133 30.4C620.233 30.6 620.632 30.9 620.932 31.5C621.432 32.3 621.733 33.1 622.133 33.9C622.133 33.6 622.233 33.1 622.833 33.1L621.932 31.6Z" fill="#CAA13E"/>
<path fill-rule="evenodd" clip-rule="evenodd" d="M577.033 43.8C577.033 43.8 576.833 43.3 577.033 42.2C577.233 41.1 577.533 40.7 577.733 39.2C577.833 37.7 578.833 35.8 578.833 35.8L581.533 34.6L583.433 35.1L584.033 37.7L581.632 39C581.632 39 581.533 39.6 580.833 40C580.133 40.4 579.233 40.8 578.933 41.3C578.833 41.6 578.732 41.9 578.632 42.2C578.632 42.2 577.933 42.1 577.533 42.5C577.033 43.1 577.133 43.5 577.033 43.8Z" fill="#F4EFC8"/>
<path fill-rule="evenodd" clip-rule="evenodd" d="M582.533 43.1C582.533 43.1 582.333 43.2 582.133 43.6C581.933 43.3 581.533 41.7 581.533 40.3C581.533 38.9 581.433 38.5 581.733 38C582.033 37.5 583.433 37 583.233 36.1C583.033 35.2 582.233 34.9 581.333 35.1C580.633 35.3 580.133 36.7 579.433 37.4C578.933 37.9 578.233 37.9 578.133 38.2C577.933 38.6 578.133 39 578.033 39.3C578.033 39.4 577.833 39.8 577.433 40.4C576.633 41.5 575.333 43.1 575.233 44.5C575.333 43.7 575.233 43.7 575.433 42.8L575.333 42.6L576.133 39.9L576.633 37.6L577.833 33.8L579.933 29.9L582.033 27.6L584.233 27.7L584.533 30.9L585.733 37L588.333 40.2L584.133 43L582.533 43.1Z" fill="#EBCC73"/>
<path fill-rule="evenodd" clip-rule="evenodd" d="M583.833 44.3C583.833 44.3 583.433 44.4 583.333 44.3C583.233 44.2 583.033 44.2 583.133 44.1C583.233 44 583.433 43.9 583.433 43.8C583.433 43.7 583.333 43.6 583.233 43.5C583.033 43.5 582.933 43.6 582.933 43.6C582.933 43.6 582.733 43.5 582.633 43.4C582.733 43.4 582.833 43.4 582.933 43.4C582.733 43.3 582.433 43.2 582.233 43.2C582.433 43.1 582.833 42.7 583.133 42.7C583.433 42.7 583.533 42.7 583.533 42.5C583.533 42.4 583.233 42.1 583.033 42.1C583.133 42 583.133 41.8 582.933 41.4C582.733 41 582.833 40.7 582.833 40.6C582.933 40.5 583.133 40.2 583.233 40.1C583.333 40 583.433 39.8 583.633 39.7C583.733 39.6 584.033 39.5 584.233 39.4C584.533 39.3 584.733 39.2 584.933 39.3C585.133 39.4 585.033 39.6 585.033 39.6C585.033 39.6 585.633 39.4 586.133 39.7C586.633 40 587.933 40.1 587.933 40.1L588.433 41L585.433 43.6L584.133 44.2L583.833 44.3Z" fill="#E5C66B"/>
<path fill-rule="evenodd" clip-rule="evenodd" d="M588.033 40C588.033 40 587.133 40.6 586.833 40.9C586.933 40.9 587.133 41 587.133 41.1C587.033 41.2 586.433 41.7 586.033 42.1C585.633 42.5 585.333 43 585.233 43.3C585.133 43.5 584.133 44.2 583.833 44.3C584.533 44.3 585.933 43.4 586.433 43.4C586.433 43.7 586.533 43.9 586.833 44C587.133 44 588.033 44.2 589.133 43.5C590.333 42.8 589.933 42.3 590.433 41.9C591.333 41.3 591.733 40.7 592.233 40.4C592.733 40.1 593.033 40 593.033 40C593.033 40 593.033 39.7 593.233 39.8C593.333 39.8 593.433 39.9 593.433 39.9C593.433 39.9 594.333 39.3 595.433 39.1C595.433 39.1 595.433 39.1 595.333 39C595.333 39 595.433 39 595.433 38.9C595.433 38.9 595.533 38.8 595.533 38.9C595.533 38.9 595.633 39.3 595.733 39.4C595.933 39.3 596.233 38.5 596.233 38.5L597.133 36.1V33.9L596.433 34L591.433 36.1L588.333 39.3L588.033 40Z" fill="#E6BD62"/>
<path fill-rule="evenodd" clip-rule="evenodd" d="M602.533 29.1C602.833 29 603.033 28.9 603.333 28.8C603.233 29.1 603.233 29.4 602.833 30C602.433 30.6 602.333 30.7 602.033 31.4C601.633 32.1 601.633 33.1 601.333 33.5C601.533 33.4 601.633 33.4 601.833 33.4C601.833 33.4 601.533 33.7 601.333 34C601.133 34.3 600.933 35 600.333 35.4C599.733 35.8 598.933 36.1 598.033 37C597.133 37.9 596.333 39.1 595.833 39.5C596.033 39.1 596.333 38.3 596.433 37.8C596.533 37.3 596.433 36.6 596.533 36C596.633 35.3 596.633 34.8 597.333 33.6C598.033 32.4 599.233 28.2 599.233 28.2L601.833 27.4L602.533 29.1Z" fill="#B6933F"/>
<path fill-rule="evenodd" clip-rule="evenodd" d="M600.733 27.5C600.733 27.5 599.933 28.6 599.733 29.6C599.533 30.6 599.732 30.5 599.632 31C599.532 31.3 599.532 31.6 599.632 31.9C599.932 31.5 600.233 31.1 600.733 30.8C601.433 30.4 602.033 30 602.433 29.7C602.833 29.3 603.133 28.6 603.833 28.1C603.533 28.1 603.033 27.9 603.033 27.9C603.333 27.5 604.333 27 605.233 26.3C606.133 25.6 606.132 25.4 607.632 24.7C607.132 24.8 606.933 24.7 606.433 24.7C606.633 24.3 607.233 24.2 607.733 23.6C608.333 23 607.333 22.2 607.333 22.2L602.833 25L600.733 27.5Z" fill="#C49937"/>
<path fill-rule="evenodd" clip-rule="evenodd" d="M588.533 25.5L588.633 24.7L589.933 22.6L591.333 19V14.1L591.233 11.3L591.433 9.39999L591.533 8.8L591.733 8.60001L592.833 9.10001L594.333 11.2L594.433 15.1L593.033 21.4L588.833 26L588.533 25.5Z" fill="#DFC068"/>
<path fill-rule="evenodd" clip-rule="evenodd" d="M591.933 8.3C591.933 8.3 591.233 8.3 591.133 11.1C591.033 13.9 590.933 15.4 590.833 16.7C590.733 18.1 590.533 18.9 590.333 19.7C590.133 20.5 590.133 21.6 589.733 22.3C589.533 22.6 589.233 23.6 588.333 24.3C587.433 25.1 586.033 25.7 585.733 25.7C585.333 25.8 583.433 26 582.733 26.4C582.433 26.5 582.033 26.7 581.433 27.2C580.433 28.1 579.033 29.8 578.033 31.8C576.533 34.8 575.033 43.2 575.033 43.2L575.333 42.6C575.333 42.6 575.333 41.8 576.133 40.5C576.833 39.2 576.633 37.7 577.733 35.2C578.133 34.2 578.633 33 579.233 31.9C580.233 30.2 581.333 28.7 582.533 27.9C584.433 26.6 586.533 26.3 586.533 26.3L588.833 24.8C588.833 24.8 589.233 24 589.733 23.1C590.433 21.9 591.433 20.5 591.633 18.5C591.933 15.5 591.233 13.6 591.233 11.8C591.233 10 591.333 8.69999 591.633 8.39999C592.133 8.19999 591.933 8.3 591.933 8.3Z" fill="#A88F33"/>
<path fill-rule="evenodd" clip-rule="evenodd" d="M591.933 21.6C591.933 21.6 592.933 19.1 593.433 16.9C593.533 16.5 593.733 16 593.733 15.7C593.933 13.6 594.033 12.8 593.733 11.6C593.533 10.8 592.733 9.99999 592.333 9.39999C591.933 8.79999 591.733 8.59999 591.833 8.39999C591.933 8.29999 592.233 8.10001 592.533 8.10001C593.233 8.10001 593.833 8.39999 594.333 8.89999C595.033 9.69999 595.533 12.2 595.533 12.2L596.033 15.6L597.433 19.9L591.933 21.6Z" fill="#C99E3D"/>
<path fill-rule="evenodd" clip-rule="evenodd" d="M601.333 19.1C601.333 19.1 601.133 19.2 600.833 19.1C600.833 19.4 600.733 19.7 600.533 19.8C600.133 19.7 596.833 19.9 596.833 19.9C596.833 19.9 595.233 19.6 594.833 17.6C594.533 16.2 595.133 14.4 594.933 13.1C594.633 11.3 594.233 10.9 594.133 10.4C594.133 9.79999 594.033 9.7 594.033 9.3C593.833 9.3 593.733 9.2 593.533 9.2C593.533 9 593.533 8.90001 593.433 8.60001C593.533 8.60001 594.233 8.7 595.033 9.5C595.733 10.1 595.733 10.4 595.833 10.5C595.933 10.6 597.033 11.5 597.433 12.4C597.833 13.3 598.733 16.1 598.933 16.5C599.033 16.7 599.133 16.9 599.433 17.3C599.833 17.9 600.533 18.9 601.333 19.1Z" fill="#B58634"/>
<path fill-rule="evenodd" clip-rule="evenodd" d="M595.833 10.5C596.333 11.3 596.833 12.2 597.233 13.1C597.733 14.2 598.033 15.2 598.633 15.9C598.333 14.9 597.733 13 597.333 12.3C596.933 11.6 596.133 10.8 595.833 10.5Z" fill="#A88F33"/>
<path fill-rule="evenodd" clip-rule="evenodd" d="M590.133 24.5C590.133 24.5 589.233 24.7 587.733 25.6C587.233 25.9 586.733 26.1 586.233 26.3C584.933 26.9 583.633 27.4 582.533 27.7C582.633 27.8 582.633 27.8 582.633 27.8C582.633 27.8 582.633 28.2 582.833 28.5C582.733 28.6 581.033 29.8 581.533 33.6C581.833 33.5 582.233 33.3 582.333 33.3C582.433 33.3 582.433 33.6 582.633 33.6C582.733 33.6 583.133 33.4 583.633 32.9C583.633 33.1 583.333 35.4 584.733 37C585.033 36.7 585.633 35.7 585.633 35.7V35.4C585.633 35.4 585.733 34.3 586.033 33.3C586.433 32.3 587.133 31.6 587.133 31.6L590.733 26.4L590.133 24.5Z" fill="#E6C367"/>
<path fill-rule="evenodd" clip-rule="evenodd" d="M586.733 32.1C586.533 32.2 586.433 32.3 586.233 32.4C586.133 32.2 586.133 31.5 586.633 30.7C587.233 29.8 588.533 28.7 588.833 27.9C589.033 27.3 588.933 25.9 591.033 24.1C593.033 22.3 593.833 21.7 593.833 21.7L597.133 20L601.133 21.6L599.133 29.5L597.533 33.2L591.333 32L586.733 32.1Z" fill="#DCBA5A"/>
<path fill-rule="evenodd" clip-rule="evenodd" d="M589.033 29.9L589.833 28.9V28.2C589.833 28.2 590.733 28 591.633 27C592.533 26.1 593.833 24.3 594.933 24.4C596.033 24.5 596.133 26.8 596.233 27.5C596.233 28.2 596.433 29.6 596.633 30.4C596.933 31.2 593.933 34.2 593.933 34.2L591.933 35.8L589.033 29.9Z" fill="#E9CE77"/>
<path fill-rule="evenodd" clip-rule="evenodd" d="M591.433 38C591.433 38 592.033 37 591.633 36.8C591.933 36.2 592.433 35.5 592.433 35.5C592.433 35.5 592.833 34.6 593.933 33.5C595.133 32.4 595.833 31.7 596.033 31C596.133 30.5 596.233 30 596.233 29.6C596.333 29.7 596.533 29.8 596.633 29.9C596.833 30 597.733 30.7 597.533 32.2C597.433 33.7 596.833 34.3 596.833 34.3C596.833 34.3 596.333 34.8 595.933 35.1C595.533 35.4 595.433 35.7 594.733 35.7C594.833 35.6 594.833 35.6 594.933 35.6C594.933 35.6 594.233 35.5 593.833 35.9C593.433 36.3 592.633 37.3 592.233 37.6C591.933 37.7 591.433 38 591.433 38Z" fill="#CDAE50"/>
<path fill-rule="evenodd" clip-rule="evenodd" d="M619.633 21.5C618.633 21.1 617.533 20.9 616.533 20.9C614.733 20.8 612.133 20.9 609.633 21C606.933 21 604.433 20.1 600.933 19.9C600.333 19.6 598.933 18.1 594.433 21.2C594.733 21.2 597.733 20.5 598.733 21.8C599.833 23.1 599.533 25.3 599.333 25.8C599.033 27 598.133 28.7 597.833 29.9C597.433 31.1 597.533 31.7 597.333 32.6C597.033 33.4 596.533 33.9 596.833 34.8C597.233 34.5 597.533 34.5 598.233 32.9C598.933 31.2 598.833 30.1 600.033 28.7C601.233 27.3 603.233 25.4 603.933 24.9C604.733 24.4 610.733 21.3 617.033 24.3C618.533 24 619.633 21.5 619.633 21.5Z" fill="#D2A83E"/>
<path fill-rule="evenodd" clip-rule="evenodd" d="M596.933 20.3C596.933 20.2 596.933 20.2 596.933 20.1C596.833 20 596.833 19.9 596.733 19.8C596.733 19.8 595.233 19.5 594.533 19.6C593.233 19.7 592.033 21.4 591.433 22.2C590.833 23 590.133 24.3 589.433 25C589.433 24.9 589.433 24.9 589.433 24.8V24.9C589.433 24.9 589.333 25 589.433 25.1L589.533 25.2C589.533 25.2 590.733 24.7 592.333 23.2C594.033 21.6 595.333 20.9 596.033 20.6C596.133 20.5 596.533 20.4 596.933 20.3Z" fill="#C29637"/>
<path fill-rule="evenodd" clip-rule="evenodd" d="M625.833 14C625.833 14 625.533 14.3 625.233 14.7C624.433 15.5 623.533 16.4 622.633 17.3C621.833 18.2 620.932 18.9 619.932 20C618.932 21.2 617.732 22.4 617.432 22.8C617.132 23.2 616.932 23.8 616.932 24.1C616.832 24 616.633 23.9 616.633 23.9C616.733 24 616.832 24.2 616.932 24.3C617.132 24.6 617.433 25 617.633 25.2C617.833 25.5 618.033 25.8 618.033 26.2C618.133 26.2 618.833 26.3 619.633 25C620.433 23.7 621.533 22.2 621.533 22.2L623.233 19.7L624.333 17.6L625.633 15.2L625.833 14Z" fill="#AC8132"/>
<path fill-rule="evenodd" clip-rule="evenodd" d="M627.633 12.2C627.633 12.2 626.633 13 626.233 13.5C625.833 14 624.932 15.3 624.932 15.3H625.233L626.932 13.8L627.633 12.6V12.2Z" fill="#A88F33"/>
<path fill-rule="evenodd" clip-rule="evenodd" d="M627.233 79.6C627.233 79.6 627.233 78.9 627.633 78.5C628.033 78.1 629.033 77.5 630.033 75.2C631.033 72.9 631.133 72.4 631.133 72.4C631.133 72.4 629.333 73.9 628.333 74.3C628.633 73.8 628.733 73.4 628.833 73.1C628.733 73 628.033 72.8 628.033 72.8C628.333 72.5 628.533 71.6 629.233 71.1C630.133 70.4 631.732 69.3 632.932 68.3C634.232 67.3 636.632 64.9 636.932 64.2C637.132 64.5 637.133 64.6 637.133 64.6C637.133 64.6 635.933 66.2 635.233 67.2C634.633 68.1 634.733 68.6 634.733 68.6L635.932 68.1C635.932 68.1 636.233 69.4 634.733 71.3C635.433 71 635.633 71.2 636.033 71C635.433 71.4 634.533 71.9 633.733 73.4C632.933 74.9 631.833 76.6 630.033 77.7C628.333 78.7 627.233 79.6 627.233 79.6Z" fill="#A67A2E"/>
<path fill-rule="evenodd" clip-rule="evenodd" d="M622.733 22.4C622.733 22.4 622.032 23.8 621.932 25C621.932 25.3 621.833 25.5 621.833 25.8C621.833 26.8 621.933 27.9 621.633 28.5C621.533 28.3 621.532 28.1 621.432 28.1C621.332 28.5 621.032 29.6 620.932 30C620.832 29.7 620.633 28.8 620.633 27.7C620.633 26.6 620.633 26.4 620.633 26.1C620.633 26.4 620.333 26.9 620.233 27.2C620.133 27 619.933 26.7 619.833 26.4C619.733 26.6 619.633 26.8 619.533 26.9C619.533 26.8 619.432 26.5 619.432 26.1C619.432 25.7 619.432 25.1 619.432 25C619.432 24.8 619.833 23.9 620.633 23.1C621.533 22.1 622.433 20.2 622.733 19.6C623.033 19 624.133 16.6 624.133 16.6H625.033L623.733 19.5C623.733 19.5 622.933 21.1 622.533 21.7C622.133 22.3 621.332 24 620.932 24.6C621.232 24.2 621.433 24.1 621.733 23.7C621.933 23.4 622.733 22.4 622.733 22.4Z" fill="#8C6228"/>
<path fill-rule="evenodd" clip-rule="evenodd" d="M627.632 12.1C627.532 12.5 627.232 13 626.932 13.3C626.432 13.9 625.233 14.8 624.733 15.4C624.233 16.1 623.232 17.8 623.632 19.9C623.832 19.4 624.132 18.5 624.932 17.5C625.732 16.5 626.632 15.3 627.132 14.4C627.532 13.5 627.632 12.7 627.632 12.7L627.832 12.5L627.733 12L627.632 12.1Z" fill="#CBA94C"/>
<path fill-rule="evenodd" clip-rule="evenodd" d="M644.733 68.4C644.733 68.4 644.433 67.5 644.333 66.6C644.233 65.8 644.533 65.6 644.233 64.6C644.033 64 643.733 64.1 643.633 64C643.533 63.9 643.533 63 643.533 62.6C643.533 62.1 643.532 61.5 643.432 61.2C643.332 61.1 643.233 61 643.033 60.4C642.833 59.8 642.733 59.5 642.633 59.3C642.533 59.1 642.233 58.9 642.233 58.8C642.233 58.4 642.533 58.2 642.533 58.1C642.533 57.9 642.233 58.1 642.233 58C642.133 57.9 642.433 57.3 642.333 57.2C642.333 57.2 642.032 57.5 641.932 57.4C641.832 57.3 641.733 56.3 641.633 55.6C641.533 54.9 641.333 54.5 641.333 54.3C641.333 54.1 640.132 50.8 639.932 50C639.732 49.3 639.533 48.6 639.333 47.9C639.233 47.5 639.233 46.7 639.133 46.8C639.133 46.9 639.133 47.3 639.033 47.3C638.933 47.3 638.733 45.8 638.733 45.6C638.633 45.4 638.333 44.6 638.233 44C638.133 43.4 637.933 41.9 637.833 40.9C637.733 39.9 637.633 39.5 637.633 39.2C637.633 38.6 637.633 38 637.533 37.4C637.333 36.3 637.033 35 636.733 34.3C636.133 32.9 634.632 29.2 634.432 28.3C634.432 28.1 634.733 28.2 634.733 28.2C634.733 28.2 635.433 30 636.033 31.5C636.533 32.9 637.033 34.2 637.233 34.3C637.333 34.4 638.133 35.8 638.533 38.1C638.933 40.4 639.033 42.5 639.233 43.9C639.333 44.6 639.433 45.3 639.633 46C639.833 46.8 640.233 47.6 640.733 48.8C641.133 49.8 641.433 50.7 641.633 51.4C641.833 52.3 641.832 53.1 641.932 53.5C642.032 53.9 642.233 54.7 642.533 55.8C642.833 56.9 643.433 58.4 643.733 59.4C644.433 61.2 644.733 62.8 644.833 63.6C644.533 64.5 644.833 67.5 644.733 68.4Z" fill="#A88F33"/>
<path fill-rule="evenodd" clip-rule="evenodd" d="M627.633 12V12.1C627.633 12.1 627.733 12.1 627.733 12.3C627.733 12.5 627.733 12.8 627.733 13C627.733 13.3 627.633 13.5 627.633 13.7C627.633 14.1 627.733 14.6 627.133 15.7C626.933 16 626.833 16.3 626.733 16.5C626.533 17 626.433 17 626.333 17.2C626.633 17 627.733 16.4 628.233 16.5C627.833 16.7 627.332 17.1 626.932 17.7C627.032 17.7 627.332 17.8 627.932 17.7C628.832 17.6 629.933 17.2 630.833 17.3C631.833 17.4 631.432 16.1 631.432 16.1L630.233 13.5L628.033 11.9L627.633 12Z" fill="#BE9C44"/>
<path fill-rule="evenodd" clip-rule="evenodd" d="M633.432 31.2C633.432 31.2 632.433 30.2 632.033 26.8C631.633 23.4 631.733 18.4 631.733 18.4L630.932 16.5C630.932 16.5 630.733 15.2 630.333 14.7C629.933 14.2 629.133 13.4 628.733 13C628.333 12.6 627.933 12.1 627.633 12C627.733 11.8 628.333 10.6 630.533 10.6C632.733 10.6 633.333 11.8 633.633 12.2C633.933 12.6 634.933 14.5 635.233 18.2C635.633 21.8 635.633 22.1 635.533 23.4C635.533 24.1 635.233 25.7 634.833 27.4C634.533 28.8 634.132 30.5 633.432 31.2Z" fill="#A17C34"/>
<path fill-rule="evenodd" clip-rule="evenodd" d="M630.333 34.1C630.633 34.1 631.033 34 631.233 33.9C631.533 33.9 632.633 34 633.533 32.9C633.633 33.2 633.733 33.8 633.333 34.5C633.533 34.3 633.832 34.2 633.932 34.1C633.932 34.4 634.233 35.4 633.033 37.7C633.333 37.3 633.733 37.3 634.133 37.3C634.133 37.7 634.433 39.2 633.733 40C633.333 40.5 632.633 40.4 632.633 40.4C632.633 40.3 632.633 40.2 632.633 40C632.633 39.8 632.533 39.5 632.633 39.4C632.333 39.3 632.033 39 631.733 38.8C631.033 38.1 630.032 36.9 629.932 36C629.832 35 630.733 34.8 630.733 34.8C630.633 34.7 630.633 34.7 630.533 34.6C630.533 34.5 630.533 34.3 630.333 34.1Z" fill="#8C6228"/>
<path fill-rule="evenodd" clip-rule="evenodd" d="M623.733 23.4C623.733 23.4 623.732 23.3 623.432 23.6C623.432 23.3 623.533 23.1 623.533 22.8C623.633 22.6 623.732 22.4 623.932 22.2C623.832 22.5 623.733 22.7 623.733 22.7C623.733 22.7 624.033 22.1 624.533 21.8C624.833 21.5 625.232 21.4 625.432 21.2C625.632 20.9 625.533 20.9 625.633 20.9C625.633 20.9 626.033 20.6 626.733 19.8C626.833 19.7 626.933 19.6 627.033 19.5C627.133 19.4 627.532 19.3 627.932 19.1C628.332 18.9 628.833 18.6 629.133 18.4C629.733 18.1 630.333 18.2 630.533 17.8C630.733 17.7 630.932 17.1 630.932 16.6C631.232 16.7 632.832 17.7 633.432 19.9C633.832 21.5 633.133 23.8 632.833 25C632.533 26.2 632.533 27 632.033 27.5C631.533 28.2 629.832 29.2 629.432 29.7C629.032 30.1 628.033 31.1 628.033 31.8C628.033 32.3 628.732 32.6 628.932 32.7C629.032 32.8 629.033 32.9 629.333 32.9C629.633 32.8 629.733 32.7 629.833 32.7C629.933 32.7 629.933 32.7 630.033 32.7H630.133C630.133 32.7 630.133 33.5 628.333 33.7C628.233 33.7 628.032 33.8 627.932 33.8C628.132 33.7 628.233 33.7 628.533 33.4C628.233 33.4 627.533 33.3 627.333 33.3C627.433 33.2 627.633 32.9 627.733 32.8C627.833 32.7 627.733 32.6 627.633 32.7C627.433 32.8 627.233 33 627.033 33.2C626.833 33.4 626.633 33.6 626.333 33.9C626.233 33.6 626.233 32.9 626.633 32.5C626.533 32.5 626.333 32.8 626.133 32.8C626.133 32.5 626.133 32.2 626.233 31.9C626.333 31.5 626.932 30.8 626.932 30.8L629.633 26L630.233 22.4L623.733 23.4Z" fill="#92723A"/>
<path fill-rule="evenodd" clip-rule="evenodd" d="M623.633 23.6C623.633 23.6 623.533 23.7 623.733 23.9C623.733 24 623.632 24.2 623.432 24.3C623.332 24.5 623.133 24.6 623.033 24.7C622.933 25 622.833 25.2 622.833 25.3C622.833 25.4 622.832 26.2 622.432 26.8C622.332 27 622.133 27.3 622.033 27.5C621.833 27.9 621.633 28.2 621.633 28.3C621.533 28.6 621.533 29.4 621.533 29.4C621.533 29.4 621.733 29.2 621.833 29.1C621.733 29.3 621.632 29.5 621.432 29.7C621.532 29.6 621.833 29.4 622.333 29C623.033 28.4 624.132 27.4 625.432 26.7C625.032 26.8 624.732 26.8 624.432 26.9C624.632 26.7 626.533 24.5 627.533 24.2C627.633 24.1 627.633 24 627.633 23.9L626.733 23.8L625.033 24.2L624.733 22.9L623.633 23.6Z" fill="#B18E3E"/>
<path fill-rule="evenodd" clip-rule="evenodd" d="M626.432 31.3C626.432 31.3 626.233 31.5 626.033 32.1C625.833 31.9 625.733 31.7 625.633 31.5C625.333 31 624.833 30.3 623.733 30.7C623.733 30.3 623.733 30.2 623.733 29.9C623.933 29.9 624.533 29.4 625.033 28.7C625.433 28.2 625.833 27.7 626.033 27C626.233 26.9 626.533 26.7 626.833 26.4C627.333 26 628.033 25.5 628.133 25C627.833 25.1 627.333 25.4 626.533 25.3C626.833 25.2 627.333 25 627.233 24.4C627.333 24.3 627.432 24.3 627.432 24.3C627.332 24.3 627.233 24.3 627.133 24.3C627.133 24.2 627.132 24.2 626.932 24.2C626.832 24.2 626.733 24.2 626.733 24.3C626.633 24.3 626.433 24.3 626.333 24.4C626.233 24.5 625.833 24.8 625.633 24.9C625.733 24.8 625.733 24.6 625.733 24.6C625.733 24.6 625.333 24.6 625.033 24.8C624.533 25 623.833 25.3 623.233 25.7C623.333 25.6 623.333 25.5 623.333 25.5C623.333 25.5 623.432 25.5 623.432 25.4V25.2C623.632 24.8 623.833 24.4 624.133 24C624.433 23.6 624.533 23 624.533 23L625.833 22.3L629.432 21.5L631.833 21.6L631.533 23.2L630.133 26.1L628.932 28.7L627.533 30.3L626.432 31.3Z" fill="#543E26"/>
<path fill-rule="evenodd" clip-rule="evenodd" d="M632.333 24.2C632.333 24.2 630.933 26 630.533 26.2C630.833 25.7 632.332 22.4 632.932 21.5C632.832 21.4 632.633 21.4 633.033 19.8C632.733 20.6 632.533 21 632.333 21.2C632.033 21.4 632.033 21.3 631.833 21.3C631.833 21.2 631.933 21.2 631.833 21.1C631.833 21.1 630.633 21 629.833 21C629.033 21 627.433 21.4 626.533 21.8C625.833 22.1 625.433 22.1 625.133 22.3C624.833 22.5 624.733 22.7 624.633 22.8C624.533 22.9 624.032 23 623.932 23.2C623.832 23.4 623.633 23.6 623.633 23.6C623.633 23.6 623.633 23.7 623.733 23.7C623.733 23.7 624.132 23.5 624.432 23.3C624.932 23 625.532 22.7 625.932 22.5C627.132 22 627.533 22.1 628.033 22C628.633 21.9 629.432 21.7 629.932 21.7C630.432 21.7 631.533 21.7 631.733 21.7C631.633 21.8 631.533 21.9 631.633 22.2C631.633 22.3 631.532 22.4 631.432 22.7C631.132 23.4 630.732 24.5 630.432 25.1C630.032 25.9 629.632 26.6 629.432 27C629.232 27.4 628.733 28.5 628.333 29.1C627.833 29.7 627.633 30 627.533 30.2C627.433 30.3 626.332 31.1 626.432 31.4C626.632 31.3 627.833 30.9 628.633 29.9C629.533 28.9 629.633 28.3 630.333 27.8C631.033 27.3 631.533 26.4 631.833 25.7C632.033 25 631.933 24.8 632.333 24.2Z" fill="#806031"/>
<path fill-rule="evenodd" clip-rule="evenodd" d="M601.633 37.3C601.633 37.3 601.433 38.1 601.033 38.5C600.633 38.9 599.833 39.2 599.833 39.8C599.733 40.4 600.533 40.7 600.533 40.7C600.533 40.7 600.033 41.5 600.033 42C600.033 42.6 600.033 42.7 600.033 43.3C599.933 43.3 599.933 43.4 599.833 43.5C599.833 43.5 599.833 44 600.333 44.4C600.733 44.7 601.133 44.9 601.333 44.9C601.333 45 601.433 45 601.433 45.1C601.433 45.1 601.733 44.3 601.933 43.6C602.133 42.9 602.333 43 602.433 42C602.533 41 603.433 39.4 603.433 39.4L604.033 38L603.033 37.2L601.633 37.3Z" fill="#B6903C"/>
<path fill-rule="evenodd" clip-rule="evenodd" d="M603.533 38.7C603.333 38.9 603.133 39.1 602.933 39.4C602.633 39.8 602.433 40.1 602.033 40.3C601.633 40.5 601.333 40.4 601.433 40.8C601.533 41.2 601.833 41.4 602.033 41.6C602.233 41.8 602.433 42.2 602.333 42.6C602.433 42.5 602.733 42.5 602.933 42C603.133 41.5 604.633 38.8 604.633 38.8L603.533 38.7Z" fill="#685026"/>
<path fill-rule="evenodd" clip-rule="evenodd" d="M609.333 32.3C609.333 32.3 609.433 32 609.333 31.7C609.233 31.4 608.433 31.4 608.033 31.1C607.633 30.8 607.133 30.6 606.733 30.7C606.833 30.6 607.033 30.2 606.833 30.2C606.633 30.1 605.933 30.5 605.733 30.6C605.533 30.7 605.133 30.9 605.033 31C604.933 31.1 604.833 31.3 604.733 31.2C604.633 31.1 604.633 31 604.433 31.1C604.333 31.2 603.633 31.8 603.433 32.1C603.333 32.4 603.032 33.2 602.132 34C601.232 34.8 600.932 35.4 601.132 35.7C601.432 36 601.533 35.8 601.533 36.1C601.533 36.4 601.533 36.6 601.533 36.9C601.433 37.3 601.233 37.8 601.533 37.8C602.133 38 602.733 37.6 602.833 37.7C603.133 37.9 602.733 38.8 603.333 38.9C603.933 39.1 604.533 38.8 604.533 38.8L606.733 37.6L608.833 36.5L609.932 34.3L609.333 32.5V32.3Z" fill="#D4B968"/>
<path fill-rule="evenodd" clip-rule="evenodd" d="M607.232 37.4C607.232 37.4 606.833 36.8 607.333 36.3C607.833 35.8 608.432 35.6 608.732 35.3C608.732 35.2 608.633 35.2 608.533 35.2C608.733 34.9 608.932 34.7 609.232 34.5C609.132 34.4 608.932 34.3 608.732 34.3C608.332 34.3 608.032 34.6 607.632 34.6C607.232 34.6 607.232 34.4 607.232 34.4C607.232 34.4 607.833 34.3 607.833 34.1C607.733 33.8 607.632 33.8 607.632 33.8C607.632 33.8 608.833 33.3 609.033 33C609.233 32.7 609.232 32.4 609.232 32.3C609.332 32.3 610.233 31.9 610.533 32C610.833 32.2 610.632 32.7 610.632 32.7C610.632 32.7 611.632 31.9 612.132 31.2C612.632 31.2 612.832 30.9 613.132 30.9C613.532 30.9 614.233 31.5 614.333 32.7C614.433 33.4 614.532 33.8 614.432 35C614.332 35.7 614.432 37.2 614.632 37.9C614.732 38.5 615.132 38.4 615.132 38.4C615.032 38.6 614.933 38.7 614.833 38.9C614.633 39.1 614.532 39.7 614.632 39.9C614.632 40.1 614.733 40.2 614.733 40.4C614.733 40.4 614.432 40.7 614.432 40.9C614.332 41.1 614.132 41.3 613.932 41.3C613.732 41.3 613.833 41.3 613.533 41.3C613.233 41.3 613.133 41.4 613.033 41.3C612.933 41.2 612.733 41.2 612.833 40.6C612.933 40.1 610.733 38.8 610.733 38.8L607.232 37.4Z" fill="#CCA849"/>
<path fill-rule="evenodd" clip-rule="evenodd" d="M603.233 42.8C603.233 42.8 604.033 43.8 607.133 43.8C608.633 43.8 609.133 43.7 609.433 43.6C609.733 43.5 611.033 43 612.333 41.5C613.533 40.1 613.233 39.6 613.233 39.6L612.533 39.5L610.333 39.8L603.933 42.5L603.233 42.8Z" fill="#585136"/>
<path fill-rule="evenodd" clip-rule="evenodd" d="M605.633 43.1C605.633 43.1 602.933 43.7 602.933 42C602.933 40.3 604.633 38.5 605.033 38.2C605.433 37.9 606.533 37.5 606.533 37.5H609.033L609.533 38.8L609.333 41.6L605.633 43.1Z" fill="#252211"/>
<path fill-rule="evenodd" clip-rule="evenodd" d="M608.133 38C608.133 38 607.633 37.5 606.433 38.2C605.233 38.9 604.233 40.2 604.233 41.4C604.133 42.5 605.133 43.3 606.633 43.3C607.733 43.3 608.433 43.2 608.733 43.1C608.633 43 608.233 42.4 608.233 42.4L608.133 38Z" fill="#C3B378"/>
<path fill-rule="evenodd" clip-rule="evenodd" d="M607.632 38.3C607.632 38.3 607.532 38.2 607.132 38.4C606.832 38.6 606.333 39 606.033 39.3C605.833 39.5 605.633 39.6 605.533 39.7C605.033 40.3 604.533 41.4 604.833 41.9C605.133 42.4 605.933 43 608.033 42.6L607.632 38.3Z" fill="#E6D89C"/>
<path fill-rule="evenodd" clip-rule="evenodd" d="M606.933 39.3C606.933 39.3 606.633 39.8 606.633 40.7C606.633 41.6 607.133 42.9 608.933 43C610.333 43.1 611.233 41 612.233 40.2C613.033 39.6 613.432 39.6 613.432 39.6C613.432 39.6 612.633 38.8 610.633 37.7C608.633 36.6 606.333 36.5 605.033 38.1C605.633 38.1 607.533 37.6 607.533 37.6L608.433 37.9L606.933 39.3Z" fill="#252211"/>
<path fill-rule="evenodd" clip-rule="evenodd" d="M610.333 41.5C610.133 41.3 610.033 41 610.733 40.9C611.433 40.8 611.733 40.9 611.933 41.2C612.133 41.5 612.433 41.8 612.033 41.9C611.733 42.1 610.833 42 610.333 41.5ZM609.233 39.5C609.233 39.5 609.033 39.6 609.133 39.4C609.133 39.2 609.533 38.7 610.233 38.8C610.933 38.9 610.833 39.4 610.733 39.5C610.633 39.6 609.933 39.9 609.533 39.8C609.433 39.8 609.333 39.7 609.233 39.7C609.133 39.7 609.233 39.6 609.233 39.5Z" fill="#6F674D"/>
<path fill-rule="evenodd" clip-rule="evenodd" d="M586.233 39.8C586.233 39.8 586.933 40.3 587.633 40.3C588.433 40.3 589.433 39.5 589.833 39C590.133 38.7 590.333 38.4 590.633 38.1C590.833 37.9 591.033 37.8 591.133 37.6C591.233 37.4 591.433 37.1 591.533 37C591.333 37.1 591.033 37.4 590.833 37.6C590.533 37.8 589.933 38.1 589.733 38.2C589.533 38.3 587.133 39.5 587.133 39.5L586.233 39.8Z" fill="#AC924C"/>
<path fill-rule="evenodd" clip-rule="evenodd" d="M587.233 33.5C587.233 33.5 587.633 33.2 588.333 33.1C589.033 32.9 590.433 32.8 590.433 32.8L591.633 33.3L592.133 35L591.333 36.8L590.233 37.5L589.033 35.6L587.233 33.5Z" fill="#9F8E57"/>
<path fill-rule="evenodd" clip-rule="evenodd" d="M585.733 35.1L585.333 35.4C585.333 35.4 585.433 35.2 585.533 34.6C585.633 34 586.033 32.7 586.733 31.9C587.333 31.1 587.333 31.1 587.333 31.1C587.233 31.1 587.133 31.1 587.033 31.2C587.133 31 587.633 30.3 588.233 30C588.833 29.7 589.033 29.6 589.533 29.8C590.133 30.1 590.233 30.2 590.633 30.2C591.033 30.2 591.433 29.7 591.433 29.7C591.433 29.7 591.533 30 591.233 30.6C590.933 31.2 589.633 32.5 589.633 32.5L587.033 34.3L585.733 35.1Z" fill="#EAC970"/>
<path fill-rule="evenodd" clip-rule="evenodd" d="M587.633 33.3C587.633 33.3 589.533 33.6 590.033 33C590.033 33.1 590.133 33.1 590.133 33.1V33.2C590.233 33.2 590.233 33.2 590.333 33.2C590.433 33.2 590.533 33.2 590.533 33.2C590.633 33.2 590.633 33.2 590.733 33.2C590.733 33.3 590.633 33.4 590.633 33.4C590.733 33.4 590.833 33.4 590.833 33.5C590.833 33.6 590.833 33.8 590.733 33.8C590.633 33.8 590.533 33.8 590.433 33.8C590.433 34 590.533 34.1 590.533 34.3C590.733 34.6 591.033 35 591.533 34.9C591.533 34.9 591.833 35.5 590.733 36.9C590.633 37.1 590.433 37.3 590.233 37.6C590.133 37.8 590.133 37.9 590.033 38.1C590.033 38.1 591.833 37.4 592.333 35.8C592.833 34.2 592.933 32.6 592.833 31.2C592.833 30.8 592.733 30.5 592.633 30.3C592.333 29.8 591.633 29.9 591.333 30.2C590.933 30.6 590.233 31.6 589.233 32.4C588.433 32.9 588.433 33 587.633 33.3Z" fill="#D7BC6B"/>
<path fill-rule="evenodd" clip-rule="evenodd" d="M585.433 35.6C585.433 35.6 585.033 35.8 584.933 36.6C584.733 37.4 585.133 38.4 585.333 38.7C585.533 39 586.033 39.9 586.933 39.9C587.133 39.9 587.433 39.8 587.633 39.8C587.933 39.6 588.333 39.4 588.533 39.2C588.933 38.9 589.333 38.6 589.233 38.6C589.133 38.6 586.633 36.5 586.633 36.5L585.733 35.5L585.433 35.6Z" fill="#585136"/>
<path fill-rule="evenodd" clip-rule="evenodd" d="M587.733 39C587.733 39 588.233 39 588.533 38.8C588.833 38.6 586.833 36.6 586.833 36.6L586.933 38.8L587.733 39Z" fill="#453A25"/>
<path fill-rule="evenodd" clip-rule="evenodd" d="M585.533 35.4C585.533 35.4 585.233 35.9 585.233 36C585.233 36.4 585.333 37.7 585.433 38.1C585.533 38.5 586.133 39.2 586.833 39.2C587.233 39.2 587.933 38.9 587.933 38.9C587.933 38.8 587.333 38.7 587.133 38.4C587.033 38.2 587.033 37.8 586.933 37.4C586.933 37.1 586.933 36.8 587.033 36.7C587.233 36.4 587.333 35.7 587.333 35.7L588.133 34.2H587.033L585.733 35L585.533 35.4Z" fill="#84754B"/>
<path fill-rule="evenodd" clip-rule="evenodd" d="M585.233 35.9C585.233 35.9 586.033 34.8 586.833 34.5C587.633 34.2 587.933 34.4 587.933 34.4L587.533 35.5L586.933 36.2V36.6C586.933 36.6 586.833 37.5 587.433 38.2C588.033 38.9 588.533 38.8 588.833 38.8C589.133 38.8 589.933 38.6 590.233 37.6C590.633 36.7 590.933 35.6 590.133 34.5C589.433 33.4 588.233 33.3 587.933 33.3C587.833 33.3 585.933 33.4 585.233 35.9Z" fill="#252211"/>
<path fill-rule="evenodd" clip-rule="evenodd" d="M606.733 39.7C606.433 39.6 606.733 38.7 607.033 38.4C607.333 38.1 607.733 37.8 608.433 37.8C608.733 37.8 608.933 37.9 608.933 38.1C608.833 38.4 608.433 38.9 608.033 39.2C607.533 39.6 607.133 39.8 606.733 39.7Z" fill="#F7F7E7"/>
<path fill-rule="evenodd" clip-rule="evenodd" d="M589.833 34.9C590.033 34.9 590.333 35.1 590.433 35.3C590.533 35.6 590.333 36.1 589.833 36.1C589.433 36.1 589.333 35.7 589.333 35.5C589.333 35.4 589.333 35.3 589.433 35.2C589.433 35.2 589.433 34.9 589.833 34.9Z" fill="#F8F6DE"/>
<path fill-rule="evenodd" clip-rule="evenodd" d="M586.533 35.1C586.533 35.1 585.932 35.4 585.632 35.9C585.432 36.3 585.333 36.8 585.433 37.2C585.433 37.4 585.733 37.9 585.833 38.1C585.933 38.3 586.133 38.4 586.333 38.4C586.433 38.4 586.733 38 586.733 37.8C586.733 37.6 586.733 36.6 587.033 36.1C587.333 35.6 586.533 35.1 586.533 35.1Z" fill="#D4C38B"/>
<path fill-rule="evenodd" clip-rule="evenodd" d="M586.633 35C586.533 35.1 586.333 35.1 586.433 35.3C586.433 35.4 586.833 35.5 586.933 35.7C587.033 36 587.033 36.2 587.033 36.4C587.133 36.3 587.233 36.3 587.333 36.2C587.533 36 587.733 35.7 587.933 35.7C588.033 35.7 588.233 35.8 588.333 35.8C588.533 35.8 588.733 35.7 588.733 35.5C588.733 35.2 588.333 35 588.133 35.1C588.133 34.9 588.233 34.7 588.033 34.5C587.833 34.3 587.233 34.6 587.133 34.7C587.033 34.7 586.633 35 586.633 35Z" fill="#E2D59D"/>
<path fill-rule="evenodd" clip-rule="evenodd" d="M600.033 52.8L601.333 52.4L601.733 52.7C601.733 52.7 602.033 53.2 602.433 53.3C602.333 53.6 601.933 53.8 602.033 54C602.033 54.2 602.233 54.3 602.233 54.3C602.233 54.3 601.133 56.2 603.333 58C602.833 58.2 602.133 58.5 601.733 58.7C602.033 58.8 602.533 58.9 602.733 59.1C602.933 59.3 602.933 59.4 603.133 59.5C603.333 59.6 603.433 59.8 603.433 59.9C603.333 59.8 602.833 59.6 602.733 59.8C602.633 60 600.633 59.9 600.633 59.9L597.233 60.6C597.233 60.6 597.333 60.3 597.033 59.9C596.633 59.5 596.133 59.9 595.533 59.5C594.833 59 594.833 58.3 594.533 58.1C594.733 58 595.233 57.7 596.333 57.6C596.333 57.5 596.133 57.3 596.233 57C596.333 56.7 596.733 56.5 596.633 56.2C596.833 56.2 596.933 56.2 597.333 55.6C597.733 55 598.033 54.9 598.433 54.8C598.733 54.8 598.933 54.8 599.633 54.2C600.033 53.8 599.933 53.4 599.933 53.4C599.933 53.4 600.133 53.4 600.033 52.8Z" fill="#CBAC5A"/>
<path fill-rule="evenodd" clip-rule="evenodd" d="M596.333 53C596.333 52.9 596.433 52.9 596.833 52.9C597.333 52.9 600.233 52.6 600.933 52.6C601.733 52.5 604.533 52.6 605.933 52.9C607.333 53.2 608.633 53.5 609.333 53.7C610.033 53.9 610.233 54 610.233 54C610.233 54.1 610.033 54.2 609.933 54.1C609.833 54.1 607.633 53.4 606.933 53.3C606.233 53.2 603.833 52.8 602.533 52.8C601.333 52.8 600.833 52.8 599.833 52.9C598.833 53 597.133 53.2 596.633 53.1C596.233 53.1 596.333 53.1 596.333 53Z" fill="#D6BC6F"/>
<path fill-rule="evenodd" clip-rule="evenodd" d="M603.233 59.7C603.233 59.7 604.933 60.6 605.633 61.8C606.133 62.7 605.333 63.1 605.333 63.1C605.333 63.1 606.333 63.1 606.233 63.6C606.133 63.9 604.533 64.9 603.433 65.3C602.333 65.8 602.333 65.8 601.833 65.8C601.333 65.9 599.833 65.6 599.533 66.1C599.233 66.5 599.333 67 599.433 67C599.533 67.1 600.233 67.1 600.233 67.1C600.233 67.1 600.133 67.5 598.633 67.5C597.233 67.5 596.833 67.6 596.733 67.8C596.633 67.9 597.033 67.9 597.633 68C598.333 68.1 599.233 68.2 599.233 68.2C599.233 68.2 598.933 68.5 598.133 68.7C597.233 68.9 595.833 69.1 595.433 69.4C595.633 69.5 595.933 69.8 596.133 69.8C595.733 69.9 595.233 70.1 595.233 70.1C595.333 70.2 595.533 70.3 595.533 70.3C595.533 70.3 594.833 71.2 594.433 71.4C594.033 71.6 591.633 72.7 590.833 72.5C588.733 72 588.533 69.7 588.033 69.5C587.233 69.2 586.933 69.8 586.233 69.4C586.533 69.2 586.733 69.1 587.033 68.9C586.733 68.7 584.933 67.6 584.933 67.6C584.733 67.2 584.533 66.8 584.333 66.4C584.033 65.8 583.533 65 583.133 64.3C582.333 62.8 582.233 62.1 581.533 61.2C581.633 61 582.133 61.1 582.133 61.1L588.333 63.1L599.333 63.4L602.133 59.3L603.233 59.7Z" fill="#DFC677"/>
<path fill-rule="evenodd" clip-rule="evenodd" d="M586.933 65.9C587.033 66 587.033 66 587.133 66.1C587.333 66.2 587.633 66.4 587.833 66.7C587.933 66.6 588.133 66.3 588.533 66.7C588.933 67.1 589.333 66.8 589.633 66.9C589.933 67 589.933 67 589.933 67C589.933 67 590.133 66.9 590.433 66.7C590.633 66.6 590.933 66.6 591.233 66.5C591.533 66.4 591.833 66.4 592.033 66.4C592.233 66.5 592.933 67.2 595.533 66.2C598.033 65.2 598.633 65.1 599.033 65.3C599.033 65.2 599.133 65 599.733 65C599.733 64.7 599.233 63.8 599.233 63.8L596.233 62.8H594.833L589.933 63.7L587.233 65.3L586.933 65.9Z" fill="#C4A859"/>
<path fill-rule="evenodd" clip-rule="evenodd" d="M585.333 64.1C585.333 64.1 585.433 64.6 586.033 65C586.733 65.5 586.933 65.8 586.933 65.8C586.933 65.8 587.033 65.6 587.133 65.5C587.233 65.3 587.333 65.1 587.533 65C587.833 64.9 588.633 65.1 588.833 65.1C588.933 65.1 588.933 64.8 589.133 64.8C589.533 64.8 589.733 65 589.833 65C589.933 65 590.233 65 590.333 64.9C590.333 64.8 590.433 64.1 590.833 63.8C591.333 63.4 592.033 63.6 592.133 63.7C592.133 63.8 592.133 64.1 592.533 64.2C592.933 64.3 592.933 64.2 593.233 64.3C593.533 64.4 593.933 64.3 594.033 64.8C594.133 64.8 594.533 64.7 594.433 64.2C594.633 64.1 594.733 64 595.133 63.5C595.233 63.4 595.333 63.2 595.433 63C595.733 63 596.133 62.9 596.533 63.4C596.433 63.5 596.333 63.6 596.233 63.7C596.333 63.8 596.433 64 596.533 64.1C596.633 64.3 596.733 64.5 596.933 64.5C597.333 64.6 597.833 64.5 598.533 64.5C599.133 64.5 599.733 64.8 599.933 64.9C600.033 64.9 600.033 64.8 600.233 64.9C600.433 64.9 600.633 65 600.333 64.7C600.433 64.8 600.633 64.9 600.733 64.8C600.833 64.7 600.933 64.5 601.333 64.4C601.733 64.4 601.833 64.4 601.933 64C602.133 63.5 601.433 63.5 601.433 63.5C601.433 63.5 601.733 63.2 602.033 62.9C602.433 62.5 602.933 62 603.033 61.5C603.233 60.4 602.133 60.3 602.133 60.3L596.933 61.9L590.633 61.6L585.333 64.1Z" fill="#927D49"/>
<path fill-rule="evenodd" clip-rule="evenodd" d="M580.633 49.2C580.633 49.2 580.433 49.4 580.333 49.9C580.233 50.4 580.233 50.3 580.233 50.7C580.133 51.1 579.133 54.6 579.533 55.8C579.933 57 580.633 57.4 581.033 58.4C581.133 58.6 581.233 58.7 581.233 58.9C581.333 59.5 581.233 60 581.433 60.6C581.533 60.8 581.633 61.1 581.833 61.3C582.333 61.8 583.133 62.3 583.533 62.7C584.033 63.2 584.733 64.3 585.633 64.4C586.133 64.5 586.833 64.3 587.333 63.9C587.833 63.6 588.133 63.1 588.633 62.9C589.033 62.7 589.433 62.6 589.733 62.6C590.433 62.5 591.133 62.4 591.533 62.5C592.133 62.6 593.633 63.1 594.333 63.1C594.933 63.1 595.533 63 596.133 62.8C597.333 62.4 598.833 61.8 599.733 61.6C600.333 61.4 600.733 61.4 601.233 61.3C602.033 61.1 602.733 60.9 603.033 60.4C602.733 60.1 602.433 59.6 600.733 59.7C598.833 59.7 596.633 60.8 595.533 61C594.433 61.2 593.933 61.3 592.733 60.9C591.533 60.5 591.533 60.2 591.533 60.2C591.533 60.2 590.233 59.3 589.733 57.1C589.233 54.9 589.733 53.2 591.133 51.7C591.533 51.3 591.433 50.9 591.433 50.9C591.433 50.9 592.333 49.7 592.133 48.6C591.833 47.5 590.133 47.7 590.133 47.7L580.633 49.2Z" fill="#6E6342"/>
<path fill-rule="evenodd" clip-rule="evenodd" d="M582.133 53C582.033 53.1 582.033 53.3 582.033 53.5C582.033 53.7 582.133 54 582.833 54.7C583.433 55.3 583.333 55.9 583.333 55.9C583.333 55.9 583.633 56 584.433 55.6C585.033 55.3 585.233 55.8 585.233 55.8C585.433 55.7 585.633 55.6 585.833 55.6C586.033 55.6 586.233 55.5 586.333 55.4C586.333 55.4 587.033 56.2 587.733 56.5C588.333 56.8 588.633 57 588.933 56.8C589.233 56.6 589.233 56.2 589.233 56.1C589.133 55.9 589.033 55.8 588.933 55.7C588.733 55.4 588.433 55.1 588.433 54.9C588.433 54.3 588.833 53.6 588.733 53.5C588.633 53.3 588.233 53.3 587.333 53.6C586.333 53.8 582.133 53 582.133 53Z" fill="#39331F"/>
<path fill-rule="evenodd" clip-rule="evenodd" d="M584.333 56.7C584.333 56.7 583.833 56.2 584.033 54C584.233 54 584.433 54 584.633 54.1C584.633 54.1 584.933 55.8 584.333 56.7Z" fill="#292311"/>
<path fill-rule="evenodd" clip-rule="evenodd" d="M580.933 47.5C581.033 47.5 581.033 47.4 581.133 47.3C580.933 47.6 580.233 48.9 580.833 50.8C581.433 52.8 583.033 54.2 584.933 54.3C586.833 54.4 587.933 53.4 589.033 52C589.533 51.4 590.033 50.7 590.433 50.2C591.133 49.4 591.633 49.2 591.633 48.5C591.633 47 590.133 46.3 587.833 45.7C585.633 45 583.533 45.1 582.533 45.6C581.633 46.1 581.133 46.7 580.933 47.5Z" fill="#252211"/>
<path fill-rule="evenodd" clip-rule="evenodd" d="M588.133 57.4L588.333 57.3C588.333 57.3 588.333 56.6 588.633 56.6C588.933 56.6 589.033 57 589.033 57.1C589.033 57.2 588.933 57.4 588.633 57.4C588.233 57.5 588.133 57.4 588.133 57.4Z" fill="#3F3824"/>
<path fill-rule="evenodd" clip-rule="evenodd" d="M587.333 54.6C587.333 54.6 587.533 54.5 587.733 54.7C587.933 54.7 588.633 54.6 588.833 54.8C589.033 54.9 589.133 55.1 589.133 55.1C589.133 55.1 588.233 55.3 587.833 55.1C587.333 54.9 587.333 54.6 587.333 54.6Z" fill="#2D2815"/>
<path fill-rule="evenodd" clip-rule="evenodd" d="M591.133 54.7C591.133 54.7 590.633 54.3 590.233 54.2C590.133 54.2 590.133 54.2 590.033 54.2L589.933 54.1L589.633 54.2C589.633 54.2 589.633 54.3 589.733 54.4C589.833 54.5 590.033 54.6 590.133 54.8C590.233 55 590.233 55 590.233 55.1C590.233 55.1 590.533 55.1 590.733 55C590.933 54.9 591.133 54.7 591.133 54.7Z" fill="#82764F"/>
<path fill-rule="evenodd" clip-rule="evenodd" d="M586.833 56.4C586.833 56.4 586.933 55.8 587.533 55.8C588.133 55.8 588.233 56.3 588.233 56.3L587.933 56.6C587.833 56.7 587.633 56.3 586.833 56.4Z" fill="#2D2816"/>
<path fill-rule="evenodd" clip-rule="evenodd" d="M590.533 53.9C590.533 53.9 590.233 54.2 589.533 54.3C589.433 54.2 589.333 54 589.533 53.8C589.733 53.5 589.932 53.4 590.132 53.5C590.332 53.6 590.533 53.7 590.533 53.9Z" fill="#574F35"/>
<path fill-rule="evenodd" clip-rule="evenodd" d="M591.933 55.8C591.933 55.6 591.833 55.6 591.933 55.5C592.033 55.4 592.333 55.2 592.433 55.3C592.433 55.3 592.433 55.5 592.433 55.7C592.433 55.9 592.433 56.1 592.333 56.2C592.233 56.4 592.033 56.5 591.833 56.4C591.733 56.3 591.633 56.1 591.633 56C591.733 56 591.933 55.9 591.933 55.8ZM594.033 53.6C594.033 53.5 594.233 53.3 594.333 53.3C594.533 53.3 594.533 53.5 594.533 53.6C594.633 53.6 594.633 53.6 594.633 53.7C594.733 53.9 594.833 54.2 594.733 54.4C594.633 54.6 594.433 54.7 594.333 54.7C594.333 54.6 594.033 53.7 594.033 53.6Z" fill="#82764F"/>
<path fill-rule="evenodd" clip-rule="evenodd" d="M590.333 54.5C590.333 54.5 590.533 54.5 590.733 54.8C590.633 54.9 590.533 54.9 590.533 54.9C590.533 54.9 590.533 54.7 590.333 54.5Z" fill="#6E6342"/>
<path fill-rule="evenodd" clip-rule="evenodd" d="M589.933 52.7C589.833 52.7 590.133 52.6 590.333 52.6C590.533 52.6 590.533 52.7 590.733 52.7C590.933 52.7 590.933 52.7 591.033 52.6C591.133 52.6 591.333 52.6 591.333 52.6C591.333 52.6 591.333 52.6 591.433 52.7C591.433 52.6 591.533 52.6 591.533 52.5C591.633 52.5 591.733 52.4 591.933 52.5C591.933 52.6 592.133 52.8 592.033 52.8C591.933 52.8 591.633 52.9 591.533 52.9C591.633 53 591.933 53.2 591.933 53.3C591.933 53.3 591.633 53.4 591.533 53.4C591.333 53.3 590.133 52.8 589.933 52.7ZM591.733 51.2L591.633 51.1C591.533 51.1 591.233 51.1 591.233 51.2C591.233 51.3 591.533 51.9 591.833 52.2C592.133 52.5 592.433 52.8 592.633 52.8C592.833 52.8 592.933 52.8 593.033 52.7C593.033 52.7 593.133 52.3 593.133 51.6C593.133 50.9 593.033 50.1 593.033 50.1C592.933 50.1 592.733 50.1 592.633 50.1C592.433 50.3 591.833 51.1 591.733 51.2Z" fill="#585136"/>
<path fill-rule="evenodd" clip-rule="evenodd" d="M590.333 55.6C590.333 55.6 590.033 55.4 589.733 55.5C589.433 55.6 589.433 56.1 589.433 56.1C589.533 56.1 589.733 56.1 589.833 56.1C590.033 56 590.233 55.8 590.333 55.6Z" fill="#574F35"/>
<path fill-rule="evenodd" clip-rule="evenodd" d="M590.833 56.2C590.833 56 590.633 56 590.633 55.9C590.633 55.8 590.733 55.8 590.833 55.8C590.933 55.8 591.033 55.9 591.133 56C591.233 56.1 591.433 56.2 591.433 56.3C591.433 56.4 591.233 56.8 591.033 56.8C590.833 56.8 590.933 56.4 590.833 56.2ZM592.533 56C592.533 56 592.233 56.1 592.233 56C592.233 55.9 592.333 55.9 592.433 55.9C592.533 55.8 592.533 55.8 592.633 55.8H592.733C592.733 55.8 592.933 55.7 593.033 55.8C593.133 55.9 593.033 55.9 593.133 55.9C593.233 56 593.233 56.1 593.233 56.2C593.233 56.3 592.933 56.4 592.733 56.4C592.533 56.3 592.533 56.1 592.533 56ZM594.433 55.6C594.433 55.6 594.533 55.7 594.433 55.7C594.333 55.8 594.033 55.9 593.833 55.9C593.533 55.9 593.333 55.9 593.333 55.9C593.333 55.8 593.533 55.6 593.633 55.6C593.733 55.5 593.733 55.5 593.833 55.5C593.933 55.5 594.333 55.5 594.433 55.4C594.533 55.4 594.633 55.4 594.533 55.5C594.633 55.6 594.433 55.6 594.433 55.6ZM595.033 53C595.033 53 594.933 53.3 594.733 53.3C594.633 53.3 594.633 53.2 594.633 53.2C594.633 53.1 594.733 53 594.733 52.9C594.733 52.9 594.633 52.9 594.633 52.8C594.633 52.7 594.733 52.6 594.933 52.6C595.033 52.5 595.133 52.5 595.233 52.5C595.333 52.5 595.533 52.5 595.533 52.6C595.533 52.7 595.333 52.9 595.333 52.9C595.233 53 595.133 53.1 595.033 53ZM593.133 58C593.133 58 592.933 58 592.933 58.1C592.933 58.1 592.933 58.1 593.033 58.1H593.133C593.133 58.1 593.133 58.2 593.233 58.2C593.333 58.2 593.433 58.2 593.533 58.1C593.633 58.1 593.733 58 593.733 57.9C593.733 57.8 593.633 57.7 593.433 57.7C593.333 57.7 593.333 57.7 593.233 57.7C593.233 57.7 593.233 57.6 593.033 57.7C592.933 57.8 592.933 57.8 592.933 57.8C593.133 58 593.133 58 593.133 58ZM592.133 58.9C592.133 58.9 592.333 58.8 592.433 58.8C592.533 58.8 592.633 59.1 592.633 59.2C592.633 59.2 592.433 59.3 592.333 59.3C592.233 59.3 592.133 59.2 592.133 59.1C592.133 59.1 592.233 59.1 592.233 59C592.233 59 592.133 58.9 592.133 58.9ZM591.533 57.7C591.533 57.7 591.533 57.6 591.633 57.6H591.733C591.733 57.5 591.833 57.5 591.833 57.5C591.933 57.5 592.033 57.5 592.033 57.5C592.033 57.6 592.133 57.7 592.133 57.8C592.133 57.9 592.033 58 591.833 58.1C591.633 58.2 591.333 58.2 591.333 58.1C591.333 58.1 591.233 57.9 591.333 57.8C591.433 57.7 591.433 57.7 591.533 57.7Z" fill="#82764F"/>
<path fill-rule="evenodd" clip-rule="evenodd" d="M591.833 57.7C591.833 57.7 591.633 57.8 591.633 57.9C591.633 57.9 591.633 58 591.633 58.1C591.633 58.1 591.933 58.1 591.933 58C591.933 58 591.833 57.8 591.833 57.7Z" fill="#6E6342"/>
<path fill-rule="evenodd" clip-rule="evenodd" d="M590.533 57.3C590.633 57.3 590.733 57.3 590.833 57.3C590.933 57.3 590.933 57.4 590.933 57.5C590.833 57.6 590.733 57.8 590.533 57.7C590.333 57.7 590.133 57.6 590.133 57.5C590.133 57.4 590.133 57.3 590.233 57.2C590.333 57.2 590.333 57.3 590.533 57.3Z" fill="#585136"/>
<path fill-rule="evenodd" clip-rule="evenodd" d="M590.433 57.4C590.433 57.4 590.132 57.6 590.132 57.7C590.032 57.8 589.633 58.3 589.533 58.4C589.533 58.3 589.632 58.3 589.632 58.2C589.432 58.3 589.333 58.5 589.233 58.7C589.133 59 589.833 59.2 590.233 59.3C590.633 59.4 590.833 59.5 590.833 59.5C590.633 59.3 590.533 59 590.433 58.7C590.233 58.3 590.133 58.3 590.333 58.1C590.433 57.9 590.533 57.8 590.533 57.6C590.433 57.5 590.433 57.4 590.433 57.4Z" fill="#574F35"/>
<path fill-rule="evenodd" clip-rule="evenodd" d="M580.733 58.1C580.833 58.1 580.833 58.1 580.933 58.1C581.033 58.1 582.333 57.6 583.733 57.7C584.733 57.8 585.833 57.9 586.833 58.2C588.533 58.7 590.733 59.6 592.133 60.1C592.533 60.2 592.833 60.5 593.133 60.6C594.233 61 594.233 61 594.833 61.1C595.533 61.2 596.333 61 597.133 60.8C598.133 60.6 599.733 60.5 601.233 60.3C601.733 60.2 602.133 60.1 602.633 60C602.633 60 601.433 61.2 598.733 61.6C597.633 61.8 596.433 61.8 595.333 61.6C594.433 61.5 593.833 61.4 593.433 61.3C592.933 61.2 591.933 60.8 590.633 60.5C589.733 60.3 588.733 60.1 587.633 59.9C584.833 59.2 581.833 58.7 580.733 58.1Z" fill="#252211"/>
<path fill-rule="evenodd" clip-rule="evenodd" d="M577.633 52.8C576.933 53.4 576.233 53.9 575.533 54.4L573.433 56C572.733 56.5 572.033 57.1 571.333 57.6C570.633 58.1 569.933 58.6 569.133 59.1C569.833 58.5 570.533 58 571.233 57.5C571.933 57 572.733 56.5 573.333 56L575.433 54.4C576.233 53.9 576.933 53.4 577.633 52.8ZM573.933 58.8C573.933 58.8 574.733 58.2 575.633 57.3C576.833 56.2 578.233 54.8 578.733 54.6L573.933 58.8Z" fill="#CFB66C"/>
<path fill-rule="evenodd" clip-rule="evenodd" d="M573.933 58.8C574.333 58.4 574.733 58.1 575.133 57.7L575.733 57.2C575.933 57 576.133 56.8 576.333 56.7C576.733 56.3 577.033 55.9 577.433 55.5C577.633 55.3 577.833 55.1 578.033 55C578.133 54.9 578.233 54.8 578.333 54.8C578.433 54.7 578.533 54.6 578.733 54.6C578.633 54.7 578.533 54.8 578.433 54.9C578.333 55 578.233 55.1 578.133 55.2C577.933 55.4 577.733 55.6 577.533 55.7C577.133 56 576.733 56.4 576.333 56.7C575.933 57.1 575.533 57.4 575.133 57.8C574.733 58.1 574.333 58.4 573.933 58.8ZM578.933 55.4C578.933 55.4 576.133 58.1 575.633 58.5L578.933 55.4Z" fill="#CFB66C"/>
<path fill-rule="evenodd" clip-rule="evenodd" d="M578.933 55.4C578.733 55.7 578.433 56 578.133 56.2L577.333 57C577.033 57.3 576.833 57.5 576.533 57.8C576.233 58.1 575.933 58.3 575.633 58.5L576.433 57.7C576.733 57.4 577.033 57.2 577.333 56.9L578.133 56.1C578.433 55.9 578.633 55.6 578.933 55.4ZM579.133 56.8C578.833 57.5 578.533 58.2 578.233 58.9C577.533 60.3 576.433 62.1 576.033 63L579.133 56.8Z" fill="#CFB66C"/>
<path fill-rule="evenodd" clip-rule="evenodd" d="M579.133 56.9C579.133 57.2 579.033 57.5 578.933 57.8C578.833 58.1 578.733 58.3 578.633 58.6C578.533 58.9 578.333 59.1 578.233 59.4C578.133 59.6 577.933 59.9 577.833 60.2L576.933 61.7C576.633 62.2 576.333 62.7 576.033 63.2C576.233 62.7 576.533 62.1 576.833 61.6C577.133 61.1 577.433 60.6 577.633 60.1C577.733 59.8 577.933 59.6 578.033 59.3C578.133 59 578.333 58.8 578.433 58.5C578.533 58.2 578.633 58 578.833 57.7C578.833 57.4 578.933 57.1 579.133 56.9Z" fill="#CFB66C"/>
<path fill-rule="evenodd" clip-rule="evenodd" d="M582.133 63.8C582.133 63.8 581.333 64.9 581.333 66.3C581.633 65.6 581.933 64.5 582.133 63.8ZM582.933 64.9C582.933 64.9 582.633 67.9 582.433 69.4C582.733 67.7 582.833 67.8 582.933 64.9ZM588.433 69.6C588.433 69.6 587.133 73.3 587.133 74.3C587.433 73.3 588.033 71.1 588.433 69.6Z" fill="#DEC270"/>
<path fill-rule="evenodd" clip-rule="evenodd" d="M591.433 63.6C591.433 63.6 593.433 67 595.033 69.8C594.533 68.4 593.633 65.7 591.433 63.6Z" fill="#CBAF59"/>
<path fill-rule="evenodd" clip-rule="evenodd" d="M596.833 68.5C597.933 70.5 598.933 72.5 599.833 74.6C599.733 73.2 599.233 70.7 596.833 68.5Z" fill="#E3C677"/>
<path fill-rule="evenodd" clip-rule="evenodd" d="M612.932 73.5C613.232 73.3 613.933 72.1 614.533 71.8C615.133 71.5 615.533 71.4 616.133 70.9C616.633 70.3 616.832 69.9 617.932 69.4C619.532 68.7 618.432 67.8 618.432 67.8C618.632 67.6 618.833 67.5 619.033 67.3C619.433 67 619.932 66.6 619.932 65.9C619.832 64.8 619.633 63.1 618.733 62.2C619.633 62 621.332 61.9 622.432 61.6C623.632 61.3 624.233 60.8 624.233 60.8C624.233 60.8 623.533 59.6 624.633 58.4C625.833 57.2 626.732 56.5 627.432 55.1C626.632 55 625.433 54.6 622.333 55.8C622.533 55.9 622.633 56 622.833 56.1C622.833 56.1 620.933 56.6 620.233 57.2C619.033 58.2 618.833 59.1 617.533 59.7C616.233 60.3 614.933 60.2 613.833 60.7C612.733 61.2 612.533 61.6 612.133 61.8C612.233 61.9 612.133 62.1 612.233 62.2C612.133 62.3 611.532 63.3 610.932 63.3C611.032 63.5 611.533 63.7 611.533 63.7C611.533 63.7 611.133 64 610.233 64C610.733 64.5 611.132 65.1 612.432 65.8C612.332 66 611.933 66.3 612.033 66.7C612.233 67.1 612.733 67.6 614.633 68.1C613.633 68.1 612.532 68.4 610.932 68.2C609.332 68 609.133 67.9 608.133 68.1C608.233 68.2 608.533 68.2 608.733 68.5C608.433 68.5 606.933 68.3 606.333 69C605.733 69.7 605.533 70.9 605.533 71.8C605.233 71.9 604.933 72.2 605.133 72.7C605.233 73.2 606.033 73.4 606.533 73.7C607.033 74.1 607.033 74.2 607.533 74.1C608.033 74 608.733 73.5 609.133 73.5C609.533 73.5 609.833 73.8 609.833 73.8C609.833 73.8 610.933 73.3 611.033 73.4C611.133 73.5 611.033 74.2 611.133 74.3C611.333 74.4 612.632 73.7 612.932 73.5Z" fill="#ECD592"/>
<path fill-rule="evenodd" clip-rule="evenodd" d="M637.633 39.5C632.333 25.8 619.233 23.3 619.233 23.3H581.833L581.933 37.2H589.333V68.3H581.833V82.2H618.133C626.933 82.2 633.932 73.4 633.932 73.4C645.132 57.5 637.633 39.5 637.633 39.5ZM618.333 64.1C618.333 64.1 615.533 68.2 612.333 68.2H606.133L606.033 37.3H614.033C614.033 37.3 617.733 38.1 620.333 45.4C620.233 45.4 623.733 55.8 618.333 64.1Z" fill="white" fill-opacity="0.8"/>
</svg>
