<svg width="662" height="104" viewBox="0 0 662 104" fill="none" xmlns="http://www.w3.org/2000/svg">
<path fill-rule="evenodd" clip-rule="evenodd" d="M51.9 103.9C80.6 103.9 103.8 80.7 103.8 52C103.8 23.3 80.6 0.100006 51.9 0.100006C23.3 0.100006 0 23.3 0 52C0 80.7 23.3 103.9 51.9 103.9Z" fill="#6B71D6"/>
<path fill-rule="evenodd" clip-rule="evenodd" d="M52.7 18.4C52.5 18.8 48 26.5 42.6 35.6C37.2 44.7 32.7 52.2 32.7 52.4C32.7 52.6 35.6 54.4 43 58.9L53.4 65.1L63.8 58.9C71.3 54.4 74.2 52.6 74.1 52.4C73.7 51.4 53.5 17.8 53.2 17.8C52.9 17.8 52.8 18.1 52.7 18.4ZM32.6 56.9C33 57.6 53.2 86.3 53.3 86.3C53.4 86.3 74.1 56.8 74 56.7C73.9 56.6 54.6 68.1 53.8 68.7L53.3 69.1L43.3 63.1C37.8 59.8 33.1 57 32.8 56.8C32.5 56.5 32.5 56.5 32.6 56.9Z" fill="#E9ECFF"/>
<path fill-rule="evenodd" clip-rule="evenodd" d="M237.7 103.9C266.4 103.9 289.6 80.7 289.6 52C289.6 23.3 266.4 0.100006 237.7 0.100006C209 0.100006 185.8 23.3 185.8 52C185.8 80.7 209.1 103.9 237.7 103.9Z" fill="#F7931A"/>
<path fill-rule="evenodd" clip-rule="evenodd" d="M250.1 46.1C248.7 51.8 239.5 49 236.5 48.3L239 38.2C241.9 38.9 251.5 40.1 250.1 46.1ZM248.6 62.3C247.1 68.6 236 65.3 232.4 64.5L235.2 53.4C238.8 54.2 250.2 55.8 248.6 62.3ZM260.5 46.1C261.4 40 256.5 36.8 249.8 34.6L251.9 26.3L246.6 25.1L244.6 33.2C243.2 32.9 241.8 32.6 240.4 32.3L242.4 24.2L237.1 23L235 31.3C233.9 31.1 232.7 30.9 231.6 30.6L224.3 28.9L223 34.3C223 34.3 226.9 35.1 226.8 35.2C228.9 35.7 229.3 37.1 229.3 38.1L227 47.5C227.2 47.6 227.4 47.6 227.5 47.7C227.3 47.6 227.2 47.6 227 47.6L223.8 60.8C223.4 61.8 222.4 62.3 221.4 62C221.5 62.1 217.5 61.1 217.5 61.1L215 66.9L221.9 68.4C223.2 68.7 224.4 69 225.6 69.3L223.5 77.7L228.8 78.9L230.9 70.6C232.4 71 233.8 71.3 235.1 71.6L233 79.9L238.3 81.1L240.4 72.7C249.4 74.2 256.2 73.5 258.9 65.7C261.1 59.4 258.7 55.9 253.9 53.5C257.3 52.7 259.8 50.6 260.5 46.1Z" fill="white"/>
<path fill-rule="evenodd" clip-rule="evenodd" d="M423.6 103.9C452.3 103.9 475.5 80.7 475.5 52C475.5 23.3 452.3 0.100006 423.6 0.100006C394.9 0.100006 371.7 23.3 371.7 52C371.6 80.7 394.9 103.9 423.6 103.9Z" fill="#2FCF6E"/>
<path fill-rule="evenodd" clip-rule="evenodd" d="M430.9 40.2C432.7 45.7 423.4 48.3 420.5 49.3L417.4 39.5C420.2 38.5 429 34.5 430.9 40.2ZM438.2 54.7C440.2 60.8 429.1 63.9 425.6 65.1L422.1 54.3C425.6 53.1 436.1 48.3 438.2 54.7ZM424.6 30.7L422 22.6L416.9 24.4L419.5 32.3C418.1 32.8 416.8 33.3 415.5 33.8L412.9 25.9L407.7 27.7L410.3 35.8C409.2 36.2 408.1 36.6 407 37L400 39.5L401.7 44.7C401.7 44.7 405.5 43.3 405.4 43.4C407.5 42.7 408.5 43.6 409 44.5L412 53.7C412.2 53.6 412.4 53.6 412.6 53.6C412.4 53.7 412.3 53.7 412.1 53.8L416.3 66.6C416.5 67.6 415.9 68.6 414.9 68.9C415 68.9 411.1 70.2 411.1 70.2L412 76.4L418.6 74C419.8 73.6 421.1 73.1 422.2 72.8L424.8 80.9L429.9 79.1L427.3 71C428.8 70.6 430.1 70.1 431.4 69.6L434 77.6L439.1 75.8L436.4 67.6C444.9 64.1 450.2 60 448.4 51.9C447 45.5 443.1 43.7 437.7 44.3C440.3 41.8 441.3 38.6 439.5 34.5C437.2 29.1 431.4 29 424.6 30.7Z" fill="white"/>
<path d="M661.05 52C661.05 80.5619 637.962 103.65 609.4 103.65C580.838 103.65 557.75 80.5619 557.75 52C557.75 23.4381 580.838 0.350006 609.4 0.350006C637.962 0.350006 661.05 23.4381 661.05 52Z" fill="white" stroke="black" stroke-width="0.5"/>
<path d="M626.906 30.35H633.31L618.92 45.2262L618.918 45.2283C613.915 50.5261 605.675 50.7243 600.374 45.7207L600.373 45.7197L600.372 45.7185L600.371 45.7174L600.37 45.7162L600.369 45.7151L600.367 45.7139L600.366 45.7128L600.365 45.7116L600.364 45.7105L600.363 45.7093L600.362 45.7082L600.361 45.707L600.359 45.7059L600.358 45.7048L600.357 45.7036L600.356 45.7025L600.355 45.7014L600.354 45.7002L600.353 45.6991L600.352 45.698L600.35 45.6969L600.349 45.6957L600.348 45.6946L600.347 45.6935L600.346 45.6924L600.345 45.6913L600.344 45.6902L600.343 45.6891L600.342 45.6879L600.34 45.6868L600.339 45.6857L600.338 45.6846L600.337 45.6835L600.336 45.6824L600.335 45.6813L600.334 45.6803L600.333 45.6792L600.332 45.6781L600.331 45.677L600.329 45.6759L600.328 45.6748L600.327 45.6737L600.326 45.6727L600.325 45.6716L600.324 45.6705L600.323 45.6694L600.322 45.6684L600.321 45.6673L600.32 45.6662L600.319 45.6652L600.318 45.6641L600.317 45.663L600.316 45.662L600.314 45.6609L600.313 45.6599L600.312 45.6588L600.311 45.6578L600.31 45.6567L600.309 45.6557L600.308 45.6546L600.307 45.6536L600.306 45.6525L600.305 45.6515L600.304 45.6504L600.303 45.6494L600.302 45.6484L600.301 45.6473L600.3 45.6463L600.299 45.6452L600.298 45.6442L600.297 45.6432L600.296 45.6422L600.295 45.6411L600.294 45.6401L600.293 45.6391L600.292 45.6381L600.291 45.637L600.29 45.636L600.289 45.635L600.288 45.634L600.287 45.633L600.286 45.632L600.285 45.631L600.284 45.63L600.283 45.6289L600.282 45.6279L600.281 45.6269L600.28 45.6259L600.279 45.6249L600.278 45.6239L600.277 45.6229L600.276 45.6219L600.275 45.6209L600.274 45.6199L600.273 45.619L600.272 45.618L600.271 45.617L600.27 45.616L600.269 45.615L600.268 45.614L600.267 45.613L600.266 45.612L600.265 45.6111L600.264 45.6101L600.263 45.6091L600.262 45.6081L600.261 45.6072L600.26 45.6062L600.259 45.6052L600.258 45.6042L600.257 45.6033L600.256 45.6023L600.255 45.6013L600.254 45.6004L600.253 45.5994L600.252 45.5984L600.251 45.5975L600.25 45.5965L600.249 45.5955L600.248 45.5946L600.247 45.5936L600.246 45.5927L600.245 45.5917L600.244 45.5907L600.243 45.5898L600.242 45.5888L600.241 45.5879L600.241 45.5869L600.24 45.586L600.239 45.585L600.238 45.5841L600.237 45.5831L600.236 45.5822L600.235 45.5813L600.234 45.5803L600.233 45.5794L600.232 45.5784L600.231 45.5775L600.23 45.5766L600.229 45.5756L600.228 45.5747L600.227 45.5737L600.226 45.5728L600.225 45.5719L600.225 45.5709L600.224 45.57L600.223 45.5691L600.222 45.5682L600.221 45.5672L600.22 45.5663L600.219 45.5654L600.218 45.5644L600.217 45.5635L600.216 45.5626L600.215 45.5617L600.214 45.5608L600.213 45.5598L600.212 45.5589L600.212 45.558L600.211 45.5571L600.21 45.5562L600.209 45.5552L600.208 45.5543L600.207 45.5534L600.206 45.5525L600.205 45.5516L600.204 45.5507L600.203 45.5498L600.202 45.5488L600.201 45.5479L600.201 45.547L600.2 45.5461L600.199 45.5452L600.198 45.5443L600.197 45.5434L600.196 45.5425L600.195 45.5416L600.194 45.5407L600.193 45.5398L600.192 45.5389L600.192 45.538L600.191 45.5371L600.19 45.5362L600.189 45.5353L600.188 45.5344L600.187 45.5335L600.186 45.5326L600.185 45.5317L600.184 45.5308L600.183 45.5299L600.183 45.529L600.182 45.5281L600.181 45.5272L600.18 45.5263L600.179 45.5254L600.178 45.5245L600.177 45.5236L600.176 45.5227L600.175 45.5218L600.174 45.5209L600.174 45.52L600.173 45.5191L600.172 45.5182L600.171 45.5173L600.17 45.5165L600.169 45.5156L600.168 45.5147L600.167 45.5138L600.166 45.5129L600.166 45.512L600.165 45.5111L600.164 45.5102L600.163 45.5094L600.162 45.5085L600.161 45.5076L600.16 45.5067L600.159 45.5058L600.158 45.5049L600.158 45.504L600.157 45.5032L600.156 45.5023L600.155 45.5014L600.154 45.5005L600.153 45.4996L600.152 45.4987L600.151 45.4979L600.151 45.497L600.15 45.4961L600.149 45.4952L600.148 45.4943L600.147 45.4935L600.146 45.4926L600.145 45.4917L600.144 45.4908L600.143 45.4899L600.143 45.489L600.142 45.4882L600.141 45.4873L600.14 45.4864L600.139 45.4855L600.138 45.4846L600.137 45.4838L600.136 45.4829L600.136 45.482L600.135 45.4811L600.134 45.4802L600.133 45.4794L600.132 45.4785L600.131 45.4776L600.13 45.4767L600.129 45.4759L600.129 45.475L600.128 45.4741L600.127 45.4732L600.126 45.4723L600.125 45.4715L600.124 45.4706L600.123 45.4697L600.122 45.4688L600.122 45.4679L600.121 45.4671L600.12 45.4662L600.119 45.4653L600.118 45.4644L600.117 45.4635L600.116 45.4627L600.115 45.4618L600.114 45.4609L600.114 45.46L600.113 45.4591L600.112 45.4583L600.111 45.4574L600.11 45.4565L600.109 45.4556L600.108 45.4547L600.107 45.4539L600.107 45.453L600.106 45.4521L600.105 45.4512L600.104 45.4503L600.103 45.4495L600.102 45.4486L600.101 45.4477L600.1 45.4468L600.099 45.4459L600.099 45.445L600.098 45.4442L600.097 45.4433L600.096 45.4424L600.095 45.4415L600.094 45.4406L600.093 45.4397L600.092 45.4389L600.092 45.438L600.091 45.4371L600.09 45.4362L600.089 45.4353L600.088 45.4344L600.087 45.4335L600.086 45.4326L600.085 45.4318L600.084 45.4309L600.084 45.43L600.083 45.4291L600.082 45.4282L600.081 45.4273L600.08 45.4264L600.079 45.4255L600.078 45.4246L600.077 45.4237L600.076 45.4228L600.076 45.422L600.075 45.4211L600.074 45.4202L600.073 45.4193L600.072 45.4184L600.071 45.4175L600.07 45.4166L600.069 45.4157L600.068 45.4148L600.067 45.4139L600.067 45.413L600.066 45.4121L600.065 45.4112L600.064 45.4103L600.063 45.4094L600.062 45.4085L600.061 45.4076L600.06 45.4067L600.059 45.4058L600.058 45.4049L600.058 45.404L600.057 45.403L600.056 45.4021L600.055 45.4012L600.054 45.4003L600.053 45.3994L600.052 45.3985L600.051 45.3976L600.05 45.3967L600.049 45.3958L600.048 45.3949L600.048 45.3939L600.047 45.393L600.046 45.3921L600.045 45.3912L600.044 45.3903L600.043 45.3894L600.042 45.3884L600.041 45.3875L600.04 45.3866L600.039 45.3857L600.038 45.3848L600.037 45.3838L600.036 45.3829L600.036 45.382L600.035 45.3811L600.034 45.3801L600.033 45.3792L600.032 45.3783L600.031 45.3773L600.03 45.3764L600.029 45.3755L600.028 45.3746L600.027 45.3736L600.026 45.3727L600.025 45.3718L600.024 45.3708L600.023 45.3699L600.023 45.3689L600.022 45.368L600.021 45.3671L600.02 45.3661L600.019 45.3652L600.018 45.3642L600.017 45.3633L600.016 45.3623L600.015 45.3614L600.014 45.3604L600.013 45.3595L600.012 45.3585L600.011 45.3576L600.01 45.3566L600.009 45.3557L600.008 45.3547L600.007 45.3538L600.006 45.3528L600.005 45.3519L600.004 45.3509L600.004 45.3499L600.003 45.349L600.002 45.348L600.001 45.347L600 45.3461L599.999 45.3451L599.998 45.3441L599.997 45.3432L599.996 45.3422L599.995 45.3412L599.994 45.3403L599.993 45.3393L599.992 45.3383L599.991 45.3373L599.99 45.3364L599.989 45.3354L599.988 45.3344L599.987 45.3334L599.986 45.3324L599.985 45.3314L599.984 45.3305L599.983 45.3295L599.982 45.3285L599.981 45.3275L599.98 45.3265L599.979 45.3255L599.978 45.3245L599.977 45.3235L599.976 45.3225L599.975 45.3215L599.974 45.3205L599.973 45.3195L599.972 45.3185L599.971 45.3175L599.97 45.3165L599.969 45.3155L599.968 45.3145L599.967 45.3135L599.966 45.3124L599.965 45.3114L599.964 45.3104L599.963 45.3094L599.962 45.3084L599.961 45.3073L599.96 45.3063L599.959 45.3053L599.958 45.3043L599.957 45.3032L599.956 45.3022L599.955 45.3012L599.954 45.3002L599.953 45.2991L599.952 45.2981L599.951 45.297L599.95 45.296L599.949 45.295L599.947 45.2939L599.946 45.2929L599.945 45.2918L599.944 45.2908L599.943 45.2897L599.942 45.2887L599.941 45.2876L599.94 45.2866L599.939 45.2855L599.938 45.2845L599.937 45.2834L599.936 45.2823L599.935 45.2813L599.934 45.2802L599.933 45.2791L599.932 45.2781L599.931 45.277L599.929 45.2759L599.928 45.2748L599.927 45.2738L599.926 45.2727L599.925 45.2716L599.924 45.2705L599.923 45.2694L599.922 45.2684L599.921 45.2673L599.92 45.2662L599.919 45.2651L599.918 45.264L599.916 45.2629L599.915 45.2618L599.914 45.2607L599.913 45.2596L599.912 45.2585L599.911 45.2574L599.91 45.2563L599.909 45.2552L599.908 45.2541L599.907 45.2529L599.905 45.2518L599.904 45.2507L599.903 45.2496L599.902 45.2485L599.901 45.2473L599.9 45.2462L599.899 45.2451L599.898 45.2439L599.896 45.2428L599.895 45.2417L599.894 45.2405L599.893 45.2394L599.892 45.2383L599.891 45.2371L599.89 45.236L599.888 45.2348L599.887 45.2337L599.886 45.2325L599.885 45.2314L599.884 45.2302L599.883 45.229L599.881 45.2279L599.88 45.2267L599.879 45.2256L599.878 45.2247L599.878 45.2244L585.49 30.35H591.893L603.018 41.9713C603.018 41.9716 603.018 41.9718 603.019 41.9721C606.316 45.4744 611.874 45.5741 615.371 42.2821L615.371 42.2821L615.377 42.2768L615.527 42.1268L615.677 41.9768L615.677 41.9768L615.68 41.9737L626.906 30.35ZM585.39 72.65L599.88 57.6738L599.88 57.6738L599.882 57.6717C604.887 52.3721 613.227 52.1771 618.427 57.1801L618.428 57.1814L618.429 57.1826L618.43 57.1838L618.431 57.1849L618.433 57.1861L618.434 57.1872L618.435 57.1884L618.437 57.1907L618.438 57.1918L618.439 57.193L618.441 57.1941L618.442 57.1952L618.443 57.1964L618.444 57.1975L618.446 57.1998L618.448 57.202L618.45 57.2031L618.451 57.2043L618.453 57.2065L618.454 57.2076L618.455 57.2087L618.457 57.2109L618.458 57.212L618.46 57.2132L618.461 57.2143L618.462 57.2154L618.463 57.2165L618.464 57.2176L618.465 57.2186L618.466 57.2197L618.468 57.2219L618.471 57.2241L618.473 57.2262L618.475 57.2284L618.476 57.2295L618.477 57.2306L618.478 57.2316L618.479 57.2327L618.481 57.2348L618.482 57.2359L618.483 57.237L618.484 57.238L618.485 57.2391L618.488 57.2412L618.489 57.2422L618.49 57.2433L618.492 57.2454L618.493 57.2464L618.494 57.2475L618.495 57.2485L618.496 57.2496L618.497 57.2506L618.498 57.2516L618.499 57.2527L618.5 57.2537L618.502 57.2558L618.504 57.2578L618.506 57.2599L618.507 57.2609L618.508 57.2619L618.509 57.2629L618.51 57.264L618.511 57.265L618.512 57.266L618.513 57.267L618.514 57.268L618.516 57.27L618.518 57.2721L618.52 57.2741L618.521 57.2751L618.522 57.2761L618.523 57.2771L618.524 57.2781L618.525 57.2791L618.526 57.28L618.527 57.281L618.528 57.282L618.529 57.283L618.53 57.284L618.531 57.285L618.532 57.286L618.533 57.287L618.534 57.288L618.535 57.2889L618.536 57.2899L618.538 57.2919L618.54 57.2938L618.541 57.2948L618.542 57.2958L618.543 57.2967L618.544 57.2977L618.545 57.2987L618.546 57.2996L618.547 57.3006L618.548 57.3016L618.549 57.3025L618.55 57.3035L618.552 57.3054L618.553 57.3064L618.554 57.3073L618.555 57.3083L618.556 57.3092L618.557 57.3102L618.558 57.3112L618.559 57.3121L618.559 57.3131L618.561 57.315L618.562 57.3159L618.563 57.3168L618.565 57.3187L618.567 57.3206L618.569 57.3225L618.57 57.3234L618.571 57.3244L618.572 57.3253L618.573 57.3262L618.574 57.3272L618.575 57.3281L618.575 57.329L618.576 57.33L618.578 57.3318L618.58 57.3337L618.582 57.3355L618.583 57.3365L618.584 57.3374L618.586 57.3392L618.587 57.3402L618.588 57.3411L618.588 57.342L618.589 57.3429L618.591 57.3448L618.593 57.3466L618.594 57.3475L618.595 57.3484L618.597 57.3502L618.598 57.3521L618.6 57.3539L618.601 57.3548L618.602 57.3557L618.603 57.3566L618.604 57.3575L618.606 57.3593L618.607 57.3602L618.608 57.3611L618.608 57.362L618.609 57.3629L618.611 57.3647L618.612 57.3656L618.613 57.3665L618.614 57.3674L618.615 57.3683L618.616 57.3692L618.617 57.3701L618.617 57.371L618.618 57.3719L618.62 57.3737L618.621 57.3746L618.622 57.3755L618.624 57.3773L618.625 57.3782L618.626 57.3791L618.627 57.3809L618.628 57.3818L618.629 57.3826L618.63 57.3835L618.631 57.3844L618.632 57.3853L618.633 57.3862L618.634 57.388L618.636 57.3898L618.638 57.3915L618.64 57.3933L618.641 57.3942L618.641 57.3951L618.642 57.396L618.643 57.3968L618.644 57.3977L618.645 57.3986L618.646 57.3995L618.647 57.4004L618.648 57.4013L618.649 57.4021L618.649 57.403L618.65 57.4039L618.651 57.4048L618.652 57.4057L618.654 57.4074L618.656 57.4092L618.657 57.4109L618.658 57.4118L618.659 57.4127L618.66 57.4136L618.661 57.4145L618.662 57.4153L618.663 57.4162L618.664 57.4171L618.664 57.418L618.665 57.4189L618.666 57.4197L618.668 57.4215L618.669 57.4224L618.67 57.4233L618.671 57.425L618.672 57.4259L618.673 57.4268L618.674 57.4277L618.675 57.4285L618.676 57.4294L618.677 57.4303L618.678 57.4312L618.678 57.4321L618.68 57.4338L618.681 57.4347L618.682 57.4356L618.684 57.4373L618.686 57.4391L618.686 57.44L618.687 57.4408L618.688 57.4417L618.689 57.4426L618.69 57.4435L618.691 57.4444L618.692 57.4452L618.693 57.4461L618.694 57.4479L618.696 57.4497L618.698 57.4514L618.699 57.4523L618.7 57.4532L618.7 57.4541L618.701 57.455L618.702 57.4558L618.703 57.4567L618.705 57.4585L618.707 57.4603L618.708 57.4611L618.708 57.462L618.71 57.4638L618.712 57.4656L618.713 57.4665L618.714 57.4674L618.715 57.4682L618.716 57.4691L618.716 57.47L618.717 57.4709L618.719 57.4727L618.72 57.4736L618.721 57.4745L618.722 57.4754L618.723 57.4763L618.724 57.478L618.725 57.4789L618.726 57.4798L618.727 57.4807L618.728 57.4816L618.729 57.4825L618.73 57.4834L618.731 57.4843L618.732 57.4852L618.733 57.487L618.735 57.4888L618.737 57.4906L618.738 57.4915L618.739 57.4924L618.741 57.4942L618.742 57.4951L618.742 57.496L618.743 57.4969L618.744 57.4979L618.745 57.4988L618.746 57.4997L618.748 57.5015L618.75 57.5033L618.752 57.5051L618.753 57.507L618.754 57.5079L618.755 57.5088L618.756 57.5097L618.757 57.5106L618.758 57.5116L618.759 57.5125L618.76 57.5134L618.761 57.5143L618.762 57.5152L618.763 57.5162L618.764 57.5171L618.764 57.518L618.766 57.5199L618.767 57.5208L618.768 57.5217L618.77 57.5236L618.772 57.5254L618.773 57.5264L618.774 57.5273L618.775 57.5282L618.776 57.5292L618.777 57.5311L618.778 57.532L618.779 57.5329L618.78 57.5339L618.781 57.5348L618.783 57.5367L618.785 57.5386L618.786 57.5396L618.787 57.5405L618.788 57.5415L618.789 57.5424L618.79 57.5434L618.791 57.5443L618.793 57.5462L618.794 57.5472L618.795 57.5481L618.796 57.5501L618.798 57.552L618.8 57.5539L618.801 57.5549L618.802 57.5558L618.803 57.5568L618.804 57.5578L618.805 57.5588L618.806 57.5597L618.808 57.5617L618.81 57.5636L618.812 57.5656L618.814 57.5676L618.816 57.5695L618.818 57.5715L618.819 57.5725L618.82 57.5735L618.821 57.5745L618.822 57.5755L618.824 57.5775L618.825 57.5785L618.826 57.5795L618.828 57.5815L618.829 57.5825L618.83 57.5835L618.832 57.5855L618.834 57.5876L618.835 57.5886L618.836 57.5896L618.837 57.5906L618.838 57.5916L618.84 57.5937L618.841 57.5947L618.842 57.5957L618.843 57.5967L618.844 57.5978L618.846 57.5998L618.847 57.6009L618.848 57.6019L618.85 57.604L618.851 57.605L618.852 57.6061L618.854 57.6071L618.855 57.6082L618.856 57.6092L618.857 57.6103L618.859 57.6124L618.86 57.6134L618.861 57.6145L618.863 57.6166L618.865 57.6187L618.866 57.6198L618.867 57.6209L618.868 57.6219L618.869 57.623L618.87 57.6241L618.872 57.6251L618.874 57.6273L618.876 57.6295L618.878 57.6316L618.88 57.6338L618.881 57.6349L618.882 57.636L618.884 57.6371L618.885 57.6382L618.886 57.6393L618.887 57.6404L618.888 57.6415L618.889 57.6426L618.89 57.6437L618.891 57.6448L618.892 57.6459L618.893 57.6471L618.895 57.6482L618.896 57.6493L618.898 57.6515L618.9 57.6538L618.901 57.6549L618.902 57.656L618.904 57.6572L618.905 57.6583L618.906 57.6595L618.907 57.6606L618.909 57.6629L618.91 57.664L618.912 57.6652L618.914 57.6675L618.916 57.6698L618.919 57.6721L618.92 57.6733L618.92 57.6738L618.921 57.6744L618.922 57.6756L618.923 57.6768L633.41 72.65H627.007L615.782 60.9287C615.782 60.9284 615.782 60.9281 615.781 60.9278C612.484 57.4256 606.926 57.326 603.429 60.618L603.429 60.6179L603.423 60.6232L603.273 60.7732L603.123 60.9232L603.123 60.9232L603.12 60.9263L591.794 72.65H585.39Z" fill="black" stroke="black" stroke-width="0.5"/>
</svg>
