<svg width="482" height="63" viewBox="0 0 482 63" fill="none" xmlns="http://www.w3.org/2000/svg">
<path d="M8.89999 1.39999H85.8C90.2 1.39999 93.7 4.9 93.7 9.3V54.6C93.7 59 90.2 62.5 85.8 62.5H8.89999C4.49999 62.5 1 59 1 54.6V9.3C1.1 5 4.59999 1.39999 8.89999 1.39999Z" fill="white" stroke="black" stroke-opacity="0.2" stroke-width="0.5"/>
<path d="M11.1 23.8C8.99998 22.7 6.69998 21.8 4.09998 21.1L4.19997 20.6H15C16.5 20.7 17.6 21.1 18 22.6L20.3 33.8L21 37.2L27.6 20.6H34.7L24.2 44.9H17L11.1 23.8ZM39.9 44.9H33.2L37.4 20.6H44.1L39.9 44.9ZM64.2 21.2L63.3 26.5L62.7 26.2C61.5 25.7 59.9 25.2 57.7 25.3C55.1 25.3 53.9 26.4 53.8 27.4C53.8 28.5 55.2 29.3 57.6 30.4C61.5 32.1 63.3 34.3 63.2 37C63.1 42 58.6 45.3 51.5 45.3C48.5 45.3 45.6 44.7 44 44L44.9 38.5L45.8 38.9C48 39.8 49.4 40.2 52.1 40.2C54 40.2 56.1 39.4 56.1 37.8C56.1 36.7 55.2 36 52.6 34.8C50.1 33.6 46.7 31.7 46.7 28.2C46.7 23.5 51.4 20.2 58 20.2C60.8 20.2 62.9 20.7 64.2 21.2ZM73.1 36.3H78.7C78.4 35.1 77.2 29.3 77.2 29.3L76.7 27.2C76.4 28.1 75.8 29.6 75.8 29.5C75.8 29.5 73.7 34.9 73.1 36.3ZM81.4 20.6L86.8 44.9H80.6C80.6 44.9 80 42.1 79.8 41.3H71.2C71 41.9 69.8 44.9 69.8 44.9H62.8L72.8 22.6C73.5 21 74.7 20.6 76.3 20.6H81.4Z" fill="#171E6C"/>
<path d="M346.6 61.9C350.4 61.9 353.5 58.9 353.5 55V7.69998C353.5 5.79998 352.7 4.09999 351.4 2.79999C350.1 1.49999 348.4 0.799988 346.5 0.799988H267.7C265.9 0.799988 264.1 1.49999 262.9 2.79999C261.6 4.09999 260.9 5.89998 260.8 7.69998V55C260.8 56.9 261.6 58.6 262.9 59.9C264.2 61.2 265.9 61.9 267.8 61.9H346.6Z" fill="white" stroke="black" stroke-opacity="0.2" stroke-width="0.5"/>
<path d="M295.4 50.3C306.28 50.3 315.1 41.48 315.1 30.6C315.1 19.72 306.28 10.9 295.4 10.9C284.52 10.9 275.7 19.72 275.7 30.6C275.7 41.48 284.52 50.3 295.4 50.3Z" fill="#EB001B"/>
<path d="M319 50.3C329.88 50.3 338.7 41.48 338.7 30.6C338.7 19.72 329.88 10.9 319 10.9C308.12 10.9 299.3 19.72 299.3 30.6C299.3 41.48 308.12 50.3 319 50.3Z" fill="#F79E1B"/>
<path fill-rule="evenodd" clip-rule="evenodd" d="M307.2 14.8C312 18.4 315.1 24.1 315.1 30.6C315.1 37 312 42.8 307.2 46.4C302.4 42.8 299.3 37.1 299.3 30.6C299.3 24.1 302.4 18.4 307.2 14.8Z" fill="#FF5F00"/>
<path d="M407.876 0H430.676C433.876 0 435.876 2.90001 435.076 6.40001L424.476 56.6C423.676 60.1 420.576 63 417.376 63H394.576C391.376 63 389.376 60.1 390.176 56.6L400.776 6.40001C401.476 2.90001 404.676 0 407.876 0Z" fill="#DD2423"/>
<path d="M428.776 0H455.076C458.276 0 456.776 2.90001 456.076 6.40001L445.476 56.6C444.776 60.1 444.976 63 441.776 63H415.476C412.276 63 410.276 60.1 411.076 56.6L421.676 6.40001C422.376 2.90001 425.576 0 428.776 0Z" fill="#16315E"/>
<path d="M453.976 0H476.776C479.976 0 481.976 2.90001 481.176 6.40001L470.576 56.6C469.776 60.1 466.676 63 463.476 63H440.676C437.476 63 435.476 60.1 436.276 56.6L446.876 6.40001C447.576 2.90001 450.776 0 453.976 0Z" fill="#036862"/>
<path d="M413.776 16.1C411.476 16.1 410.776 16.1 410.476 16C410.376 16.4 408.776 24.5 408.776 24.5C408.476 26.1 408.176 27.3 407.376 28C406.876 28.4 406.376 28.6 405.676 28.6C404.676 28.6 404.076 28 403.976 27V26.6L404.276 24.4C404.276 24.4 405.976 17.1 406.276 16.1C406.276 16 406.276 16 406.276 16C403.076 16 402.476 16 402.376 15.9C402.376 16 402.276 16.4 402.276 16.4L400.576 24.7L400.476 25.4L400.176 27.7C400.176 28.4 400.276 28.9 400.576 29.4C401.376 30.9 403.576 31.1 404.776 31.1C406.376 31.1 407.876 30.7 408.876 30C410.676 28.8 411.076 27 411.476 25.5L411.676 24.7C411.676 24.7 413.376 17.1 413.676 16.1C413.776 16.2 413.776 16.2 413.776 16.1ZM419.676 22.3C419.276 22.3 418.476 22.4 417.876 22.8C417.676 22.9 417.376 23.1 417.176 23.3L417.376 22.4L417.276 22.3C415.876 22.6 415.476 22.7 414.176 22.9L414.076 23C413.876 24.4 413.776 25.5 413.176 28.2C412.976 29.2 412.776 30.2 412.476 31.3L412.576 31.4C413.976 31.3 414.376 31.3 415.576 31.3L415.676 31.2C415.876 30.4 415.876 30.2 416.176 28.4C416.376 27.6 416.676 25.8 416.776 25.2C417.076 25 417.376 24.9 417.676 24.9C418.376 24.9 418.276 25.5 418.276 25.8C418.276 26.2 417.976 27.6 417.776 28.8L417.576 29.6C417.476 30.2 417.376 30.7 417.176 31.3L417.276 31.4C418.576 31.3 419.076 31.3 420.176 31.3L420.276 31.2C420.476 29.9 420.576 29.5 420.876 27.6L421.076 26.7C421.476 25 421.576 24.1 421.376 23.4C420.976 22.5 420.276 22.3 419.676 22.3ZM426.176 24.1C425.476 24.3 424.976 24.4 424.576 24.4C424.176 24.5 423.676 24.6 422.976 24.7L422.876 24.8H422.776C422.676 25.4 422.676 25.9 422.576 26.4C422.476 27 422.376 27.7 422.176 28.6C421.976 29.3 421.976 29.6 421.876 29.9C421.776 30.2 421.676 30.4 421.476 31.1V31.2V31.3C422.076 31.3 422.576 31.2 422.976 31.2C423.376 31.2 423.876 31.2 424.576 31.2L424.676 31.1L424.776 31C424.876 30.3 424.876 30.2 424.976 29.8C425.076 29.5 425.176 29 425.376 27.7C425.476 27.1 425.676 26.5 425.776 25.9C425.876 25.3 426.076 24.7 426.176 24.1V24.1ZM426.176 21.6C425.576 21.2 424.376 21.3 423.576 21.9C422.776 22.5 422.776 23.3 423.376 23.7C423.976 24.1 425.176 24 425.876 23.4C426.676 22.9 426.776 22.1 426.176 21.6ZM430.076 31.4C431.376 31.4 432.776 31 433.776 29.8C434.576 28.8 434.876 27.4 435.076 26.8C435.476 24.9 435.176 23.9 434.776 23.4C434.176 22.6 433.076 22.3 432.076 22.3C431.376 22.3 429.876 22.4 428.576 23.6C427.676 24.5 427.276 25.7 427.076 26.9C426.876 28.1 426.576 30.2 428.376 31C428.776 31.3 429.576 31.4 430.076 31.4ZM429.976 27C430.276 25.5 430.676 24.3 431.576 24.3C432.276 24.3 432.376 25.2 431.976 26.7C431.876 27 431.676 28.2 431.276 28.8C431.076 29.2 430.776 29.4 430.376 29.4C430.276 29.4 429.676 29.4 429.676 28.5C429.776 28 429.876 27.5 429.976 27ZM438.276 31.2L438.376 31.1C438.476 30.3 438.576 30.1 438.876 28.3C439.076 27.5 439.376 25.7 439.576 25.1C439.876 24.9 440.176 24.8 440.476 24.8C441.176 24.8 441.076 25.4 441.076 25.7C441.076 26.1 440.776 27.5 440.576 28.7L440.376 29.5C440.276 30.1 440.176 30.6 439.976 31.2L440.076 31.3C441.376 31.2 441.776 31.2 442.976 31.2L443.076 31.1C443.276 29.8 443.376 29.4 443.676 27.5L443.876 26.6C444.276 24.9 444.376 24 444.176 23.3C443.876 22.5 443.176 22.3 442.576 22.3C442.176 22.3 441.376 22.4 440.776 22.8C440.576 22.9 440.276 23.1 440.076 23.3L440.276 22.4L440.176 22.3C438.776 22.6 438.376 22.7 437.076 22.9L436.976 23C436.776 24.4 436.676 25.5 436.076 28.2C435.876 29.2 435.676 30.2 435.376 31.3L435.476 31.4C436.676 31.2 437.076 31.2 438.276 31.2ZM448.176 31.3C448.276 30.8 448.776 28.2 448.776 28.2C448.776 28.2 449.176 26.2 449.276 26.2C449.276 26.2 449.376 26 449.576 25.9H449.776C451.676 25.9 453.776 25.9 455.376 24.6C456.476 23.7 457.276 22.3 457.576 20.7C457.676 20.3 457.776 19.8 457.776 19.3C457.776 18.7 457.676 18 457.376 17.6C456.576 16.3 454.876 16.3 452.876 16.3H451.876C449.376 16.3 448.376 16.3 447.976 16.3C447.976 16.5 447.876 16.9 447.876 16.9L446.976 21.4C446.976 21.4 444.876 31 444.776 31.5C446.876 31.2 447.776 31.2 448.176 31.3ZM449.776 23.2L450.676 18.7V18.5V18.3H451.076L453.076 18.5C453.876 18.8 454.176 19.7 453.976 20.8C453.776 21.8 453.176 22.7 452.376 23.1C451.776 23.4 450.976 23.5 450.176 23.5H449.676L449.776 23.2ZM455.676 27.1C455.476 28.3 455.176 30.4 456.876 31.2C457.476 31.5 457.976 31.5 458.476 31.5C458.976 31.5 459.576 31.2 459.976 30.7C459.976 30.9 459.876 31.1 459.876 31.2L459.976 31.3C461.276 31.2 461.676 31.2 463.076 31.3L463.176 31.2C463.376 29.9 463.576 28.6 464.076 26.1C464.376 24.9 464.576 23.7 464.876 22.5V22.4C463.476 22.7 463.076 22.8 461.676 23L461.576 23.1C461.576 23.2 461.576 23.3 461.576 23.5C461.376 23.1 461.076 22.8 460.576 22.6C459.976 22.3 458.476 22.7 457.276 23.9C456.376 24.7 455.976 25.9 455.676 27.1ZM458.676 27.2C458.976 25.8 459.376 24.5 460.276 24.5C460.876 24.5 461.176 25.1 461.076 26.1C461.076 26.3 460.976 26.6 460.876 26.9C460.776 27.3 460.676 27.8 460.576 28.2C460.476 28.5 460.376 28.8 460.276 28.9C460.076 29.3 459.476 29.5 459.176 29.5C459.076 29.5 458.476 29.5 458.476 28.6C458.476 28.2 458.576 27.7 458.676 27.2ZM474.476 22.4L474.376 22.3C472.976 22.6 472.676 22.7 471.376 22.9L471.276 23C471.276 23 471.276 23 471.276 23.1C470.276 25.6 470.376 25 469.576 27C469.576 26.9 469.576 26.9 469.576 26.8L469.376 22.6L469.276 22.5C467.776 22.8 467.776 22.9 466.376 23.1L466.276 23.2C466.276 23.3 466.276 23.3 466.276 23.4C466.476 24.4 466.376 24.1 466.576 25.7C466.676 26.4 466.776 27.2 466.876 27.9C466.976 29.1 467.076 29.7 467.276 31.6C466.376 33.3 466.176 33.9 465.276 35.4L464.676 36.5C464.576 36.6 464.576 36.7 464.476 36.7C464.376 36.8 464.276 36.8 464.076 36.8H463.776L463.276 38.7H465.076C466.076 38.7 466.776 38.2 467.076 37.4L468.176 35.3L468.276 35.2C468.676 33.2 474.476 22.4 474.476 22.4ZM455.676 47.3H454.876L457.676 37.2H458.576L458.876 36.2V37.4C458.876 38.1 459.376 38.8 460.676 38.6H462.276L462.776 36.6H462.176C461.876 36.6 461.676 36.5 461.676 36.3V35.1H458.776C457.876 35.1 455.076 35.2 454.476 35.4C453.776 35.6 453.076 36.2 453.076 36.2L453.376 35.2H450.676L450.076 37.3L447.276 47.6H446.776L446.276 49.5H451.676L451.476 50.1H454.176L454.376 49.5H455.076L455.676 47.3ZM453.476 39.2C453.076 39.3 452.276 39.7 452.276 39.7L452.976 37.1H455.076L454.576 39C454.576 39 453.976 39.1 453.476 39.2ZM453.576 42.9C453.576 42.9 452.876 43 452.476 43.1C452.076 43.2 451.176 43.7 451.176 43.7L451.876 41H454.076L453.576 42.9ZM452.376 47.3H450.176L450.776 45H452.876L452.376 47.3ZM457.476 41H460.576L460.176 42.6H457.076L456.576 44.3H459.376L457.276 47.5C457.176 47.7 456.976 47.8 456.876 47.9C456.776 48 456.576 48.1 456.276 48.1H455.476L454.976 50H456.976C457.976 50 458.676 49.5 459.076 48.8L460.476 46.6L460.776 48.8C460.876 49.2 461.076 49.4 461.276 49.5C461.476 49.6 461.676 49.8 461.976 49.8C462.276 49.8 462.476 49.8 462.676 49.8H463.676L464.276 47.7H463.876C463.676 47.7 463.276 47.7 463.176 47.6C463.076 47.5 463.076 47.4 463.076 47.1L462.776 44.9H461.476L462.076 44.2H465.176L465.676 42.5H462.776L463.276 40.9H466.176L466.676 38.9H458.076L457.476 41ZM431.276 47.7L431.976 45H434.976L435.476 43H432.476L432.976 41.4H435.876L436.376 39.5H429.076L428.576 41.4H430.276L429.876 43H428.176L427.676 45H429.376L428.376 48.5C428.276 49 428.476 49.1 428.576 49.4C428.676 49.6 428.776 49.7 429.076 49.8C429.376 49.9 429.576 49.9 429.876 49.9H433.276L433.876 47.7L432.376 47.9C432.076 48.1 431.276 48 431.276 47.7ZM431.676 35L430.876 36.5C430.676 36.8 430.576 37 430.476 37.1C430.376 37.2 430.176 37.2 429.776 37.2H429.376L428.876 39.1H430.176C430.776 39.1 431.276 38.8 431.476 38.7C431.676 38.6 431.776 38.6 431.976 38.4L432.376 38H436.476L436.976 36H433.976L434.476 34.9L431.676 35ZM437.676 47.8C437.576 47.7 437.676 47.5 437.776 47.1L438.876 43H442.876C443.476 43 443.876 43 444.176 43C444.476 43 444.776 42.9 445.176 42.6C445.576 42.4 445.676 42.2 445.876 41.9C446.076 41.6 446.276 41.1 446.576 40.2L447.976 35.1H443.876C443.876 35.1 442.576 35.3 442.076 35.5C441.476 35.8 440.676 36.5 440.676 36.5L441.076 35.1H438.576L434.976 48.1C434.876 48.6 434.776 49 434.776 49.2C434.776 49.4 435.076 49.7 435.276 49.8C435.476 50 435.776 49.9 436.076 50C436.376 50 436.876 50 437.476 50H439.476L440.076 47.8L438.376 48C437.876 48 437.776 47.9 437.676 47.8ZM439.576 40.3H443.776L443.476 41.2C443.476 41.2 443.376 41.2 442.876 41.2H439.276L439.576 40.3ZM440.476 37.2H444.676L444.376 38.3C444.376 38.3 442.376 38.3 442.076 38.3C440.676 38.6 439.876 39.4 439.876 39.4L440.476 37.2ZM443.576 44.2C443.576 44.3 443.476 44.4 443.376 44.5C443.276 44.6 443.176 44.6 442.976 44.6H442.376V43.5H439.876L439.776 48.9C439.776 49.3 439.776 49.5 440.076 49.7C440.376 49.9 441.176 50 442.176 50H443.676L444.276 48L442.976 48.1H442.576C442.476 48.1 442.476 48 442.376 48C442.276 47.9 442.176 48 442.276 47.6V46.2L443.676 46.1C444.476 46.1 444.776 45.8 445.076 45.6C445.376 45.4 445.476 45.1 445.576 44.7L445.776 43.5H443.876L443.576 44.2Z" fill="#FEFEFE"/>
<path d="M139.3 0.799988H216.2C220.6 0.799988 224.1 4.29998 224.1 8.69998V54C224.1 58.4 220.6 61.9 216.2 61.9H139.3C134.9 61.9 131.4 58.4 131.4 54V8.69998C131.4 4.29998 134.9 0.799988 139.3 0.799988Z" fill="white" stroke="black" stroke-opacity="0.2" stroke-width="0.5"/>
<path d="M154.4 20.2C153.5 21.2 152.1 22 150.7 21.9C150.5 20.5 151.2 19 152 18.1C152.9 17 154.4 16.3 155.6 16.2C155.8 17.7 155.2 19.1 154.4 20.2ZM155.6 22.2C153.6 22.1 151.9 23.3 150.9 23.3C149.9 23.3 148.5 22.2 146.9 22.2C144.8 22.2 142.9 23.4 141.8 25.3C139.6 29 141.2 34.6 143.3 37.6C144.3 39.1 145.6 40.8 147.2 40.7C148.7 40.6 149.3 39.7 151.2 39.7C153.1 39.7 153.6 40.7 155.2 40.7C156.9 40.7 157.9 39.2 159 37.7C160.2 36 160.7 34.3 160.7 34.2C160.7 34.2 157.5 32.9 157.4 29.2C157.4 26.1 159.9 24.6 160.1 24.5C158.7 22.5 156.4 22.2 155.6 22.2ZM167.3 18V40.6H170.8V32.9H175.7C180.1 32.9 183.2 29.9 183.2 25.5C183.2 21.1 180.1 18.1 175.8 18.1H167.3V18ZM170.8 20.9H174.8C177.8 20.9 179.6 22.5 179.6 25.4C179.6 28.3 177.9 29.9 174.8 29.9H170.8V20.9ZM189.6 40.7C191.8 40.7 193.8 39.6 194.8 37.8H194.9V40.5H198.1V29.3C198.1 26 195.5 23.9 191.5 23.9C187.8 23.9 185 26 184.9 29H188.1C188.4 27.6 189.7 26.7 191.4 26.7C193.5 26.7 194.7 27.7 194.7 29.5V30.7L190.3 31C186.2 31.2 184 32.9 184 35.8C184 38.8 186.3 40.7 189.6 40.7ZM190.5 38.1C188.6 38.1 187.4 37.2 187.4 35.8C187.4 34.4 188.5 33.6 190.7 33.4L194.6 33.2V34.5C194.7 36.5 192.9 38.1 190.5 38.1ZM202.4 46.7C205.8 46.7 207.4 45.4 208.8 41.4L215 24.1H211.4L207.3 37.4H207.2L203.1 24.1H199.4L205.3 40.5L205 41.5C204.5 43.2 203.6 43.8 202 43.8C201.7 43.8 201.2 43.8 201 43.7V46.4C201.3 46.7 202.1 46.7 202.4 46.7Z" fill="black"/>
</svg>
