<svg xmlns="http://www.w3.org/2000/svg" viewBox="0 0 998.03 63.5"><defs><style>.cls-1,.cls-3{fill:#fff;}.cls-1{stroke:#000;stroke-opacity:0.2;stroke-width:0.5px;}.cls-2{fill:#0165ac;}.cls-4{fill:#f27712;}.cls-5{fill:#047ab1;}.cls-6{fill:#d42d06;}.cls-7{fill:#67b637;}.cls-8{fill:#171e6c;}.cls-9{fill:#eb001b;}.cls-10{fill:#f79e1b;}.cls-11{fill:#ff5f00;}.cls-11,.cls-12,.cls-13{fill-rule:evenodd;}.cls-12{fill:#016fd0;}.cls-13{fill:#fffffe;}.cls-14{fill:#dd2423;}.cls-15{fill:#16315e;}.cls-16{fill:#036862;}.cls-17{fill:#fefefe;}</style></defs><g id="Layer_2" data-name="Layer 2"><g id="Layer_1-2" data-name="Layer 1"><g id="_319" data-name="319"><g id="New-Icons"><g id="Card-Brands"><g id="Color"><g id="Diners-Club"><path id="shape" class="cls-1" d="M606.85,62.2h0a6.85,6.85,0,0,0,6.9-6.9V8a6.89,6.89,0,0,0-2.1-4.9,6.8,6.8,0,0,0-4.9-2H528a6.57,6.57,0,0,0-4.8,2,7.53,7.53,0,0,0-2.1,4.9V55.3a6.89,6.89,0,0,0,2.1,4.9,6.8,6.8,0,0,0,4.9,2Z"/><path id="shape-2" data-name="shape" class="cls-2" d="M559.55,8.2h0l15.8-.1v.1a23.67,23.67,0,0,1,0,47.2v.1h-15.8v-.1a23.67,23.67,0,0,1,0-47.2Z"/><path id="shape-3" data-name="shape" class="cls-3" d="M566,45.2a14.25,14.25,0,0,0,0-26.8V45.2Zm-9.5-26.8a14.25,14.25,0,0,0,0,26.8V18.4Zm4.7,33.9a20.5,20.5,0,1,1,20.5-20.5A20.53,20.53,0,0,1,561.15,52.3Z"/></g></g></g></g></g><g id="_319-2" data-name="319"><g id="New-Icons-2" data-name="New-Icons"><g id="Card-Brands-2" data-name="Card-Brands"><g id="Color-2" data-name="Color"><g id="Discover"><path id="shape-4" data-name="shape" class="cls-1" d="M737.05,62.5h0a6.85,6.85,0,0,0,6.9-6.9V8.3a6.89,6.89,0,0,0-2.1-4.9,6.8,6.8,0,0,0-4.9-2h-78.8a6.57,6.57,0,0,0-4.8,2,7.53,7.53,0,0,0-2.1,4.9V55.6a6.89,6.89,0,0,0,2.1,4.9,6.8,6.8,0,0,0,4.9,2Z"/><path id="shape-5" data-name="shape" class="cls-4" d="M700.05,63.5h37a8.21,8.21,0,0,0,5.6-2.2,7.64,7.64,0,0,0,2.3-5.5V46.5a153.61,153.61,0,0,1-44.9,17Z"/><path id="shape-6" data-name="shape" d="M741.75,37.1h-3.4l-3.8-5h-.3v5h-2.7V24.7h4c3.2,0,5,1.3,5,3.7a3.49,3.49,0,0,1-3.2,3.6Zm-4.1-8.7c0-1.2-.9-1.8-2.6-1.8h-.8v3.8h.8c1.7,0,2.6-.7,2.6-2Zm-15.8-3.7h7.8v2.1h-5v2.8h4.8v2.1h-4.8v3.4h5v2.1h-7.8Zm-8.8,12.7-5.9-12.8h3l3.8,8.3,3.8-8.3h2.9l-6,12.8Zm-24.8,0c-4.2,0-7.4-2.8-7.4-6.5s3.3-6.5,7.5-6.5a7.07,7.07,0,0,1,3.4.8v2.9a4.76,4.76,0,0,0-3.4-1.4,4.4,4.4,0,0,0-4.6,4.3c0,2.5,2,4.3,4.7,4.3a4.63,4.63,0,0,0,3.3-1.4v2.9a11.69,11.69,0,0,1-3.5.6ZM680,33.3c0,2.4-2,4.1-4.9,4.1a5.8,5.8,0,0,1-4.9-2.3l1.8-1.5a3.29,3.29,0,0,0,3,1.7,1.93,1.93,0,0,0,2.1-1.7,1.44,1.44,0,0,0-.8-1.3,10.66,10.66,0,0,0-1.9-.7c-2.6-.8-3.5-1.7-3.5-3.4,0-2,1.9-3.6,4.4-3.6a6.36,6.36,0,0,1,4.1,1.4L678,27.6a3.21,3.21,0,0,0-2.2-1c-1.2,0-2,.6-2,1.4s.5,1,2.1,1.6c3.2.8,4.1,1.7,4.1,3.7Zm-13.5-8.6h2.7V37.1h-2.7Zm-8.8,12.4h-4V24.7h4c4.4,0,7.5,2.5,7.5,6.2a5.93,5.93,0,0,1-2.5,4.8,8.46,8.46,0,0,1-5,1.4Zm3.2-9.3a5.76,5.76,0,0,0-3.8-1h-.8V35h.8a5.76,5.76,0,0,0,3.8-1,4.41,4.41,0,0,0,1.5-3.2A3.69,3.69,0,0,0,660.85,27.8Z"/><path id="shape-7" data-name="shape" class="cls-4" d="M699.35,24.4a6.47,6.47,0,0,0-6.5,6.4,6.5,6.5,0,1,0,13,.1A6.49,6.49,0,0,0,699.35,24.4Z"/></g></g></g></g></g><path class="cls-5" d="M780.85,63h17.8c4.1,0,8.9-4.7,8.9-8.4V0h-17.8c-4.1,0-8.9,4.7-8.9,12.6Z"/><path class="cls-3" d="M791,42.6a43,43,0,0,1-10.1-1.3V36.7a17.81,17.81,0,0,0,8.5,2.4c3.4,0,5.3-2.3,5.3-5.4V21h8.5V33.7C803.15,38.6,800.35,42.6,791,42.6Z"/><path class="cls-6" d="M812.05,63h17.8c4.1,0,8.9-4.7,8.9-8.4V0H821c-4.1,0-8.9,4.7-8.9,12.6Z"/><path class="cls-3" d="M812.05,23.9c2.6-2.4,7-3.8,14.2-3.5a44.65,44.65,0,0,1,8,1.3v4.7a18.76,18.76,0,0,0-7.7-2.4c-5.5-.5-8.8,2.4-8.8,7.5s3.3,8,8.8,7.6a20.39,20.39,0,0,0,7.7-2.4v4.6a44.65,44.65,0,0,1-8,1.3c-7.2.3-11.7-1.1-14.2-3.5Z"/><path class="cls-7" d="M843.15,63H861c4.1,0,8.9-4.7,8.9-8.4V0h-17.8c-4.1,0-8.9,4.7-8.9,12.6Z"/><path class="cls-3" d="M865.45,36.5c0,3.4-2.8,5.5-6.5,5.5h-15.8V21h15.4c3.2.2,5.7,2,5.7,5.1,0,2.4-1.6,4.5-4.6,5v.1C862.85,31.5,865.45,33.5,865.45,36.5Zm-11.4-12.2h-5.9v5.3h5.9a2.61,2.61,0,0,0,2-2.6A2.65,2.65,0,0,0,854.05,24.3Zm.7,8.6h-6.6v5.8h5.9l.7-.1a2.77,2.77,0,0,0,2-2.8A2.89,2.89,0,0,0,854.75,32.9Z"/><g id="_319-3" data-name="319"><g id="New-Icons-3" data-name="New-Icons"><g id="Card-Brands-3" data-name="Card-Brands"><g id="Color-3" data-name="Color"><g id="Visa"><path id="Container" class="cls-1" d="M8.15,1.3h76.9A7.85,7.85,0,0,1,93,9.2V54.5a7.85,7.85,0,0,1-7.9,7.9H8.15a7.85,7.85,0,0,1-7.9-7.9V9.2A8,8,0,0,1,8.15,1.3Z"/><path id="Shape-8" data-name="Shape" class="cls-8" d="M10.35,23.7a34,34,0,0,0-7-2.7l.1-.5h10.8c1.5.1,2.6.5,3,2l2.3,11.2.7,3.4,6.6-16.6H34L23.45,44.8h-7.2l-5.9-21.1Zm28.8,21.1h-6.7l4.2-24.3h6.7Zm24.3-23.7-.9,5.3-.6-.3a11.17,11.17,0,0,0-5-.9c-2.6,0-3.8,1.1-3.9,2.1s1.4,1.9,3.8,3c3.9,1.7,5.7,3.9,5.6,6.6-.1,5-4.6,8.3-11.7,8.3a20.65,20.65,0,0,1-7.5-1.3l.9-5.5.9.4a14.21,14.21,0,0,0,6.3,1.3c1.9,0,4-.8,4-2.4,0-1.1-.9-1.8-3.5-3S46,31.6,46,28.1c0-4.7,4.7-8,11.3-8A17.59,17.59,0,0,1,63.45,21.1Zm8.9,15.1H78c-.3-1.2-1.5-7-1.5-7L76,27.1a21.55,21.55,0,0,1-.9,2.3S73,34.8,72.35,36.2Zm8.3-15.7,5.4,24.3h-6.2s-.6-2.8-.8-3.6h-8.6c-.2.6-1.4,3.6-1.4,3.6h-7l10-22.3c.7-1.6,1.9-2,3.5-2Z"/></g></g></g></g></g><g id="_319-4" data-name="319"><g id="New-Icons-4" data-name="New-Icons"><g id="Card-Brands-4" data-name="Card-Brands"><g id="Color-4" data-name="Color"><g id="Diners-Club-2" data-name="Diners-Club"><path id="shape-9" data-name="shape" class="cls-1" d="M345.85,61.8h0a6.85,6.85,0,0,0,6.9-6.9V7.6a6.89,6.89,0,0,0-2.1-4.9,6.8,6.8,0,0,0-4.9-2H267a6.57,6.57,0,0,0-4.8,2,7.53,7.53,0,0,0-2.1,4.9V54.9a6.89,6.89,0,0,0,2.1,4.9,6.8,6.8,0,0,0,4.9,2Z"/></g></g></g></g></g><circle class="cls-9" cx="294.65" cy="30.5" r="19.7"/><circle class="cls-10" cx="318.25" cy="30.5" r="19.7"/><path class="cls-11" d="M306.45,14.7a19.75,19.75,0,0,1,0,31.6,19.75,19.75,0,0,1,0-31.6Z"/><path class="cls-12" d="M397,0h78.8a7.85,7.85,0,0,1,7.9,7.9V55.2a7.85,7.85,0,0,1-7.9,7.9H397a7.85,7.85,0,0,1-7.9-7.9V7.9A7.92,7.92,0,0,1,397,0Z"/><path class="cls-13" d="M443.35,52.8V30.3h40v6.2l-4.6,4.9,4.6,5v6.3H476l-3.9-4.3-3.9,4.3Z"/><path class="cls-12" d="M446.05,50.3V32.8H461v4h-10.1v2.7h9.8v4h-9.8v2.7H461v4.1Z"/><path class="cls-12" d="M460.75,50.3l8.2-8.8-8.2-8.8h6.4l5,5.6,5-5.6h6.1v.1l-8.1,8.6,8.1,8.5v.2h-6.2L472,44.5l-5.1,5.6h-6.1Z"/><path class="cls-13" d="M445.15,10.3h9.6l3.4,7.7V10.3h11.9l2.1,5.8,2.1-5.8h9.1V32.8h-48Z"/><path class="cls-12" d="M447.05,12.8l-7.8,17.5h5.3l1.5-3.5h8l1.5,3.5h5.5l-7.7-17.5Zm.6,10.1,2.3-5.6,2.3,5.6Z"/><path class="cls-12" d="M460.85,30.3V12.8h7.5l3.9,10.8,3.9-10.8h7.2V30.3h-4.6v-12l-4.4,12h-4.2l-4.5-12v12Z"/><path class="cls-14" d="M924.55.3h22.8c3.2,0,5.2,2.9,4.4,6.4l-10.6,50.2c-.8,3.5-3.9,6.4-7.1,6.4h-22.8c-3.2,0-5.2-2.9-4.4-6.4l10.6-50.2c.7-3.5,3.9-6.4,7.1-6.4"/><path class="cls-15" d="M945.45.3h26.3c3.2,0,1.7,2.9,1,6.4l-10.6,50.2c-.7,3.5-.5,6.4-3.7,6.4h-26.3c-3.2,0-5.2-2.9-4.4-6.4l10.6-50.2c.7-3.5,3.9-6.4,7.1-6.4"/><path class="cls-16" d="M970.65.3h22.8c3.2,0,5.2,2.9,4.4,6.4l-10.6,50.2c-.8,3.5-3.9,6.4-7.1,6.4h-22.8c-3.2,0-5.2-2.9-4.4-6.4l10.6-50.2c.7-3.5,3.9-6.4,7.1-6.4"/><path class="cls-17" d="M930.45,16.4a18,18,0,0,1-3.3-.1c-.1.4-1.7,8.5-1.7,8.5-.3,1.6-.6,2.8-1.4,3.5a2.52,2.52,0,0,1-1.7.6,1.6,1.6,0,0,1-1.7-1.6v-.4l.3-2.2s1.7-7.3,2-8.3v-.1c-3.2,0-3.8,0-3.9-.1a4.33,4.33,0,0,1-.1.5l-1.7,8.3-.1.7-.3,2.3a3.06,3.06,0,0,0,.4,1.7c.8,1.5,3,1.7,4.2,1.7a7.35,7.35,0,0,0,4.1-1.1c1.8-1.2,2.2-3,2.6-4.5l.2-.8s1.7-7.6,2-8.6C930.45,16.5,930.45,16.5,930.45,16.4Zm5.9,6.2a3.52,3.52,0,0,0-1.8.5,3,3,0,0,0-.7.5l.2-.9-.1-.1c-1.4.3-1.8.4-3.1.6l-.1.1a51.89,51.89,0,0,1-.9,5.2c-.2,1-.4,2-.7,3.1l.1.1c1.4-.1,1.8-.1,3-.1l.1-.1c.2-.8.2-1,.5-2.8.2-.8.5-2.6.6-3.2a1.61,1.61,0,0,1,.9-.3c.7,0,.6.6.6.9s-.3,1.8-.5,3l-.2.8a10.46,10.46,0,0,1-.4,1.7l.1.1c1.3-.1,1.8-.1,2.9-.1l.1-.1c.2-1.3.3-1.7.6-3.6l.2-.9a6.92,6.92,0,0,0,.3-3.3A1.73,1.73,0,0,0,936.35,22.6Zm6.5,1.8a6.13,6.13,0,0,1-1.6.3,15.69,15.69,0,0,1-1.6.3l-.1.1h-.1c-.1.6-.1,1.1-.2,1.6s-.2,1.3-.4,2.2c-.2.7-.2,1-.3,1.3s-.2.5-.4,1.2v.2c.6,0,1.1-.1,1.5-.1h1.6l.1-.1.1-.1a9.68,9.68,0,0,1,.2-1.2,15,15,0,0,0,.4-2.1c.1-.6.3-1.2.4-1.8s.3-1.2.4-1.8Zm0-2.5a2.52,2.52,0,0,0-2.6.3c-.8.6-.8,1.4-.2,1.8a2.33,2.33,0,0,0,2.5-.3C943.35,23.2,943.45,22.4,942.85,21.9Zm3.9,9.8a4.66,4.66,0,0,0,3.7-1.6,9,9,0,0,0,1.3-3c.4-1.9.1-2.9-.3-3.4a3.34,3.34,0,0,0-2.7-1.1,5.06,5.06,0,0,0-3.5,1.3,5.9,5.9,0,0,0-1.5,3.3c-.2,1.2-.5,3.3,1.3,4.1A3.29,3.29,0,0,0,946.75,31.7Zm-.1-4.4c.3-1.5.7-2.7,1.6-2.7.7,0,.8.9.4,2.4a8.5,8.5,0,0,1-.7,2.1,1,1,0,0,1-.9.6c-.1,0-.7,0-.7-.9Zm8.3,4.2.1-.1c.1-.8.2-1,.5-2.8.2-.8.5-2.6.7-3.2a1.61,1.61,0,0,1,.9-.3c.7,0,.6.6.6.9s-.3,1.8-.5,3l-.2.8a10.46,10.46,0,0,1-.4,1.7l.1.1c1.3-.1,1.7-.1,2.9-.1l.1-.1c.2-1.3.3-1.7.6-3.6l.2-.9a6.92,6.92,0,0,0,.3-3.3,1.57,1.57,0,0,0-1.6-1,3.52,3.52,0,0,0-1.8.5,3,3,0,0,0-.7.5l.2-.9-.1-.1c-1.4.3-1.8.4-3.1.6l-.1.1a51.89,51.89,0,0,1-.9,5.2c-.2,1-.4,2-.7,3.1l.1.1A13.2,13.2,0,0,1,955,31.5Zm9.9.1c.1-.5.6-3.1.6-3.1a14.62,14.62,0,0,1,.5-2,.75.75,0,0,1,.3-.3h.2c1.9,0,4,0,5.6-1.3a6.61,6.61,0,0,0,2.2-3.9,5.9,5.9,0,0,0,.2-1.4,3.06,3.06,0,0,0-.4-1.7c-.8-1.3-2.5-1.3-4.5-1.3h-4.9a3.54,3.54,0,0,1-.1.6l-.9,4.5s-2.1,9.6-2.2,10.1A11.13,11.13,0,0,1,964.85,31.6Zm1.6-8.1.9-4.5v-.4h.4l2,.2c.8.3,1.1,1.2.9,2.3a3.29,3.29,0,0,1-1.6,2.3,5.09,5.09,0,0,1-2.2.4h-.5Zm5.9,3.9c-.2,1.2-.5,3.3,1.2,4.1a3.23,3.23,0,0,0,1.6.3,2.06,2.06,0,0,0,1.5-.8,4.33,4.33,0,0,1-.1.5l.1.1a16,16,0,0,1,3.1,0l.1-.1c.2-1.3.4-2.6.9-5.1.3-1.2.5-2.4.8-3.6v-.1c-1.4.3-1.8.4-3.2.6l-.1.1v.4a1.79,1.79,0,0,0-1-.9c-.6-.3-2.1.1-3.3,1.3A6.1,6.1,0,0,0,972.35,27.4Zm3,.1c.3-1.4.7-2.7,1.6-2.7.6,0,.9.6.8,1.6a3.09,3.09,0,0,1-.2.8c-.1.4-.2.9-.3,1.3a2.39,2.39,0,0,1-.3.7,1.38,1.38,0,0,1-1.1.6c-.1,0-.7,0-.7-.9A7.84,7.84,0,0,1,975.35,27.5Zm15.8-4.8-.1-.1c-1.4.3-1.7.4-3,.6l-.1.1v.1h0c-1,2.5-.9,1.9-1.7,3.9v-.2l-.2-4.2-.1-.1c-1.5.3-1.5.4-2.9.6l-.1.1v.2h0a22.27,22.27,0,0,1,.3,2.3c.1.7.2,1.5.3,2.2.1,1.2.2,1.8.4,3.7-.9,1.7-1.1,2.3-2,3.8h0l-.6,1.1c-.1.1-.1.2-.2.2s-.2.1-.4.1h-.3L980,39h1.8a2,2,0,0,0,2-1.3l1.1-2.1h0l.1-.1C985.35,33.5,991.15,22.7,991.15,22.7Zm-18.8,24.9h-.8l2.8-10.1h.9l.3-1v1.2c0,.7.5,1.4,1.8,1.2H979l.5-2h-.6c-.3,0-.5-.1-.5-.3V35.4h-2.9a28.07,28.07,0,0,0-4.3.3,4.49,4.49,0,0,0-1.4.8l.3-1h-2.7l-.6,2.1L964,47.9h-.5l-.5,1.9h5.4l-.2.6h2.7l.2-.6h.7Zm-2.2-8.1a8.66,8.66,0,0,0-1.2.5l.7-2.6h2.1l-.5,1.9Zm.1,3.7s-.7.1-1.1.2a8.51,8.51,0,0,0-1.3.6l.7-2.7h2.2Zm-1.2,4.4h-2.2l.6-2.3h2.1Zm5.1-6.3h3.1l-.4,1.6h-3.1l-.5,1.7h2.8L974,47.8c-.1.2-.3.3-.4.4a.85.85,0,0,1-.6.2h-.8l-.5,1.9h2a2.32,2.32,0,0,0,2.1-1.2l1.4-2.2.3,2.2a1,1,0,0,0,.5.7,1.49,1.49,0,0,0,.7.3h1.7L981,48h-.4c-.2,0-.6,0-.7-.1s-.1-.2-.1-.5l-.3-2.2h-1.3l.6-.7h3.1l.5-1.7h-2.9l.5-1.6h2.9l.5-2h-8.6ZM948,48l.7-2.7h3l.5-2h-3l.5-1.6h2.9l.5-1.9h-7.3l-.5,1.9H947l-.4,1.6h-1.7l-.5,2h1.7l-1,3.5c-.1.5.1.6.2.9a.7.7,0,0,0,.5.4,2.2,2.2,0,0,0,.8.1H950l.6-2.2-1.5.2C948.75,48.4,948,48.3,948,48Zm.4-12.7-.8,1.5a5.92,5.92,0,0,1-.4.6c-.1.1-.3.1-.7.1h-.4l-.5,1.9h1.3a2.83,2.83,0,0,0,1.3-.4,1.33,1.33,0,0,0,.5-.3l.4-.4h4.1l.5-2h-3l.5-1.1Zm6,12.8c-.1-.1,0-.3.1-.7l1.1-4.1h5.3a1.62,1.62,0,0,0,1-.4,1.58,1.58,0,0,0,.7-.7,7.83,7.83,0,0,0,.7-1.7l1.4-5.1h-4.1a12.47,12.47,0,0,0-1.8.4,8.67,8.67,0,0,0-1.4,1l.4-1.4h-2.5l-3.6,13a8.92,8.92,0,0,0-.2,1.1c0,.2.3.5.5.6s.5.1.8.2h3.4l.6-2.2-1.7.2C954.55,48.3,954.45,48.2,954.35,48.1Zm1.9-7.5h4.2l-.3.9H956Zm.9-3.1h4.2l-.3,1.1h-2.3a4.73,4.73,0,0,0-2.2,1.1Zm3.1,7c0,.1-.1.2-.2.3s-.2.1-.4.1h-.6V43.8h-2.5l-.1,5.4c0,.4,0,.6.3.8a4.83,4.83,0,0,0,2.1.3h1.5l.6-2-1.3.1h-.4c-.1,0-.1-.1-.2-.1s-.2,0-.1-.4V46.5l1.4-.1a2.05,2.05,0,0,0,1.4-.5,1.35,1.35,0,0,0,.5-.9l.2-1.2h-1.9Z"/><g id="_319-5" data-name="319"><g id="New-Icons-5" data-name="New-Icons"><g id="Card-Brands-5" data-name="Card-Brands"><g id="Color-5" data-name="Color"><g id="Visa-2" data-name="Visa"><path id="Container-2" data-name="Container" class="cls-1" d="M138.55.7h76.9a7.85,7.85,0,0,1,7.9,7.9V53.9a7.85,7.85,0,0,1-7.9,7.9h-76.9a7.85,7.85,0,0,1-7.9-7.9V8.6A7.85,7.85,0,0,1,138.55.7Z"/></g></g></g></g></g><path d="M153.65,20.1a4.8,4.8,0,0,1-3.7,1.7,5.06,5.06,0,0,1,1.3-3.8,5.58,5.58,0,0,1,3.6-1.9,5.62,5.62,0,0,1-1.2,4m1.2,2c-2-.1-3.7,1.1-4.7,1.1s-2.4-1.1-4-1.1a5.94,5.94,0,0,0-5.1,3.1c-2.2,3.7-.6,9.3,1.5,12.3,1,1.5,2.3,3.2,3.9,3.1s2.1-1,4-1,2.4,1,4,1,2.7-1.5,3.8-3a11.46,11.46,0,0,0,1.7-3.5,5.66,5.66,0,0,1-3.3-5,5.56,5.56,0,0,1,2.7-4.7,5.7,5.7,0,0,0-4.5-2.3m11.7-4.2V40.5h3.5V32.8H175a7.11,7.11,0,0,0,7.5-7.4,7.09,7.09,0,0,0-7.4-7.4h-8.5Zm3.5,2.9h4c3,0,4.8,1.6,4.8,4.5s-1.7,4.5-4.8,4.5h-4Zm18.8,19.8a5.88,5.88,0,0,0,5.2-2.9h.1v2.7h3.2V29.2c0-3.3-2.6-5.4-6.6-5.4-3.7,0-6.5,2.1-6.6,5.1h3.2a3.12,3.12,0,0,1,3.3-2.3c2.1,0,3.3,1,3.3,2.8v1.2l-4.4.3c-4.1.2-6.3,1.9-6.3,4.8S185.55,40.6,188.85,40.6Zm.9-2.6c-1.9,0-3.1-.9-3.1-2.3s1.1-2.2,3.3-2.4l3.9-.2v1.3C194,36.4,192.15,38,189.75,38Zm11.9,8.6c3.4,0,5-1.3,6.4-5.3l6.2-17.3h-3.6l-4.1,13.3h-.1L202.35,24h-3.7l5.9,16.4-.3,1a2.74,2.74,0,0,1-3,2.3,3.08,3.08,0,0,1-1-.1v2.7C200.55,46.6,201.35,46.6,201.65,46.6Z"/></g></g></svg>