<?xml version="1.0" encoding="utf-8"?>
<!-- Generator: Adobe Illustrator 24.3.0, SVG Export Plug-In . SVG Version: 6.00 Build 0)  -->
<svg version="1.1" id="Layer_1" xmlns="http://www.w3.org/2000/svg" xmlns:xlink="http://www.w3.org/1999/xlink" x="0px" y="0px"
	 viewBox="0 0 1216.9 383.4" style="enable-background:new 0 0 1216.9 383.4;" xml:space="preserve">
<style type="text/css">
	.st0{fill:#FFFFFF;stroke:#000000;stroke-width:0.5;stroke-opacity:0.2;}
	.st1{fill:#0165AC;}
	.st2{fill:#FFFFFF;}
	.st3{fill:#F27712;}
	.st4{fill:#047AB1;}
	.st5{fill:#D42D06;}
	.st6{fill:#67B637;}
	.st7{fill:#171E6C;}
	.st8{fill-rule:evenodd;clip-rule:evenodd;fill:#EB001B;}
	.st9{fill-rule:evenodd;clip-rule:evenodd;fill:#F79E1B;}
	.st10{fill-rule:evenodd;clip-rule:evenodd;fill:#FF5F00;}
	.st11{fill-rule:evenodd;clip-rule:evenodd;fill:#016FD0;}
	.st12{fill-rule:evenodd;clip-rule:evenodd;fill:#FFFFFE;}
	.st13{fill:#DD2423;}
	.st14{fill:#16315E;}
	.st15{fill:#036862;}
	.st16{fill:#FEFEFE;}
</style>
<g id="_x33_19">
	<g id="New-Icons" transform="translate(-320.000000, -280.000000)">
		<g id="Card-Brands" transform="translate(40.000000, 200.000000)">
			<g id="Color" transform="translate(0.000000, 80.000000)">
				<g id="Diners-Club" transform="translate(280.000000, 0.000000)">
					<path id="shape" class="st0" d="M745.6,208.3L745.6,208.3c3.8,0,6.9-3,6.9-6.9v-47.3c0-1.9-0.8-3.6-2.1-4.9c-1.3-1.3-3-2-4.9-2
						l-78.8,0c-1.8,0-3.6,0.7-4.8,2c-1.3,1.3-2,3.1-2.1,4.9l0,47.3c0,1.9,0.8,3.6,2.1,4.9c1.3,1.3,3,2,4.9,2H745.6z M745.6,210.3
						C745.6,210.3,745.6,210.3,745.6,210.3L745.6,210.3L745.6,210.3z"/>
					<path id="shape_1_" class="st1" d="M698.3,154.3L698.3,154.3l15.8-0.1v0.1c12.4,0.9,21.9,11.2,21.9,23.6s-9.6,22.7-21.9,23.6
						v0.1h-15.8v-0.1c-12.4-0.9-21.9-11.2-21.9-23.6S686,155.2,698.3,154.3z"/>
					<path id="shape_2_" class="st2" d="M704.7,191.3c5.7-2,9.4-7.4,9.4-13.4c0-6-3.8-11.4-9.4-13.4V191.3L704.7,191.3z
						 M695.2,164.5c-5.7,2-9.4,7.4-9.4,13.4c0,6,3.8,11.4,9.4,13.4V164.5L695.2,164.5z M699.9,198.4c-11.3,0-20.5-9.2-20.5-20.5
						s9.2-20.5,20.5-20.5s20.5,9.2,20.5,20.5S711.2,198.4,699.9,198.4z"/>
				</g>
			</g>
		</g>
	</g>
</g>
<g id="_x33_19_1_">
	<g id="New-Icons_1_" transform="translate(-280.000000, -280.000000)">
		<g id="Card-Brands_1_" transform="translate(40.000000, 200.000000)">
			<g id="Color_1_" transform="translate(0.000000, 80.000000)">
				<g id="Discover" transform="translate(240.000000, 0.000000)">
					<path id="shape_7_" class="st0" d="M875.8,208.6L875.8,208.6c3.8,0,6.9-3,6.9-6.9v-47.3c0-1.9-0.8-3.6-2.1-4.9
						c-1.3-1.3-3-2-4.9-2l-78.8,0c-1.8,0-3.6,0.7-4.8,2c-1.3,1.3-2,3.1-2.1,4.9v47.3c0,1.9,0.8,3.6,2.1,4.9c1.3,1.3,3,2,4.9,2H875.8
						z M875.8,210.6C875.8,210.6,875.8,210.6,875.8,210.6L875.8,210.6L875.8,210.6z"/>
					<path id="shape_6_" class="st3" d="M838.8,209.6h37c2.1,0,4.1-0.8,5.6-2.2c1.5-1.5,2.3-3.4,2.3-5.5v-9.3
						C869.7,200.6,854.6,206.3,838.8,209.6L838.8,209.6z"/>
					<path id="shape_5_" d="M880.5,183.2h-3.4l-3.8-5H873v5h-2.7v-12.4h4c3.2,0,5,1.3,5,3.7c0,1.9-1.1,3.2-3.2,3.6L880.5,183.2z
						 M876.4,174.5c0-1.2-0.9-1.8-2.6-1.8H873v3.8h0.8C875.5,176.5,876.4,175.8,876.4,174.5L876.4,174.5z M860.6,170.8h7.8v2.1h-5
						v2.8h4.8v2.1h-4.8v3.4h5v2.1h-7.8V170.8z M851.8,183.5l-5.9-12.8h3l3.8,8.3l3.8-8.3h2.9l-6,12.8H851.8L851.8,183.5z M827,183.5
						c-4.2,0-7.4-2.8-7.4-6.5c0-3.6,3.3-6.5,7.5-6.5c1.2,0,2.2,0.2,3.4,0.8v2.9c-0.9-0.9-2.1-1.4-3.4-1.4c-2.6,0-4.6,1.9-4.6,4.3
						c0,2.5,2,4.3,4.7,4.3c1.2,0,2.2-0.4,3.3-1.4v2.9C829.2,183.3,828.1,183.5,827,183.5L827,183.5z M818.7,179.4
						c0,2.4-2,4.1-4.9,4.1c-2.1,0-3.6-0.7-4.9-2.3l1.8-1.5c0.6,1.1,1.7,1.7,3,1.7c1.2,0,2.1-0.8,2.1-1.7c0-0.6-0.3-1-0.8-1.3
						c-0.6-0.3-1.2-0.5-1.9-0.7c-2.6-0.8-3.5-1.7-3.5-3.4c0-2,1.9-3.6,4.4-3.6c1.6,0,3,0.5,4.1,1.4l-1.4,1.6c-0.6-0.6-1.4-1-2.2-1
						c-1.2,0-2,0.6-2,1.4c0,0.7,0.5,1,2.1,1.6C817.8,176.5,818.7,177.4,818.7,179.4L818.7,179.4z M805.2,170.8h2.7v12.4h-2.7V170.8z
						 M796.4,183.2h-4v-12.4h4c4.4,0,7.5,2.5,7.5,6.2c0,1.9-0.9,3.6-2.5,4.8C800.1,182.7,798.5,183.2,796.4,183.2L796.4,183.2z
						 M799.6,173.9c-0.9-0.7-2-1-3.8-1h-0.8v8.2h0.8c1.8,0,2.9-0.3,3.8-1c0.9-0.8,1.5-2,1.5-3.2
						C801.1,175.8,800.6,174.6,799.6,173.9z"/>
					<path id="shape_3_" class="st3" d="M838.1,170.5c-3.6,0-6.5,2.9-6.5,6.4c0,3.8,2.8,6.6,6.5,6.6c3.7,0,6.5-2.9,6.5-6.5
						S841.7,170.5,838.1,170.5z"/>
				</g>
			</g>
		</g>
	</g>
</g>
<g>
	<path class="st4" d="M919.6,209.1h17.8c4.1,0,8.9-4.7,8.9-8.4v-54.6h-17.8c-4.1,0-8.9,4.7-8.9,12.6V209.1z"/>
	<path class="st2" d="M929.7,188.7c-3.4,0-6.8-0.5-10.1-1.3v-4.6c2.5,1.5,5.5,2.3,8.5,2.4c3.4,0,5.3-2.3,5.3-5.4v-12.7h8.5v12.7
		C941.9,184.7,939.1,188.7,929.7,188.7z"/>
	<path class="st5" d="M950.8,209.1h17.8c4.1,0,8.9-4.7,8.9-8.4v-54.6h-17.8c-4.1,0-8.9,4.7-8.9,12.6V209.1z"/>
	<path class="st2" d="M950.8,170c2.6-2.4,7-3.8,14.2-3.5c3.9,0.2,8,1.3,8,1.3v4.7c-2.3-1.3-5-2.2-7.7-2.4c-5.5-0.5-8.8,2.4-8.8,7.5
		s3.3,8,8.8,7.6c2.7-0.3,5.4-1.1,7.7-2.4v4.6c0,0-4.1,1.1-8,1.3c-7.2,0.3-11.7-1.1-14.2-3.5V170z"/>
	<path class="st6" d="M981.9,209.1h17.8c4.1,0,8.9-4.7,8.9-8.4v-54.6h-17.8c-4.1,0-8.9,4.7-8.9,12.6V209.1z"/>
	<path class="st2" d="M1004.2,182.6c0,3.4-2.8,5.5-6.5,5.5h-15.8v-21h14.4l1,0c3.2,0.2,5.7,2,5.7,5.1c0,2.4-1.6,4.5-4.6,5v0.1
		C1001.6,177.6,1004.2,179.6,1004.2,182.6z M992.8,170.4c-0.2,0-0.4,0-0.6,0h-5.3v5.3h5.9c1.1-0.3,2-1.2,2-2.6
		S993.9,170.6,992.8,170.4z M993.5,179c-0.2,0-0.5,0-0.7,0h-5.9v5.8h5.9l0.7-0.1c1.1-0.3,2-1.3,2-2.8S994.6,179.3,993.5,179z"/>
</g>
<g id="_x33_19_2_">
	<g id="New-Icons_2_" transform="translate(-80.000000, -280.000000)">
		<g id="Card-Brands_2_" transform="translate(40.000000, 200.000000)">
			<g id="Color_2_" transform="translate(0.000000, 80.000000)">
				<g id="Visa" transform="translate(40.000000, 0.000000)">
					<path id="Container" class="st0" d="M146.9,147.4h76.9c4.4,0,7.9,3.5,7.9,7.9v45.3c0,4.4-3.5,7.9-7.9,7.9h-76.9
						c-4.4,0-7.9-3.5-7.9-7.9v-45.3C139.1,151,142.6,147.4,146.9,147.4z"/>
					<path id="Shape" class="st7" d="M149.1,169.8c-2.1-1.1-4.4-2-7-2.7l0.1-0.5h10.8c1.5,0.1,2.6,0.5,3,2l2.3,11.2l0.7,3.4
						l6.6-16.6h7.1l-10.5,24.3H155L149.1,169.8L149.1,169.8z M177.9,190.9h-6.7l4.2-24.3h6.7L177.9,190.9z M202.2,167.2l-0.9,5.3
						l-0.6-0.3c-1.2-0.5-2.8-1-5-0.9c-2.6,0-3.8,1.1-3.9,2.1c0,1.1,1.4,1.9,3.8,3c3.9,1.7,5.7,3.9,5.6,6.6c-0.1,5-4.6,8.3-11.7,8.3
						c-3,0-5.9-0.6-7.5-1.3l0.9-5.5l0.9,0.4c2.2,0.9,3.6,1.3,6.3,1.3c1.9,0,4-0.8,4-2.4c0-1.1-0.9-1.8-3.5-3
						c-2.5-1.2-5.9-3.1-5.9-6.6c0-4.7,4.7-8,11.3-8C198.8,166.2,200.9,166.7,202.2,167.2z M211.1,182.3h5.6c-0.3-1.2-1.5-7-1.5-7
						l-0.5-2.1c-0.3,0.9-0.9,2.4-0.9,2.3C213.8,175.5,211.7,180.9,211.1,182.3z M219.4,166.6l5.4,24.3h-6.2c0,0-0.6-2.8-0.8-3.6
						h-8.6c-0.2,0.6-1.4,3.6-1.4,3.6h-7l10-22.3c0.7-1.6,1.9-2,3.5-2H219.4L219.4,166.6z"/>
				</g>
			</g>
		</g>
	</g>
</g>
<g>
	<g id="_x33_19_4_">
		<g id="New-Icons_5_" transform="translate(-320.000000, -280.000000)">
			<g id="Card-Brands_5_" transform="translate(40.000000, 200.000000)">
				<g id="Color_5_" transform="translate(0.000000, 80.000000)">
					<g id="Diners-Club_1_" transform="translate(280.000000, 0.000000)">
						<path id="shape_11_" class="st0" d="M484.6,207.9L484.6,207.9c3.8,0,6.9-3,6.9-6.9l0-47.3c0-1.9-0.8-3.6-2.1-4.9
							c-1.3-1.3-3-2-4.9-2l-78.8,0c-1.8,0-3.6,0.7-4.8,2c-1.3,1.3-2,3.1-2.1,4.9l0,47.3c0,1.9,0.8,3.6,2.1,4.9c1.3,1.3,3,2,4.9,2
							H484.6z M484.6,209.9C484.6,209.9,484.6,209.9,484.6,209.9L484.6,209.9L484.6,209.9z"/>
					</g>
				</g>
			</g>
		</g>
	</g>
	<g>
		<circle class="st8" cx="433.4" cy="176.6" r="19.7"/>
		<circle class="st9" cx="457" cy="176.6" r="19.7"/>
		<path class="st10" d="M445.2,160.8c4.8,3.6,7.9,9.3,7.9,15.8c0,6.4-3.1,12.2-7.9,15.8c-4.8-3.6-7.9-9.3-7.9-15.8
			C437.3,170.1,440.4,164.4,445.2,160.8z"/>
	</g>
</g>
<g>
	<path class="st11" d="M535.7,146.1h78.8c4.4,0,7.9,3.5,7.9,7.9v47.3c0,4.4-3.5,7.9-7.9,7.9h-78.8c-4.4,0-7.9-3.5-7.9-7.9V154
		C527.8,149.6,531.4,146.1,535.7,146.1z"/>
	<path class="st12" d="M582.1,198.9v-22.5l40,0v6.2l-4.6,4.9l4.6,5v6.3h-7.4l-3.9-4.3l-3.9,4.3L582.1,198.9z"/>
	<path class="st11" d="M584.8,196.4v-17.5h14.9v4h-10.1v2.7h9.8v4h-9.8v2.7h10.1v4.1H584.8z"/>
	<path class="st11" d="M599.5,196.4l8.2-8.8l-8.2-8.8h6.4l5,5.6l5-5.6h6.1v0.1l-8.1,8.6l8.1,8.5v0.2h-6.2l-5.1-5.6l-5.1,5.6H599.5z"
		/>
	<path class="st12" d="M583.9,156.4h9.6l3.4,7.7v-7.7h11.9l2.1,5.8l2.1-5.8h9.1v22.5h-48L583.9,156.4z"/>
	<g>
		<path class="st11" d="M585.8,158.9l-7.8,17.5h5.3l1.5-3.5h8l1.5,3.5h5.5l-7.7-17.5H585.8z M586.4,169l2.3-5.6l2.3,5.6H586.4z"/>
		<path class="st11" d="M599.6,176.4v-17.5l7.5,0l3.9,10.8l3.9-10.8h7.2v17.5l-4.6,0v-12l-4.4,12h-4.2l-4.5-12v12H599.6z"/>
	</g>
</g>
<g>
	<path class="st13" d="M1063.3,146.4h22.8c3.2,0,5.2,2.9,4.4,6.4l-10.6,50.2c-0.8,3.5-3.9,6.4-7.1,6.4h-22.8c-3.2,0-5.2-2.9-4.4-6.4
		l10.6-50.2C1056.9,149.3,1060.1,146.4,1063.3,146.4"/>
	<path class="st14" d="M1084.2,146.4h26.3c3.2,0,1.7,2.9,1,6.4l-10.6,50.2c-0.7,3.5-0.5,6.4-3.7,6.4h-26.3c-3.2,0-5.2-2.9-4.4-6.4
		l10.6-50.2C1077.8,149.3,1081,146.4,1084.2,146.4"/>
	<path class="st15" d="M1109.4,146.4h22.8c3.2,0,5.2,2.9,4.4,6.4l-10.6,50.2c-0.8,3.5-3.9,6.4-7.1,6.4h-22.8c-3.2,0-5.2-2.9-4.4-6.4
		l10.6-50.2C1103,149.3,1106.2,146.4,1109.4,146.4"/>
	<path class="st16" d="M1069.2,162.5c-2.3,0-3,0-3.3-0.1c-0.1,0.4-1.7,8.5-1.7,8.5c-0.3,1.6-0.6,2.8-1.4,3.5c-0.5,0.4-1,0.6-1.7,0.6
		c-1,0-1.6-0.6-1.7-1.6l0-0.4c0,0,0.3-2.2,0.3-2.2c0,0,1.7-7.3,2-8.3c0-0.1,0-0.1,0-0.1c-3.2,0-3.8,0-3.9-0.1c0,0.1-0.1,0.5-0.1,0.5
		l-1.7,8.3l-0.1,0.7l-0.3,2.3c0,0.7,0.1,1.2,0.4,1.7c0.8,1.5,3,1.7,4.2,1.7c1.6,0,3.1-0.4,4.1-1.1c1.8-1.2,2.2-3,2.6-4.5l0.2-0.8
		c0,0,1.7-7.6,2-8.6C1069.2,162.6,1069.2,162.6,1069.2,162.5z M1075.1,168.7c-0.4,0-1.2,0.1-1.8,0.5c-0.2,0.1-0.5,0.3-0.7,0.5
		l0.2-0.9l-0.1-0.1c-1.4,0.3-1.8,0.4-3.1,0.6l-0.1,0.1c-0.2,1.4-0.3,2.5-0.9,5.2c-0.2,1-0.4,2-0.7,3.1l0.1,0.1
		c1.4-0.1,1.8-0.1,3-0.1l0.1-0.1c0.2-0.8,0.2-1,0.5-2.8c0.2-0.8,0.5-2.6,0.6-3.2c0.3-0.2,0.6-0.3,0.9-0.3c0.7,0,0.6,0.6,0.6,0.9
		c0,0.4-0.3,1.8-0.5,3l-0.2,0.8c-0.1,0.6-0.2,1.1-0.4,1.7l0.1,0.1c1.3-0.1,1.8-0.1,2.9-0.1l0.1-0.1c0.2-1.3,0.3-1.7,0.6-3.6l0.2-0.9
		c0.4-1.7,0.5-2.6,0.3-3.3C1076.4,168.9,1075.7,168.7,1075.1,168.7z M1081.6,170.5c-0.7,0.2-1.2,0.3-1.6,0.3
		c-0.4,0.1-0.9,0.2-1.6,0.3l-0.1,0.1l-0.1,0c-0.1,0.6-0.1,1.1-0.2,1.6c-0.1,0.6-0.2,1.3-0.4,2.2c-0.2,0.7-0.2,1-0.3,1.3
		c-0.1,0.3-0.2,0.5-0.4,1.2l0,0.1l0,0.1c0.6,0,1.1-0.1,1.5-0.1c0.4,0,0.9,0,1.6,0l0.1-0.1l0.1-0.1c0.1-0.7,0.1-0.8,0.2-1.2
		c0.1-0.3,0.2-0.8,0.4-2.1c0.1-0.6,0.3-1.2,0.4-1.8c0.1-0.6,0.3-1.2,0.4-1.8L1081.6,170.5L1081.6,170.5z M1081.6,168
		c-0.6-0.4-1.8-0.3-2.6,0.3c-0.8,0.6-0.8,1.4-0.2,1.8c0.6,0.4,1.8,0.3,2.5-0.3C1082.1,169.3,1082.2,168.5,1081.6,168z M1085.5,177.8
		c1.3,0,2.7-0.4,3.7-1.6c0.8-1,1.1-2.4,1.3-3c0.4-1.9,0.1-2.9-0.3-3.4c-0.6-0.8-1.7-1.1-2.7-1.1c-0.7,0-2.2,0.1-3.5,1.3
		c-0.9,0.9-1.3,2.1-1.5,3.3c-0.2,1.2-0.5,3.3,1.3,4.1C1084.2,177.7,1085,177.8,1085.5,177.8z M1085.4,173.4c0.3-1.5,0.7-2.7,1.6-2.7
		c0.7,0,0.8,0.9,0.4,2.4c-0.1,0.3-0.3,1.5-0.7,2.1c-0.2,0.4-0.5,0.6-0.9,0.6c-0.1,0-0.7,0-0.7-0.9
		C1085.2,174.4,1085.3,173.9,1085.4,173.4z M1093.7,177.6l0.1-0.1c0.1-0.8,0.2-1,0.5-2.8c0.2-0.8,0.5-2.6,0.7-3.2
		c0.3-0.2,0.6-0.3,0.9-0.3c0.7,0,0.6,0.6,0.6,0.9c0,0.4-0.3,1.8-0.5,3l-0.2,0.8c-0.1,0.6-0.2,1.1-0.4,1.7l0.1,0.1
		c1.3-0.1,1.7-0.1,2.9-0.1l0.1-0.1c0.2-1.3,0.3-1.7,0.6-3.6l0.2-0.9c0.4-1.7,0.5-2.6,0.3-3.3c-0.3-0.8-1-1-1.6-1
		c-0.4,0-1.2,0.1-1.8,0.5c-0.2,0.1-0.5,0.3-0.7,0.5l0.2-0.9l-0.1-0.1c-1.4,0.3-1.8,0.4-3.1,0.6l-0.1,0.1c-0.2,1.4-0.3,2.5-0.9,5.2
		c-0.2,1-0.4,2-0.7,3.1l0.1,0.1C1092.1,177.6,1092.5,177.6,1093.7,177.6z M1103.6,177.7c0.1-0.5,0.6-3.1,0.6-3.1c0,0,0.4-2,0.5-2
		c0,0,0.1-0.2,0.3-0.3h0.2c1.9,0,4,0,5.6-1.3c1.1-0.9,1.9-2.3,2.2-3.9c0.1-0.4,0.2-0.9,0.2-1.4c0-0.6-0.1-1.3-0.4-1.7
		c-0.8-1.3-2.5-1.3-4.5-1.3c0,0-1,0-1,0c-2.5,0-3.5,0-3.9,0c0,0.2-0.1,0.6-0.1,0.6s-0.9,4.5-0.9,4.5c0,0-2.1,9.6-2.2,10.1
		C1102.3,177.6,1103.2,177.6,1103.6,177.7z M1105.2,169.6c0,0,0.9-4.5,0.9-4.5l0-0.2l0-0.2l0.4,0c0,0,2,0.2,2,0.2
		c0.8,0.3,1.1,1.2,0.9,2.3c-0.2,1-0.8,1.9-1.6,2.3c-0.6,0.3-1.4,0.4-2.2,0.4h-0.5L1105.2,169.6z M1111.1,173.5
		c-0.2,1.2-0.5,3.3,1.2,4.1c0.6,0.3,1.1,0.3,1.6,0.3c0.5,0,1.1-0.3,1.5-0.8c0,0.2-0.1,0.4-0.1,0.5l0.1,0.1c1.3-0.1,1.7-0.1,3.1,0
		l0.1-0.1c0.2-1.3,0.4-2.6,0.9-5.1c0.3-1.2,0.5-2.4,0.8-3.6l0-0.1c-1.4,0.3-1.8,0.4-3.2,0.6l-0.1,0.1c0,0.1,0,0.2,0,0.4
		c-0.2-0.4-0.5-0.7-1-0.9c-0.6-0.3-2.1,0.1-3.3,1.3C1111.8,171.1,1111.4,172.3,1111.1,173.5z M1114.1,173.6c0.3-1.4,0.7-2.7,1.6-2.7
		c0.6,0,0.9,0.6,0.8,1.6c0,0.2-0.1,0.5-0.2,0.8c-0.1,0.4-0.2,0.9-0.3,1.3c-0.1,0.3-0.2,0.6-0.3,0.7c-0.2,0.4-0.8,0.6-1.1,0.6
		c-0.1,0-0.7,0-0.7-0.9C1113.9,174.6,1114,174.1,1114.1,173.6z M1129.9,168.8l-0.1-0.1c-1.4,0.3-1.7,0.4-3,0.6l-0.1,0.1
		c0,0,0,0,0,0.1l0,0c-1,2.5-0.9,1.9-1.7,3.9c0-0.1,0-0.1,0-0.2l-0.2-4.2l-0.1-0.1c-1.5,0.3-1.5,0.4-2.9,0.6l-0.1,0.1
		c0,0.1,0,0.1,0,0.2l0,0c0.2,1,0.1,0.7,0.3,2.3c0.1,0.7,0.2,1.5,0.3,2.2c0.1,1.2,0.2,1.8,0.4,3.7c-0.9,1.7-1.1,2.3-2,3.8l0,0
		l-0.6,1.1c-0.1,0.1-0.1,0.2-0.2,0.2c-0.1,0.1-0.2,0.1-0.4,0.1h-0.3l-0.5,1.9l1.8,0c1,0,1.7-0.5,2-1.3l1.1-2.1h0l0.1-0.1
		C1124.1,179.6,1129.9,168.8,1129.9,168.8z M1111.1,193.7h-0.8l2.8-10.1h0.9l0.3-1l0,1.2c0,0.7,0.5,1.4,1.8,1.2h1.6l0.5-2h-0.6
		c-0.3,0-0.5-0.1-0.5-0.3l0-1.2h-2.9v0c-0.9,0-3.7,0.1-4.3,0.3c-0.7,0.2-1.4,0.8-1.4,0.8l0.3-1h-2.7l-0.6,2.1l-2.8,10.3h-0.5
		l-0.5,1.9h5.4l-0.2,0.6h2.7l0.2-0.6h0.7L1111.1,193.7z M1108.9,185.6c-0.4,0.1-1.2,0.5-1.2,0.5l0.7-2.6h2.1l-0.5,1.9
		C1110,185.4,1109.4,185.5,1108.9,185.6z M1109,189.3c0,0-0.7,0.1-1.1,0.2c-0.4,0.1-1.3,0.6-1.3,0.6l0.7-2.7h2.2L1109,189.3z
		 M1107.8,193.7h-2.2l0.6-2.3h2.1L1107.8,193.7z M1112.9,187.4h3.1l-0.4,1.6h-3.1l-0.5,1.7h2.8l-2.1,3.2c-0.1,0.2-0.3,0.3-0.4,0.4
		c-0.1,0.1-0.3,0.2-0.6,0.2h-0.8l-0.5,1.9h2c1,0,1.7-0.5,2.1-1.2l1.4-2.2l0.3,2.2c0.1,0.4,0.3,0.6,0.5,0.7c0.2,0.1,0.4,0.3,0.7,0.3
		c0.3,0,0.5,0,0.7,0h1l0.6-2.1h-0.4c-0.2,0-0.6,0-0.7-0.1c-0.1-0.1-0.1-0.2-0.1-0.5l-0.3-2.2h-1.3l0.6-0.7h3.1l0.5-1.7h-2.9l0.5-1.6
		h2.9l0.5-2h-8.6L1112.9,187.4z M1086.7,194.1l0.7-2.7h3l0.5-2h-3l0.5-1.6h2.9l0.5-1.9h-7.3l-0.5,1.9h1.7l-0.4,1.6h-1.7l-0.5,2h1.7
		l-1,3.5c-0.1,0.5,0.1,0.6,0.2,0.9c0.1,0.2,0.2,0.3,0.5,0.4c0.3,0.1,0.5,0.1,0.8,0.1h3.4l0.6-2.2l-1.5,0.2
		C1087.5,194.5,1086.7,194.4,1086.7,194.1z M1087.1,181.4l-0.8,1.5c-0.2,0.3-0.3,0.5-0.4,0.6c-0.1,0.1-0.3,0.1-0.7,0.1h-0.4
		l-0.5,1.9h1.3c0.6,0,1.1-0.3,1.3-0.4c0.2-0.1,0.3-0.1,0.5-0.3l0.4-0.4h4.1l0.5-2h-3l0.5-1.1L1087.1,181.4z M1093.1,194.2
		c-0.1-0.1,0-0.3,0.1-0.7l1.1-4.1h4c0.6,0,1,0,1.3,0c0.3,0,0.6-0.1,1-0.4c0.4-0.2,0.5-0.4,0.7-0.7c0.2-0.3,0.4-0.8,0.7-1.7l1.4-5.1
		l-4.1,0c0,0-1.3,0.2-1.8,0.4c-0.6,0.3-1.4,1-1.4,1l0.4-1.4h-2.5l-3.6,13c-0.1,0.5-0.2,0.9-0.2,1.1c0,0.2,0.3,0.5,0.5,0.6
		c0.2,0.2,0.5,0.1,0.8,0.2c0.3,0,0.8,0,1.4,0h2l0.6-2.2l-1.7,0.2C1093.3,194.4,1093.2,194.3,1093.1,194.2z M1095,186.7h4.2l-0.3,0.9
		c0,0-0.1,0-0.6,0h-3.6L1095,186.7z M1095.9,183.6h4.2l-0.3,1.1c0,0-2,0-2.3,0c-1.4,0.3-2.2,1.1-2.2,1.1L1095.9,183.6z M1099,190.6
		c0,0.1-0.1,0.2-0.2,0.3c-0.1,0.1-0.2,0.1-0.4,0.1h-0.6l0-1.1h-2.5l-0.1,5.4c0,0.4,0,0.6,0.3,0.8c0.3,0.2,1.1,0.3,2.1,0.3h1.5l0.6-2
		l-1.3,0.1l-0.4,0c-0.1,0-0.1-0.1-0.2-0.1c-0.1-0.1-0.2,0-0.1-0.4l0-1.4l1.4-0.1c0.8,0,1.1-0.3,1.4-0.5c0.3-0.2,0.4-0.5,0.5-0.9
		l0.2-1.2h-1.9L1099,190.6z"/>
</g>
<g id="_x33_19_3_">
	<g id="New-Icons_3_" transform="translate(-80.000000, -280.000000)">
		<g id="Card-Brands_3_" transform="translate(40.000000, 200.000000)">
			<g id="Color_3_" transform="translate(0.000000, 80.000000)">
				<g id="Visa_1_" transform="translate(40.000000, 0.000000)">
					<path id="Container_1_" class="st0" d="M277.3,146.8h76.9c4.4,0,7.9,3.5,7.9,7.9V200c0,4.4-3.5,7.9-7.9,7.9h-76.9
						c-4.4,0-7.9-3.5-7.9-7.9v-45.3C269.4,150.3,272.9,146.8,277.3,146.8z"/>
				</g>
			</g>
		</g>
	</g>
</g>
<g>
	<path id="XMLID_34_" d="M292.4,166.2c-0.9,1-2.3,1.8-3.7,1.7c-0.2-1.4,0.5-2.9,1.3-3.8c0.9-1.1,2.4-1.8,3.6-1.9
		C293.8,163.7,293.2,165.1,292.4,166.2 M293.6,168.2c-2-0.1-3.7,1.1-4.7,1.1c-1,0-2.4-1.1-4-1.1c-2.1,0-4,1.2-5.1,3.1
		c-2.2,3.7-0.6,9.3,1.5,12.3c1,1.5,2.3,3.2,3.9,3.1c1.5-0.1,2.1-1,4-1c1.9,0,2.4,1,4,1c1.7,0,2.7-1.5,3.8-3c1.2-1.7,1.7-3.4,1.7-3.5
		c0,0-3.2-1.3-3.3-5c0-3.1,2.5-4.6,2.7-4.7C296.7,168.5,294.4,168.2,293.6,168.2 M305.3,164v22.6h3.5v-7.7h4.9c4.4,0,7.5-3,7.5-7.4
		c0-4.4-3.1-7.4-7.4-7.4H305.3L305.3,164z M308.8,166.9h4c3,0,4.8,1.6,4.8,4.5s-1.7,4.5-4.8,4.5h-4V166.9z M327.6,186.7
		c2.2,0,4.2-1.1,5.2-2.9h0.1v2.7h3.2v-11.2c0-3.3-2.6-5.4-6.6-5.4c-3.7,0-6.5,2.1-6.6,5.1h3.2c0.3-1.4,1.6-2.3,3.3-2.3
		c2.1,0,3.3,1,3.3,2.8v1.2l-4.4,0.3c-4.1,0.2-6.3,1.9-6.3,4.8C322,184.8,324.3,186.7,327.6,186.7z M328.5,184.1
		c-1.9,0-3.1-0.9-3.1-2.3c0-1.4,1.1-2.2,3.3-2.4l3.9-0.2v1.3C332.7,182.5,330.9,184.1,328.5,184.1z M340.4,192.7
		c3.4,0,5-1.3,6.4-5.3l6.2-17.3h-3.6l-4.1,13.3h-0.1l-4.1-13.3h-3.7l5.9,16.4l-0.3,1c-0.5,1.7-1.4,2.3-3,2.3c-0.3,0-0.8,0-1-0.1v2.7
		C339.3,192.7,340.1,192.7,340.4,192.7z"/>
</g>
</svg>
