<svg id="Layer_1" data-name="Layer 1" xmlns="http://www.w3.org/2000/svg" viewBox="0 0 998.02 64.76"><defs><style>.cls-1,.cls-12,.cls-3{fill:#fff;}.cls-1{stroke:#999;stroke-opacity:0.2;stroke-width:0.5px;}.cls-2{fill:#b9b9b9;}.cls-4{fill:#d3d3d3;}.cls-5{fill:#999;}.cls-6{fill:#969696;}.cls-7{fill:#a0a0a0;}.cls-8{fill:#a8a8a8;}.cls-9{fill:#b6b6b6;}.cls-10{fill:#ddd;}.cls-11{fill:#cecece;}.cls-11,.cls-12,.cls-13{fill-rule:evenodd;}.cls-13{fill:#bcbcbc;}.cls-14{fill:#8e8e8e;}.cls-15{fill:#9b9b9b;}</style></defs><g id="_319" data-name="319"><g id="New-Icons"><g id="Card-Brands"><g id="Color"><g id="Diners-Club"><path id="shape" class="cls-1" d="M745.62,208.28h0a6.9,6.9,0,0,0,6.9-6.88V154.12a7,7,0,0,0-2-4.92,6.74,6.74,0,0,0-4.86-2H666.81a6.75,6.75,0,0,0-4.85,2,7.06,7.06,0,0,0-2.05,4.91v47.25a7.11,7.11,0,0,0,2.05,4.93,6.79,6.79,0,0,0,4.86,2Zm0,2h0Z" transform="translate(-138.82 -146.07)"/><path id="shape-2" data-name="shape" class="cls-2" d="M698.35,154.3v-.06h15.76v.06a23.65,23.65,0,0,1,0,47.17v.06H698.35v-.06a23.65,23.65,0,0,1,0-47.17Z" transform="translate(-138.82 -146.07)"/><path id="shape-3" data-name="shape" class="cls-3" d="M704.65,191.25a14.19,14.19,0,0,0,0-26.74v26.74Zm-9.45-26.74a14.19,14.19,0,0,0,0,26.74V164.51Zm4.72,33.87a20.5,20.5,0,1,1,20.5-20.5A20.5,20.5,0,0,1,699.92,198.38Z" transform="translate(-138.82 -146.07)"/></g></g></g></g></g><g id="_319-2" data-name="319"><g id="New-Icons-2" data-name="New-Icons"><g id="Card-Brands-2" data-name="Card-Brands"><g id="Color-2" data-name="Color"><g id="Discover"><path id="shape-4" data-name="shape" class="cls-1" d="M875.82,208.61h0a6.92,6.92,0,0,0,6.9-6.88V154.44a7,7,0,0,0-2.05-4.92,6.74,6.74,0,0,0-4.86-2H797a6.75,6.75,0,0,0-4.85,2,7.08,7.08,0,0,0-2,4.91v47.25a7.11,7.11,0,0,0,2,4.93,6.84,6.84,0,0,0,4.86,2Zm0,2h0Z" transform="translate(-138.82 -146.07)"/><path id="shape-5" data-name="shape" class="cls-4" d="M838.84,209.59h37a7.82,7.82,0,0,0,7.89-7.76v-9.3a152.45,152.45,0,0,1-44.87,17.06Z" transform="translate(-138.82 -146.07)"/><path id="shape-6" data-name="shape" class="cls-5" d="M880.45,183.17h-3.36l-3.78-5H873v5h-2.74V170.78h4c3.16,0,5,1.3,5,3.65,0,1.93-1.15,3.17-3.2,3.56Zm-4-8.64c0-1.21-.91-1.83-2.61-1.83H873v3.75h.78c1.77,0,2.68-.65,2.68-1.92Zm-15.79-3.75h7.77v2.09h-5v2.77h4.83v2.12h-4.83v3.36h5v2.08h-7.77Zm-8.8,12.72-5.94-12.75h3l3.75,8.35,3.79-8.35h2.93l-6,12.75h-1.53Zm-24.82,0c-4.18,0-7.44-2.84-7.44-6.53s3.33-6.49,7.5-6.49a8,8,0,0,1,3.36.75v2.87a4.86,4.86,0,0,0-3.42-1.4,4.39,4.39,0,0,0-4.6,4.27c0,2.51,2,4.31,4.73,4.31a4.6,4.6,0,0,0,3.29-1.37v2.87a8.42,8.42,0,0,1-3.42.72Zm-8.29-4.08c0,2.41-2,4.08-4.86,4.08a5.67,5.67,0,0,1-4.86-2.35l1.8-1.54a3.2,3.2,0,0,0,3,1.67,1.9,1.9,0,0,0,2.12-1.73,1.45,1.45,0,0,0-.81-1.31,11.63,11.63,0,0,0-1.89-.71c-2.58-.82-3.46-1.7-3.46-3.43,0-2,1.89-3.55,4.37-3.55a6.61,6.61,0,0,1,4.14,1.4l-1.43,1.63a3,3,0,0,0-2.22-1c-1.17,0-2,.59-2,1.37s.49,1,2.12,1.57c3.13,1,4,1.89,4,3.91Zm-13.47-8.61H808V183.2h-2.74Zm-8.8,12.42h-4.05V170.78h4.05c4.43,0,7.5,2.54,7.5,6.2a6,6,0,0,1-2.51,4.79,8.13,8.13,0,0,1-5,1.43Zm3.19-9.32a5.53,5.53,0,0,0-3.75-1h-.75v8.22h.75a5.94,5.94,0,0,0,3.75-1,4.12,4.12,0,0,0,1.5-3.16A3.94,3.94,0,0,0,799.63,173.88Z" transform="translate(-138.82 -146.07)"/><path id="shape-7" data-name="shape" class="cls-4" d="M838.05,170.45a6.53,6.53,0,1,0,6.53,6.53A6.48,6.48,0,0,0,838.05,170.45Z" transform="translate(-138.82 -146.07)"/></g></g></g></g></g><path class="cls-6" d="M919.6,209.12h17.81c4.05,0,8.9-4.71,8.9-8.4V146.07H928.5c-4,0-8.9,4.7-8.9,12.61Z" transform="translate(-138.82 -146.07)"/><path class="cls-3" d="M929.7,188.69a38.64,38.64,0,0,1-10.1-1.34v-4.63a18.09,18.09,0,0,0,8.46,2.44,5,5,0,0,0,5.34-5.38v-12.7h8.46v12.7C941.86,184.74,939.1,188.69,929.7,188.69Z" transform="translate(-138.82 -146.07)"/><path class="cls-7" d="M950.76,209.12h17.8c4.05,0,8.91-4.71,8.91-8.4V146.07H959.66c-4,0-8.9,4.7-8.9,12.61Z" transform="translate(-138.82 -146.07)"/><path class="cls-3" d="M950.76,170c2.58-2.36,7-3.83,14.24-3.49a43.51,43.51,0,0,1,8,1.26v4.67a18.9,18.9,0,0,0-7.71-2.4c-5.47-.46-8.81,2.44-8.81,7.52s3.34,8,8.81,7.57a19.11,19.11,0,0,0,7.71-2.44v4.63a41.81,41.81,0,0,1-8,1.3c-7.21.34-11.66-1.13-14.24-3.49Z" transform="translate(-138.82 -146.07)"/><path class="cls-4" d="M981.92,209.12h17.8c4,0,8.91-4.71,8.91-8.4V146.07H990.82c-4.05,0-8.9,4.7-8.9,12.61Z" transform="translate(-138.82 -146.07)"/><path class="cls-3" d="M1004.17,182.64c0,3.36-2.76,5.46-6.45,5.46h-15.8v-21H996.3l1,0c3.25.16,5.65,2,5.65,5.08,0,2.44-1.64,4.54-4.63,5v.12C1001.64,177.59,1004.17,179.57,1004.17,182.64Zm-11.35-12.23a3.68,3.68,0,0,0-.58,0H986.9v5.3h5.92a2.62,2.62,0,0,0,2-2.65A2.54,2.54,0,0,0,992.82,170.41Zm.67,8.57a4.17,4.17,0,0,0-.71,0H986.9v5.76h5.88l.71-.09a3,3,0,0,0,0-5.63Z" transform="translate(-138.82 -146.07)"/><g id="_319-3" data-name="319"><g id="New-Icons-3" data-name="New-Icons"><g id="Card-Brands-3" data-name="Card-Brands"><g id="Color-3" data-name="Color"><g id="Visa"><rect id="Container" class="cls-1" x="0.25" y="1.37" width="92.61" height="61.09" rx="7.88"/><path id="Shape-8" data-name="Shape" class="cls-8" d="M149.07,169.76a28.39,28.39,0,0,0-7-2.67l.11-.5h10.79c1.46.06,2.65.5,3,2l2.35,11.18.72,3.36,6.56-16.59h7.09l-10.54,24.3H155l-6-21.13Zm28.82,21.16h-6.71l4.19-24.33h6.71Zm24.3-23.73-.91,5.25-.61-.26a12.06,12.06,0,0,0-5-.93c-2.65,0-3.84,1.06-3.86,2.1s1.43,1.89,3.78,3c3.86,1.73,5.65,3.86,5.62,6.63-.05,5-4.63,8.3-11.66,8.3a21.5,21.5,0,0,1-7.48-1.29l.94-5.46.88.39a14.16,14.16,0,0,0,6.29,1.29c1.93,0,4-.75,4-2.38,0-1.06-.89-1.84-3.48-3s-5.93-3.1-5.88-6.6c0-4.73,4.7-8,11.32-8A17.5,17.5,0,0,1,202.19,167.19Zm8.91,15.11h5.57c-.27-1.21-1.54-7-1.54-7l-.47-2.09c-.33.9-.91,2.38-.88,2.33Zm8.28-15.71,5.4,24.33h-6.2s-.61-2.8-.8-3.65h-8.61l-1.41,3.65h-7l10-22.31c.69-1.58,1.9-2,3.5-2Z" transform="translate(-138.82 -146.07)"/></g></g></g></g></g><g id="_319-4" data-name="319"><g id="New-Icons-4" data-name="New-Icons"><g id="Card-Brands-4" data-name="Card-Brands"><g id="Color-4" data-name="Color"><g id="Diners-Club-2" data-name="Diners-Club"><path id="shape-9" data-name="shape" class="cls-1" d="M484.58,207.93h0a6.9,6.9,0,0,0,6.9-6.88V153.77a7.11,7.11,0,0,0-2.05-4.93,6.79,6.79,0,0,0-4.86-2H405.77a6.78,6.78,0,0,0-4.85,2,7.06,7.06,0,0,0-2.05,4.92V201a7.06,7.06,0,0,0,2.05,4.93,6.79,6.79,0,0,0,4.86,2Zm0,2Z" transform="translate(-138.82 -146.07)"/></g></g></g></g></g><circle class="cls-9" cx="294.54" cy="30.52" r="19.71"/><circle class="cls-10" cx="318.19" cy="30.52" r="19.71"/><path class="cls-11" d="M445.18,160.82a19.71,19.71,0,0,1,0,31.53,19.71,19.71,0,0,1,0-31.53Z" transform="translate(-138.82 -146.07)"/><rect class="cls-7" x="389.02" width="94.59" height="63.06" rx="7.88"/><path class="cls-12" d="M582.08,198.85V176.39l40,0v6.21l-4.63,4.94,4.63,5v6.34H614.7l-3.93-4.33-3.89,4.35Z" transform="translate(-138.82 -146.07)"/><path class="cls-13" d="M584.76,196.39V178.86h14.86v4h-10v2.74h9.81v4h-9.81v2.69h10v4.09Z" transform="translate(-138.82 -146.07)"/><path class="cls-13" d="M599.55,196.39l8.22-8.78-8.22-8.75h6.37l5,5.56,5-5.56h6.1V179L614,187.61l8.05,8.53v.25h-6.16l-5.11-5.61-5.07,5.61Z" transform="translate(-138.82 -146.07)"/><path class="cls-12" d="M584,156.44h9.64l3.39,7.69v-7.69h11.9l2,5.76,2.06-5.76h9.09v22.47h-48Z" transform="translate(-138.82 -146.07)"/><path class="cls-13" d="M585.78,158.88,578,176.4h5.33l1.47-3.51h8l1.47,3.51h5.47l-7.75-17.52Zm.66,10.08,2.34-5.58,2.33,5.58Z" transform="translate(-138.82 -146.07)"/><path class="cls-13" d="M599.61,176.4V158.88l7.5,0L611,169.68l3.89-10.8h7.22V176.4l-4.65,0v-12l-4.38,12h-4.24l-4.48-12v12Z" transform="translate(-138.82 -146.07)"/><path class="cls-4" d="M1063.27,146.43h22.83c3.19,0,5.17,2.86,4.43,6.38l-10.63,50.24c-.75,3.51-3.94,6.37-7.13,6.37h-22.83c-3.19,0-5.17-2.86-4.43-6.37l10.64-50.24c.74-3.52,3.93-6.38,7.12-6.38" transform="translate(-138.82 -146.07)"/><path class="cls-14" d="M1084.2,146.43h26.26c3.19,0,1.75,2.86,1,6.38l-10.63,50.24c-.74,3.51-.51,6.37-3.7,6.37h-26.26c-3.19,0-5.17-2.86-4.42-6.37l10.63-50.24c.75-3.52,3.94-6.38,7.12-6.38" transform="translate(-138.82 -146.07)"/><path class="cls-15" d="M1109.42,146.43h22.83c3.2,0,5.18,2.86,4.43,6.38l-10.63,50.24c-.75,3.51-3.94,6.37-7.13,6.37h-22.83c-3.19,0-5.17-2.86-4.42-6.37l10.63-50.24c.74-3.52,3.93-6.38,7.12-6.38" transform="translate(-138.82 -146.07)"/><path class="cls-3" d="M1069.23,162.53a21,21,0,0,1-3.26-.06c-.08.45-1.67,8.5-1.67,8.5-.34,1.63-.59,2.79-1.44,3.54a2.36,2.36,0,0,1-1.68.65,1.62,1.62,0,0,1-1.75-1.65l0-.37s.32-2.18.32-2.2,1.66-7.33,2-8.3a.65.65,0,0,0,0-.11,21.79,21.79,0,0,1-3.85-.06c0,.08-.1.54-.1.54l-1.7,8.26-.14.7-.29,2.3a3.65,3.65,0,0,0,.37,1.7c.77,1.49,3,1.71,4.23,1.71a7.66,7.66,0,0,0,4.13-1.06c1.77-1.15,2.24-3,2.65-4.55l.19-.82s1.71-7.62,2-8.61A1,1,0,0,0,1069.23,162.53Zm5.83,6.14a4.27,4.27,0,0,0-1.84.48c-.25.14-.48.3-.73.46l.23-.88-.13-.15c-1.43.32-1.76.37-3.08.57l-.11.08a49.26,49.26,0,0,1-.87,5.23c-.22,1-.44,2-.67,3.07l.06.13c1.36-.08,1.78-.08,3-.06l.1-.11c.15-.85.17-1.05.5-2.77.15-.81.48-2.6.64-3.23a2.11,2.11,0,0,1,.87-.3c.66,0,.58.63.55.89,0,.42-.27,1.81-.51,3l-.17.77c-.11.57-.24,1.12-.36,1.69l0,.11c1.35-.08,1.75-.08,2.9-.06l.13-.11c.21-1.33.27-1.68.64-3.61l.18-.88c.36-1.74.54-2.61.27-3.33A1.54,1.54,0,0,0,1075.06,168.67Zm6.51,1.82c-.71.15-1.16.25-1.62.32l-1.57.25-.05.06,0,0c-.08.56-.13,1.05-.22,1.63s-.21,1.26-.41,2.23a9,9,0,0,1-.32,1.27,9.49,9.49,0,0,0-.36,1.24l0,.07,0,.06c.65,0,1.07-.06,1.5-.06s.88,0,1.58,0l.06,0,.06-.06c.1-.66.12-.84.18-1.16s.16-.82.42-2.09c.12-.6.26-1.2.38-1.81s.27-1.2.4-1.8l0-.07Zm0-2.45a2.42,2.42,0,0,0-2.55.3c-.76.57-.85,1.38-.2,1.8a2.39,2.39,0,0,0,2.53-.3C1082.13,169.26,1082.23,168.46,1081.59,168Zm3.92,9.75a4.63,4.63,0,0,0,3.66-1.58,7.41,7.41,0,0,0,1.26-3c.4-1.95.09-2.85-.3-3.41a3.22,3.22,0,0,0-2.75-1.11,4.75,4.75,0,0,0-3.46,1.32,6.38,6.38,0,0,0-1.53,3.28c-.25,1.19-.53,3.33,1.26,4.13A4.79,4.79,0,0,0,1085.51,177.79Zm-.11-4.37c.31-1.47.66-2.71,1.57-2.71.72,0,.77.92.45,2.4a6.69,6.69,0,0,1-.67,2.06,1.07,1.07,0,0,1-.86.62c-.09,0-.66,0-.67-.93A7.56,7.56,0,0,1,1085.4,173.42Zm8.31,4.18.1-.11c.15-.85.17-1.05.49-2.76.16-.82.49-2.61.65-3.24a2.06,2.06,0,0,1,.87-.3c.66,0,.58.63.55.89,0,.42-.26,1.81-.51,3l-.16.77c-.12.57-.25,1.12-.37,1.69l.05.11c1.35-.08,1.74-.08,2.9-.06l.13-.11c.21-1.33.26-1.68.64-3.61l.18-.88c.36-1.74.54-2.61.28-3.33a1.56,1.56,0,0,0-1.62-1,4.07,4.07,0,0,0-1.84.47c-.24.14-.49.3-.72.46l.2-.88-.11-.15c-1.43.32-1.76.37-3.09.57l-.1.08a48.54,48.54,0,0,1-.86,5.23c-.22,1-.45,2-.67,3.07l.06.13C1092.12,177.58,1092.53,177.58,1093.71,177.6Zm9.88.06c.09-.46.59-3.15.6-3.15s.42-2,.45-2a1.42,1.42,0,0,1,.27-.29h.2c1.87,0,4,0,5.63-1.34a6.67,6.67,0,0,0,2.24-3.92,6.52,6.52,0,0,0,.16-1.37,3.1,3.1,0,0,0-.45-1.74c-.84-1.3-2.52-1.33-4.46-1.34h-1a36.61,36.61,0,0,1-3.89,0c0,.2-.1.56-.1.56l-.89,4.54-2.23,10.1C1102.33,177.61,1103.22,177.61,1103.59,177.66Zm1.65-8.06s1-4.53.94-4.51l0-.23,0-.18.38,0,2,.19c.77.33,1.09,1.17.87,2.28a3.3,3.3,0,0,1-1.56,2.26,4.49,4.49,0,0,1-2.19.38h-.52Zm5.89,3.9c-.25,1.17-.54,3.32,1.24,4.08a3.28,3.28,0,0,0,1.6.32,2.61,2.61,0,0,0,1.52-.77c0,.18-.09.36-.13.53l.08.12c1.28-.06,1.68-.06,3.07-.05l.12-.1c.21-1.32.4-2.59.92-5.1l.78-3.58,0-.14c-1.44.3-1.82.36-3.2.57l-.1.1c0,.12,0,.24,0,.35a2.1,2.1,0,0,0-1-.91c-.61-.26-2,.08-3.29,1.32A6.42,6.42,0,0,0,1111.13,173.5Zm3,.07c.31-1.44.66-2.66,1.57-2.66.58,0,.88.58.82,1.58l-.16.81c-.1.43-.2.86-.29,1.28a3.1,3.1,0,0,1-.34.75,1.51,1.51,0,0,1-1.11.6c-.1,0-.66,0-.68-.92A7,7,0,0,1,1114.14,173.57Zm15.71-4.77-.11-.14a28.51,28.51,0,0,1-3,.56l-.09.11a.64.64,0,0,0,0,.07v0c-1,2.46-.94,1.93-1.73,3.87a1.85,1.85,0,0,1,0-.24l-.2-4.2-.12-.14a27.55,27.55,0,0,1-2.89.56l-.11.11a.41.41,0,0,0,0,.16v0a22.64,22.64,0,0,1,.31,2.28c.08.74.18,1.49.26,2.23.14,1.24.21,1.84.38,3.73-.93,1.68-1.15,2.32-2,3.79v0l-.63,1.09a.46.46,0,0,1-.23.23.93.93,0,0,1-.41.06h-.35l-.51,1.9,1.77,0a2.16,2.16,0,0,0,2-1.26l1.11-2.11h0l.11-.14C1124.14,179.58,1129.85,168.8,1129.85,168.8Zm-18.72,24.86h-.75l2.78-10.14h.93l.29-1,0,1.16c0,.72.48,1.36,1.82,1.25h1.56l.54-1.95h-.59c-.33,0-.49-.1-.47-.3l0-1.18h-2.89a37.67,37.67,0,0,0-4.28.26,5,5,0,0,0-1.4.77l.28-1.05h-2.7l-.56,2.07-2.83,10.3h-.54l-.54,1.94h5.38l-.18.64h2.65l.17-.64h.75Zm-2.21-8.07a11.05,11.05,0,0,0-1.23.53l.71-2.6h2.15l-.52,1.89A6.78,6.78,0,0,0,1108.92,185.59Zm0,3.7s-.67.09-1.11.2a10.83,10.83,0,0,0-1.26.61l.74-2.7h2.16Zm-1.2,4.4h-2.15l.62-2.28h2.15Zm5.19-6.29h3.1l-.45,1.59h-3.14l-.47,1.74h2.75l-2.09,3.22a.8.8,0,0,1-.42.39,1.13,1.13,0,0,1-.56.18h-.76l-.52,1.9h2a2.37,2.37,0,0,0,2.1-1.2l1.43-2.15.31,2.18a1,1,0,0,0,.51.75,1.67,1.67,0,0,0,.7.32l.69,0h1l.59-2.13h-.39a1.46,1.46,0,0,1-.67-.12,1.43,1.43,0,0,1-.1-.45l-.31-2.19H1117l.56-.73h3.13l.49-1.74h-2.91l.45-1.59h2.9l.54-2h-8.64Zm-26.21,6.73.73-2.65h3l.55-2h-3l.45-1.63h2.91l.54-1.91h-7.28l-.53,1.91h1.66l-.44,1.63h-1.66l-.55,2h1.65l-1,3.51a.9.9,0,0,0,.18.86.81.81,0,0,0,.53.43,3,3,0,0,0,.76.11h3.36l.6-2.18-1.49.22C1087.45,194.46,1086.66,194.42,1086.74,194.13Zm.35-12.69-.76,1.5a1.63,1.63,0,0,1-.44.62,1.27,1.27,0,0,1-.67.12h-.39l-.53,1.91h1.31a2.71,2.71,0,0,0,1.34-.38c.25-.14.31-.06.5-.26l.44-.42H1092l.55-2h-3l.52-1.09Zm6,12.73c-.07-.11,0-.3.09-.71l1.11-4.06h4c.58,0,1,0,1.27,0a2.41,2.41,0,0,0,1-.35,1.85,1.85,0,0,0,.69-.71,6.08,6.08,0,0,0,.69-1.71l1.4-5.14-4.12,0a11.58,11.58,0,0,0-1.82.43,7.44,7.44,0,0,0-1.37,1l.37-1.41h-2.54l-3.56,13a8.3,8.3,0,0,0-.23,1.09c0,.24.27.47.45.65a1.48,1.48,0,0,0,.83.18c.32,0,.77,0,1.39,0h2l.6-2.23-1.75.18A.46.46,0,0,1,1093.11,194.17Zm1.92-7.52h4.17l-.27.92a2.17,2.17,0,0,0-.55,0h-3.61Zm.84-3.06h4.2l-.3,1.1s-2,0-2.3,0a4.53,4.53,0,0,0-2.21,1.09Zm3.16,7a.52.52,0,0,1-.17.28.74.74,0,0,1-.42.08h-.6l0-1.11h-2.47l-.1,5.44c0,.39,0,.62.29.8a4.48,4.48,0,0,0,2.15.26h1.54l.56-2-1.34.08-.45,0a.59.59,0,0,1-.19-.12c0-.07-.15,0-.13-.42v-1.4l1.41-.06A1.71,1.71,0,0,0,1101,191l.24-1.23h-1.94Z" transform="translate(-138.82 -146.07)"/><g id="_319-5" data-name="319"><g id="New-Icons-5" data-name="New-Icons"><g id="Card-Brands-5" data-name="Card-Brands"><g id="Color-5" data-name="Color"><g id="Visa-2" data-name="Visa"><rect id="Container-2" data-name="Container" class="cls-1" x="130.58" y="0.74" width="92.61" height="61.09" rx="7.88"/></g></g></g></g></g><path class="cls-5" d="M292.38,166.18a4.54,4.54,0,0,1-3.65,1.72,5.12,5.12,0,0,1,1.3-3.78,5.45,5.45,0,0,1,3.62-1.87,5.51,5.51,0,0,1-1.27,3.93m1.26,2c-2-.12-3.74,1.14-4.7,1.14s-2.43-1.09-4-1.06a6,6,0,0,0-5.06,3.07c-2.17,3.74-.56,9.28,1.54,12.32,1,1.5,2.26,3.16,3.88,3.1s2.14-1,4-1,2.4,1,4,1,2.74-1.51,3.77-3a13.32,13.32,0,0,0,1.68-3.47,5.46,5.46,0,0,1-3.27-5,5.56,5.56,0,0,1,2.65-4.66,5.73,5.73,0,0,0-4.49-2.43m11.63-4.2v22.58h3.5v-7.72h4.86a7.16,7.16,0,0,0,7.54-7.45,7.08,7.08,0,0,0-7.43-7.41Zm3.5,3h4.05c3,0,4.78,1.62,4.78,4.48s-1.74,4.49-4.8,4.49h-4Zm18.81,19.8a5.8,5.8,0,0,0,5.17-2.88h.07v2.71h3.25V175.32c0-3.26-2.61-5.36-6.62-5.36-3.73,0-6.48,2.13-6.58,5H326c.26-1.39,1.55-2.3,3.31-2.3,2.15,0,3.35,1,3.35,2.84v1.25l-4.37.26c-4.07.24-6.28,1.91-6.28,4.81S324.32,186.73,327.58,186.73Zm.94-2.68c-1.87,0-3.06-.9-3.06-2.27s1.15-2.25,3.33-2.38l3.9-.24v1.27C332.69,182.55,330.89,184.05,328.52,184.05Zm11.88,8.65c3.42,0,5-1.3,6.43-5.26L353,170.18h-3.57l-4.13,13.34h-.07l-4.13-13.34h-3.66l5.94,16.44-.32,1c-.54,1.69-1.41,2.34-3,2.34-.27,0-.81,0-1-.05v2.7A9.27,9.27,0,0,0,340.4,192.7Z" transform="translate(-138.82 -146.07)"/></svg>